<svg width="456" height="431" viewBox="0 0 456 431" fill="none" xmlns="http://www.w3.org/2000/svg">
<path d="M12.5414 145.293L13.624 143.034L15.6993 144.208L17.0525 140.865L16.3307 139.961L18.5863 138.335L16.6013 136.528L13.7142 136.98L13.263 133.636L16.2405 132.01L14.4361 130.203L20.3909 125.052L19.1279 123.968L20.4811 122.161L16.9623 120.354L16.1503 116.92L24.3609 114.571L24.6315 113.667L29.4133 115.204L33.2932 112.131L30.0449 107.704L32.1202 107.614L29.6842 104.09L32.9322 103.005L30.7668 101.74L31.4884 93.6988L32.7518 95.3251L35.0976 90.5363L34.3758 90.2652L32.6616 89.6325L31.218 92.253L25.5337 92.4338L26.6163 85.1148L29.0525 85.0245L26.1654 82.4041L26.7067 80.2354H29.8645L31.3984 82.133L30.3158 83.3076L32.3908 84.6629H34.9172L41.9549 77.2539H43.5787L44.2103 80.9586L47.0977 79.9643L46.7367 81.591L49.8947 82.133L49.1729 84.3017L52.1504 87.9159L53.4135 87.464L53.6841 91.1689L56.7516 91.2592L59.9998 88.6387L61.1728 88.8195V89.8133L65.4134 90.446L62.9774 91.3495L63.609 92.7047L65.5036 91.801L66.1354 94.0602L73.6239 94.3312L74.0751 93.1566L82.3757 93.6085L84.541 96.2288L83.2782 96.7708L83.4584 99.6622L85.8042 99.7527L86.7066 91.5303L88.872 92.1626L90.6766 86.922L99.1575 89.0002V87.3739V87.0124L102.045 87.464L103.94 83.6692L110.165 81.7718L116.752 75.7175L117.925 77.7958L126.406 78.0669L126.496 73.7298L130.827 73.8201L132.722 70.8385L137.684 74.3625L136.33 70.1158L150.767 61.8931L149.774 58.4595L156.902 61.5318L157.534 59.9053L158.797 62.0739L166.195 63.7905L164.571 66.5014L173.594 68.0372L174.135 66.0495L175.489 66.953L176.391 67.5857L181.262 59.8149L178.827 57.7368L180.09 55.5681L178.015 51.5925L181.713 49.8755L182.164 48.43L179.098 45.9904L181.623 45.1772L181.443 43.3699L183.248 42.376L173.594 33.4308L177.022 32.3465L176.571 31.0815L182.346 29.0937L183.158 30.8103L186.495 30.6295L186.856 28.461L189.474 28.1901L189.023 30.3586H188.391L187.76 30.9007L189.203 34.4247L190.015 34.5152L193.083 30.1778L198.134 32.1657L198.857 29.3647L207.879 26.5636L209.955 30.3586L214.014 22.3169L217.353 20.1483L215.82 16.3533L219.698 15.0883L215.278 12.1969L216.722 8.04048L225.835 4.51658L226.196 2.8901L228.631 3.70343L231.068 0.540771L235.67 2.25775L235.217 5.14911H238.105L239.458 8.67301L241.895 8.22128L242.707 9.57647L245.052 9.03443L247.579 13.8232L250.555 12.0163L255.879 15.5402L257.142 30.9911H262.285L262.014 33.7017L263.459 33.8825L264 32.0754L267.518 32.256L269.684 30.6295H276.27L279.519 32.1657V27.4671L285.203 31.9851L284.572 35.3282L286.556 39.1232L284.932 42.8279L286.285 51.6828L288.54 53.219L286.917 56.8332L289.895 58.6401L290.256 61.8931L283.307 67.0434L282.225 69.4831L284.121 71.4708L288.45 71.1997L284.301 74.8143L288.36 76.8923L287.999 80.8679L293.142 80.1451L294.405 83.3981L291.609 89.5422L297.383 90.5363L298.105 93.4277L294.134 94.1505L295.94 96.048L294.315 102.192L296.752 103.457L296.03 107.252L294.495 108.788L294.858 109.15L293.142 110.957L294.587 112.493L294.315 114.481L297.203 117.462L298.555 120.896L304.781 119.36L302.165 124.782L304.33 128.847L303.789 133.275L305.414 134.63L305.142 137.612L306.045 140.594L307.038 143.304L310.555 144.389L310.375 149.539L312.902 150.624L313.173 150.804L308.932 153.244L311.459 157.129L314.345 156.316L320.029 155.232L322.917 156.316L330.495 163.002L332.752 166.797L337.895 161.647L342.585 163.906L348.632 160.924L351.969 162.189L348.452 162.731V164.358L351.067 165.713L352.42 162.641L353.051 163.725L350.346 167.611L357.112 177.188L370.647 178.724L376.692 174.839L377.774 175.743L373.443 179.628L376.331 184.508L376.601 189.477L379.848 190.11L380.211 190.018L386.256 187.76L385.623 189.025L389.683 188.935L389.503 193.362L391.126 193.814H394.195L394.105 186.767L400.6 186.496L404.661 184.326L407.006 187.127L410.435 186.767L410.075 182.97L411.518 182.79L413.323 178.273L418.466 178.363L418.556 180.803L420.18 178.996L427.397 179.628L429.293 184.868L426.946 191.193L431.458 197.88L433.262 197.338L437.052 203.03L438.766 203.21L442.195 207.909L441.203 211.163L445.173 216.042L444.089 220.289L442.375 219.656L441.563 219.386L441.924 228.692L452.21 228.239L452.751 231.763L454.916 232.578V232.668L454.736 239.083L451.128 238.45L450.316 245.408L453.112 248.571L455.459 256.702L452.932 258.69L455.367 261.581L455.459 261.763L453.473 262.756L451.218 269.534L442.105 272.785L436.601 279.202L432.54 277.937L419.007 281.37L418.827 281.641L412.421 293.658H415.488L420.631 289.864L421.533 291.58L422.525 293.297L425.052 293.748L420.09 310.826L415.668 306.85L416.029 310.916L408.722 311.097L406.826 308.025L403.939 307.755L402.857 307.573L402.496 312.905L400.24 311.459L401.773 314.17L401.322 315.253H394.014L393.564 317.604L387.97 323.566L388.06 329.621L382.285 334.86L384.721 337.753L382.376 339.559L381.023 342.27L379.307 345.794L379.848 346.697L377.233 348.235L377.503 349.86L375.88 351.306L381.203 352.029L377.233 355.192L378.135 356.908L374.705 355.825L374.525 354.377L369.202 355.102L368.48 358.083L369.112 360.974L368.119 362.15L370.556 363.595L368.57 369.287L364.059 369.738L361.624 366.214L360.812 369.107L359.008 368.745L358.194 371.275L356.03 368.292L354.316 370.28L348.271 369.83L345.112 375.612L343.308 374.076L342.405 370.461L335.278 373.714L334.195 371.546L331.848 374.257L332.301 376.065L332.932 377.871L331.127 378.503L332.662 380.852L329.143 382.479L329.593 385.731L333.744 384.648L334.285 386.636L330.676 387.269L329.323 389.165L330.044 391.876L328.421 392.781L329.323 399.015L333.384 398.383L336.811 401.454L339.158 401.274L341.232 401.094L342.224 406.243L336.089 408.864L335.999 409.314L335.729 412.478L332.481 408.592L331.037 411.755L326.976 411.575L327.429 413.471L321.382 415.639L320.751 425.037L322.286 425.398L321.745 428.199L317.053 430.459L315.427 429.645L314.255 427.296L304.059 424.405L303.067 416.634L305.051 408.141L301.173 408.231L298.105 405.34L299.91 404.165L299.367 403.17L298.195 401.274L296.391 401.094L295.489 398.743L292.601 397.117L293.864 391.785L291.428 387.449L295.038 384.828L298.014 386.093L296.661 383.292L298.465 384.286L298.285 381.124L303.698 377.51L300.452 370.823L299.097 367.661H295.399L292.601 370.01L289.715 367.479L289.081 366.939L286.556 367.932L283.578 363.413L280.601 366.034L277.172 363.413L276.721 360.702L272.841 360.522L270.045 362.782L268.151 357.631L264.541 358.896L260.21 356.095L259.939 354.377L261.653 354.559L261.292 349.95L258.767 347.872L259.037 347.059L255.698 345.071L256.6 340.012L255.338 339.017L255.248 337.753L253.534 337.391L251.549 335.855L249.203 335.945L244.962 337.301L234.856 339.017L236.572 339.922L238.015 342.54L236.572 343.355L236.662 346.246H237.744L237.564 348.685L236.031 348.865L235.758 351.396L236.391 352.299L232.421 356.455L230.254 356.275L229.082 357.451L224.029 353.564L218.976 352.661L218.525 355.01L216.902 354.107L216.812 352.571L217.263 351.668L217.714 350.493L216.631 347.24L213.473 346.879L213.834 345.794L212.21 345.161L212.751 343.083L211.398 340.734L210.045 341.187L208.6 338.114L207.879 338.294L207.698 337.301L204.993 338.024L203.097 337.391L201.654 338.294L201.203 335.855L199.85 336.126L199.579 338.656L197.593 336.668L196.691 338.114L194.526 336.216L194.436 337.571L194.346 339.922L191.007 338.566L192.45 336.668L190.646 335.855L188.842 337.029L187.67 335.675L185.864 335.945L182.527 333.234L183.339 331.609L182.617 331.066L183.339 329.621L182.707 328.808L183.79 326.277L185.233 324.289L183.158 321.94L182.797 320.132L181.803 318.326L183.068 318.777L183.339 317.694L179.549 313.898L181.262 312.452L178.286 308.206L177.654 308.478L176.12 306.94L176.3 305.224L174.676 303.146L178.286 302.151L177.473 299.532L178.286 296.369L176.391 296.731L176.12 295.103L174.225 294.29L172.331 294.653L172.421 289.321L176.3 288.869L176.21 287.966L171.519 288.328L169.534 286.43L169.353 283.989L166.105 283.539L164.571 280.285L164.12 278.027H164.03L162.857 277.394L163.037 274.323L162.315 274.051L154.737 275.949L156 277.394L152.12 281.461L151.94 281.37L149.865 280.828L150.947 278.207L148.962 276.039L149.504 273.69L146.526 269.534L140.752 270.707L136.421 267.816L133.804 270.346L131.729 267.455L132.902 265.738L132.361 262.937L134.345 262.486L133.804 261.763L132.09 259.323L133.714 257.335L131.548 256.522L130.646 258.6L125.504 261.221L126.225 262.847L124.06 265.287L122.977 263.841H122.887L118.917 264.292L119.007 265.557L116.752 265.92L115.308 263.299L112.962 264.745L112.331 267.726L110.797 267.546L111.699 270.074L111.97 270.617L111.699 272.335L108.541 271.43L107.459 275.858L107.91 276.762L105.564 279.02L104.21 282.003L105.473 282.544L101.323 285.345L99.8795 281.911L93.4736 281.188L90.4962 284.622L88.7816 283.809L87.3382 279.472L81.7441 277.937L81.6539 276.039L79.6689 277.304L80.0299 278.387L77.2329 277.484L75.6991 274.413L73.8945 273.78L71.3683 275.768L70.0149 272.785L68.4811 272.515L67.3984 274.051L63.6992 274.954L61.0826 273.057L61.6238 270.889L59.3684 270.979L54.7668 264.925L52.4211 267.726L51.5187 265.828L47.3683 268.088L44.8419 266.28L39.7894 266.01L38.887 268.629L39.9698 269.714L38.346 272.425L36.09 271.159L32.6616 272.425L33.9248 273.961L29.5036 274.593L27.9698 275.858L24.5411 274.503L23.3685 275.046L21.6541 273.508L20.3005 273.418L19.8495 270.889L19.5787 269.534L16.06 269.081L13.624 265.287L14.9774 263.569L10.7368 259.955L12.451 259.685L13.8946 256.432L13.5336 250.197L15.3383 249.654L14.6165 246.673L17.5939 244.142L15.2481 242.969L16.1503 240.258L13.9849 238.721L14.1652 236.282L16.7819 234.926L16.2405 234.114L17.0525 232.758L16.06 230.137L19.2179 228.511L14.2556 224.445L14.7067 220.108L18.5863 219.746L19.0375 221.554L21.1127 220.741L20.6615 218.391L23.0977 218.21L22.3757 212.338L19.3983 211.163L18.9473 207.367L16.6915 206.464L18.3157 201.132L16.8721 200.139L15.3383 195.712L15.6993 193.634L18.9473 194.447L17.3231 190.38L18.3157 189.477L17.7743 187.037L17.5035 185.863L13.263 185.141L13.8946 182.34L10.015 177.098L9.654 174.749L6.49621 169.96L8.39081 167.52L6.1354 168.695L5.50381 165.352L0.54126 159.84L5.41342 151.256L7.39841 151.617L9.38339 148.184L8.842 145.744L11.8194 146.919L12.5414 145.293Z" fill="#BEAB8E" fill-opacity="0.33" stroke="#8D734A" stroke-linejoin="round"/>
<path d="M267.608 191.826L267.517 192.278L261.382 192.639L261.022 192.278L254.977 192.729L256.059 191.646L255.879 190.923L253.985 190.29L253.083 191.013L253.263 192.278L252 193.001L253.714 195.44L253.624 196.615L254.345 197.338L255.428 196.885L258.947 198.151L260.029 199.326L260.21 197.608L262.014 194.989L261.292 193.994L261.924 193.091L265.533 192.821L265.082 193.634L265.623 194.357M267.608 191.826L270.766 193.544L269.954 194.899L267.067 193.544L265.623 194.357M267.608 191.826L267.517 190.38L262.647 189.025L264 186.314L263.098 181.887M265.623 194.357L265.984 195.35L266.976 195.17L268.511 198.693L271.849 199.056L271.488 200.501M247.399 193.091L247.489 191.916L247.038 191.736L246.677 190.743L247.399 190.471L247.218 189.838L245.593 189.205L245.683 187.85L243.518 188.665M247.399 193.091L243.518 193.994V188.665M247.399 193.091L247.669 194.717L245.593 195.17L246.044 197.338L249.653 197.067L250.285 196.163L252.992 197.608M243.518 188.665L243.248 182.34L242.797 180.893L237.383 175.923M251.549 159.75L252.722 159.84L253.624 161.286L253.353 162.37L252.541 162.28L252.451 161.466H250.285L250.195 162.641L248.12 163.996L249.834 166.255L248.571 167.611L249.924 168.062L250.645 167.611L251.457 168.514L250.916 172.219L249.563 172.942M251.549 159.75L252 158.846L253.443 158.936L253.894 159.659L254.526 159.298L254.796 156.587L254.255 156.316M251.549 159.75L250.285 160.201M249.563 172.942L252 175.02L254.796 175.11L254.977 176.556L254.526 177.008L256.059 178.182L258.316 176.737L261.743 179.447L263.098 181.887M249.563 172.942L248.932 172.399L242.977 174.568L241.444 174.658L239.819 173.303M238.466 152.973L238.916 153.605H239.097L238.375 154.961L237.473 154.78L237.203 155.051L238.105 156.406L237.203 156.316L236.662 157.852L237.473 159.388L238.646 159.93L240.811 162.641M238.466 152.973L239.007 152.702L238.826 152.611L239.007 152.431L239.187 152.521L239.367 152.16L239.277 151.617M238.466 152.973L238.375 152.882L238.826 152.34L238.646 151.979L239.277 151.617M240.811 162.641L240.901 162.46M240.811 162.641V162.912M212.931 169.598L212.661 168.604L210.857 168.243L211.578 163.906L210.406 162.008L211.488 159.478L210.676 159.117L209.324 160.382L209.504 158.756L208.33 158.213L208.42 157.852M212.931 169.598L209.775 171.857H207.518L205.804 172.942L204.361 172.399L203.459 168.966L202.646 168.876L202.465 166.888L203.638 166.797L203.187 165.442L204.361 165.261L203.91 163.273L206.075 161.195L204.451 160.563L203.459 161.376L200.21 160.111L199.759 160.472L200.03 160.834L199.579 161.195L199.038 160.743L198.406 161.286L199.579 163.002L198.857 163.545L198.497 163.002L197.593 163.725L198.767 165.081L199.399 164.267L201.473 165.623L200.481 166.978L201.022 167.43L200.301 169.689L201.383 170.321L201.112 171.677M212.931 169.598L215.188 167.972L215.91 167.882L214.557 162.641L215.819 162.189M208.42 157.852L207.788 157.942L204.812 159.93L204.541 158.756L200.12 159.75L199.759 159.207L200.03 158.756M208.42 157.852L208.69 157.219L209.594 157.31L209.504 156.587M284.662 154.509L284.391 150.533L280.691 149.81L281.052 146.557L289.895 149.178L292.33 145.925L293.683 146.015L291.248 143.937L292.871 143.666L295.038 143.847L294.495 142.13L297.293 143.305L297.022 141.859L294.948 140.323L296.12 139.419L294.044 137.883L297.924 139.058L297.563 141.407L297.924 141.859M284.662 154.509L282.044 155.955L281.503 153.876L279.068 155.684L281.052 158.394L278.435 158.123L278.887 161.828L275.999 161.918L275.819 162.822L278.164 164.539L277.984 166.346L279.699 170.502L279.609 173.574L276.811 173.303M284.662 154.509L285.654 156.587H288.901L290.436 154.78L293.142 155.503L293.232 152.792L298.104 153.154L298.465 148.094L294.948 147.19L298.645 143.666L299.728 144.841L297.924 141.859M297.924 141.859L299.277 140.594L300.542 141.678L300.269 144.389L302.075 143.485L304.42 145.383L306.406 144.57L305.232 142.401L303.157 142.311L306.045 140.594M276.811 173.303L277.082 171.857L275.819 170.321L274.466 170.412L274.286 174.297L273.111 174.388L271.668 173.122L271.037 175.833L273.111 176.014L276.45 177.008L276.991 176.104M276.811 173.303L276.991 176.104M276.991 176.104L277.713 176.737L276.36 178.544L276.631 180.983L271.217 181.797L269.413 179.899L269.143 181.345L265.894 180.803L263.098 181.887M330.766 176.737L334.014 176.827L333.113 175.562L335.007 174.93L334.014 172.58L334.736 171.948M330.766 176.737L324.721 176.827L324.45 174.388L325.262 174.207L324.991 167.249L327.97 167.159L331.938 168.243L334.736 171.948M330.766 176.737L330.676 177.279L328.421 177.46L328.601 179.538L325.082 180.803L327.338 185.321L328.872 185.681V187.76H330.585L330.856 193.452L328.691 193.814L328.421 196.345L332.301 198.331L330.766 202.217L329.052 202.579L333.564 206.736L333.654 209.445L332.571 210.168L330.315 210.078L331.217 210.891L327.97 215.68L322.286 214.957L320.66 215.68L314.255 215.409M334.736 171.948L335.638 171.044L332.752 166.797M242.526 209.085L243.338 209.627L243.518 210.71L245.863 211.163M242.526 209.085L243.248 208.362L243.067 205.471L242.436 203.12L244.961 205.108M242.526 209.085L240.179 212.066L239.007 213.241M245.863 211.163L246.224 211.523L245.773 212.156L247.128 214.144L246.224 216.585M245.863 211.163L248.571 211.343V209.807L247.579 207.277L244.961 205.108M212.931 229.325L214.104 229.957L215.639 234.294L216.451 235.016L217.353 234.294H218.525L218.615 234.564M212.931 229.325H212.3L211.218 230.59H210.496L207.067 236.282L206.075 236.642L206.436 237.818L204.541 238.631L203.096 237.727L202.826 240.709L200.03 239.625L197.863 240.258L198.677 238.631L197.863 238.09L199.669 237.005L196.33 236.642M212.931 229.325L214.375 229.234M218.615 234.564L219.427 235.016M218.615 234.564L217.804 236.915L216.09 237.005L217.082 238.993L215.098 240.438L215.91 242.426L215.459 243.059L212.029 242.246L209.955 246.131L211.037 246.673L213.022 245.95L216.631 248.661L216 250.107L218.706 249.474L218.525 247.848L221.143 248.479L222.135 247.396L220.331 243.42L222.496 242.064L220.782 240.891L222.045 239.716L220.151 238.993L219.337 236.915L219.517 235.287M191.097 237.095L187.127 238.36L185.864 237.908L187.397 240.168L180.902 241.341L182.527 242.246L177.112 242.607L173.684 246.04L172.511 245.318V247.666L170.255 247.396L167.458 252.275L165.654 252.998L165.112 256.069L168.541 257.967L166.376 265.195L170.526 266.19L164.481 269.081L162.315 274.051M191.097 237.095L191.007 236.734L192.45 236.012L191.728 234.114L193.354 232.578L194.256 233.571L194.797 233.028L193.714 231.763L195.248 232.306L195.969 230.86M191.097 237.095L191.999 240.891L194.075 239.986L195.067 240.709V237.908L196.33 236.642M176.21 287.966L180.27 287.695L179.999 285.978L182.978 285.255L182.164 274.864L188.932 271.34L188.391 273.87L198.857 274.503L210.135 269.534L213.833 265.015L216.721 270.166L218.706 267.636L220.241 269.894L221.143 265.647L223.758 266.551L223.578 262.124L227.097 262.937M227.097 262.937L228.541 261.581L230.074 263.569L231.158 262.666L229.803 259.593L229.533 253.36L223.668 252.095L222.225 250.287L222.856 247.576L225.744 246.943L224.119 245.588L226.917 241.161L226.646 239.625L229.352 238.27L231.97 233.028M227.097 262.937L228.27 263.841L225.384 268.088L226.105 269.534L227.819 268.719L229.893 272.425L226.917 273.148L229.533 280.466L225.021 281.911L227.368 283.086L223.488 287.966L224.931 291.762L225.835 290.947L231.429 291.309M174.947 218.843L173.954 215.047L168.992 216.222L170.796 217.578L170.345 218.21L168.631 217.488L167.729 219.386L170.165 219.746M174.947 218.843L170.165 219.746M174.947 218.843L177.834 216.042L179.368 217.125L179.639 215.409L183.429 216.222L184.511 213.784L186.135 213.061L186.766 213.601M170.165 219.746L167.368 222.547L167.548 220.469L159.067 221.554L157.172 224.175L151.488 224.625L151.579 227.879L147.879 230.95L139.939 232.306V234.023L135.608 231.763L134.436 234.023L133.714 231.403L129.834 231.132L129.564 235.829L123.338 229.324L118.737 233.661M187.94 214.596L189.924 216.765M187.94 214.596L187.036 215.77L187.397 216.585L185.774 215.77L184.601 216.855L184.24 216.585L185.864 214.324L186.766 213.601M187.94 214.596L187.397 213.964M189.924 216.765L190.105 214.687L191.097 213.964L193.173 214.596L194.707 213.784L196.059 214.867L195.158 215.952L195.879 217.125L191.638 219.023M189.924 216.765L189.022 218.03L190.015 219.836L191.638 219.023M191.638 219.023L191.458 220.831L189.744 221.374L191.458 224.083L192.54 222.637L194.887 223.632L191.728 225.078L191.999 226.253L197.503 226.614L198.948 225.168L198.857 228.602L195.969 230.86M195.969 230.86L196.781 231.222L196.15 232.848L197.052 233.391L196.33 236.642M187.397 213.964L189.564 211.705L189.022 210.168L192.27 208.722L195.879 209.627L197.052 206.644L198.044 207.819L198.496 207.187M187.397 213.964L186.856 213.241L186.766 213.601M198.496 207.187L198.948 207.549L197.503 209.085L197.322 210.44L198.406 211.705L199.128 211.073L201.293 213.061L202.375 211.795L204.451 211.976L205.083 210.801L204.992 207.187L206.796 207.277L213.473 217.398L216.721 219.023L217.353 220.199L216 220.379V221.192L217.082 221.915L217.533 223.18L216.721 224.625L215.098 223.993L213.563 225.981L210.225 226.976L210.496 228.602L211.578 227.879L213.653 228.239L214.375 229.234M198.496 207.187L198.857 205.108L201.202 205.289V203.663L202.646 205.198L203.818 203.663L204.361 204.566L205.083 204.025L204.361 202.037L202.375 199.416L200.661 193.814L200.751 187.127L198.497 190.018L197.863 189.567L197.232 190.29L196.33 189.838M117.112 159.659L117.654 158.756L117.473 157.671L118.556 156.226L120.18 157.039L120.721 159.027L122.345 159.298V164.358L118.195 164.267M117.112 159.659L116.12 159.659L116.751 157.129L109.714 156.135L110.436 159.117L107.819 160.653L107.187 153.876L105.654 153.696M117.112 159.659L118.195 164.267M118.195 164.267L117.924 167.159L120.631 166.978L126.045 175.743L119.909 177.731L122.255 179.628L119.909 182.34L117.563 182.248L117.834 187.309L120.812 185.863L121.173 188.573L123.158 189.838L123.518 188.212L125.142 188.935M193.083 168.514L192.27 168.062L191.909 166.526L193.173 164.448L196.059 166.165L197.052 163.002L195.609 162.28L195.789 164.719L194.977 164.809L195.067 163.093L192.179 163.364L191.367 161.647L192.721 161.376L190.826 159.93L189.834 162.912L188.301 158.936L190.285 158.394M193.083 168.514L192.269 169.96L193.444 170.954L190.375 170.412V171.677L188.301 171.315L189.654 170.231L187.307 169.96L183.068 167.068L180.27 168.424M193.083 168.514L194.165 169.598L194.707 168.424L195.879 171.586L198.134 173.484L198.948 171.315L200.03 172.038L201.112 171.677M190.285 158.394L190.015 156.949L187.67 156.225L186.495 158.033L187.217 161.828L184.24 159.659L180.631 159.388L181.172 158.033L180.451 155.141L181.713 154.328L179.368 150.443L181.352 149.991L182.435 151.346L184.872 149.901L191.187 154.328L190.466 155.141H191.548L191.277 158.213M190.285 158.394L191.277 158.213M191.277 158.213H193.444L193.534 159.388L196.781 157.942L198.947 159.207L200.03 158.756M200.03 158.756L202.285 156.858L203.006 155.684L204.451 155.774L205.173 154.147L206.165 154.418V154.961M235.848 62.887L238.285 64.8749L237.924 66.9529L239.007 67.3145L240.27 70.8384L239.909 73.549L241.444 75.7175L240.901 77.0731L243.699 77.7957L246.314 82.2233L243.248 84.8437L241.444 88.4579L243.248 91.9818L239.458 97.6744L239.728 100.656L237.203 103.005L239.367 108.608L235.397 110.867L239.728 111.318L240.63 116.74L239.097 117.553M239.097 117.553L239.187 119.902L240.721 119.27L247.669 118.095L256.69 123.245L258.857 122.071L259.669 124.962L261.022 126.318L269.774 125.414L270.496 126.227H274.376M239.097 117.553L237.383 117.101L234.225 121.077L230.074 124.962L231.609 127.944L230.436 132.281M141.654 135.082L143.188 134.63L143.639 136.076L145.984 129.932L142.646 127.221L144.902 125.233L143.909 124.51L145.173 122.974L144.631 120.444L149.684 118.547L150.316 117.282L155.007 116.74L155.278 112.222L157.353 109.601L156.812 106.891L160.06 107.072V104.361L164.21 103.457L168.451 105.264L168.812 103.186L164.661 100.114L169.443 100.024L167.548 95.5059L169.894 95.2348M141.654 135.082L140.391 133.908L139.127 134.811L140.571 135.805L139.849 137.431L135.428 135.805L136.42 139.69L133.984 139.329L133.172 140.684L129.834 139.509L122.075 141.859L119.548 140.232L118.105 142.31L108.541 142.582M141.654 135.082L142.285 136.618L145.624 139.148L148.511 138.697L153.022 145.835V148.094L166.646 150.714L168.18 156.045L173.413 154.599L172.962 161.286L175.308 161.828L176.481 165.442L177.834 165.081L176.842 167.068L178.736 166.165L180.27 168.424M169.894 95.2348V96.7708L176.571 104.361L176.661 106.258L180.812 107.794L182.076 110.415L179.639 112.945L179.909 115.384L188.03 114.842L190.285 119.27L191.909 120.083L193.264 122.071L189.564 127.854L190.736 134.088L192.54 133.817L195.158 136.98L192.089 138.516L191.909 141.498L195.338 146.015L196.15 145.202L201.924 146.557L201.563 144.75L203.547 145.835L204.181 144.931L205.804 146.467M169.894 95.2348L169.533 92.6145L170.616 91.5302L169.173 91.3494L169.082 89.9941L171.879 89.4517L169.894 87.9159L170.526 85.0245L165.383 80.0547L169.082 76.4405L170.796 72.9166L175.398 72.8261L177.924 70.7479L176.841 69.0311L173.594 68.0372M89.413 103.186L85.8041 99.7526M89.413 103.186L91.7592 107.794H95.7288L94.1952 110.324L97.5335 114.21L93.744 114.842L96.8116 120.444L102.045 120.264L101.594 123.516L109.533 127.763L107.278 134.992L108.541 142.582M89.413 103.186L85.8944 103.728L85.6238 113.758L80.6613 112.583L79.3981 116.559L80.7517 119.993L72.8117 121.348L72.3605 123.426L62.2554 122.432L51.5185 127.041L52.0599 133.094M24.3607 114.571L25.1725 115.926L25.2629 117.282L28.5111 121.348L30.0447 120.444L29.8643 119.902L31.6689 119.36L34.5562 121.709L32.481 123.788L34.7364 124.601L36.6312 124.239L36.9922 124.781L35.278 128.124L35.9996 129.209L41.8644 128.305L44.7517 132.823L46.9169 130.474L49.4433 131.377L48.2702 133.094L48.9923 134.72L52.0599 133.094M52.0599 133.094L53.2327 135.534L50.3457 137.522L47.5487 146.557H53.4133L50.7965 149.358L52.1503 155.051L55.6687 156.225L55.0373 160.924L52.1503 163.454L53.5935 167.159L46.556 173.664L48.6311 179.086L44.7517 182.52M17.7742 187.037L23.3683 187.309L22.5561 190.743L24.9921 191.826L26.3457 190.923L29.5035 191.466L31.0374 188.032L35.0072 187.219L36.4508 185.681H38.7968L39.9696 181.887L44.7517 182.52M44.7517 182.52L43.4884 185.411L46.9169 192.368L42.496 195.622L47.0071 194.989L47.1877 196.885L56.0297 196.163L57.2931 199.236L59.5486 199.869L60.3605 196.705L63.699 195.44M187.67 335.675L189.473 334.59L188.932 333.867L189.654 331.969L191.367 330.976L189.654 328.898L189.834 327.09L184.15 327.632L183.789 326.277M230.344 310.916L234.225 312.452L233.593 315.253L237.834 315.796L237.293 319.682L240.27 320.585L238.195 323.476L240.811 328.808L248.481 332.059L249.202 335.945M230.344 310.916L228.631 310.556L226.737 308.568L222.766 308.478L217.533 312.452L217.894 308.206L213.653 311.006L212.841 304.139L207.428 302.333L205.624 300.525L204.09 303.688L199.759 301.881L195.699 304.682L190.917 301.79L188.391 306.76L187.397 304.321L178.285 302.151M230.344 310.916L229.893 307.393L234.495 306.399L226.556 300.706L233.323 300.255L231.609 294.743L231.429 291.309M307.128 366.306L310.284 369.468L315.066 367.752L316.602 370.01L320.841 368.655L326.344 372.901L326.797 377.6L332.301 376.065M307.128 366.306L305.504 366.939L304.961 369.558L300.451 370.823M307.128 366.306L310.374 359.98L306.496 357.631L305.414 352.481M368.48 358.083L367.127 359.349L364.602 358.354L366.856 357.811L369.384 352.571L365.594 352.842L365.052 351.396L367.217 350.221L366.496 344.619L364.602 345.524L361.623 342.813L360.18 339.199L354.767 341.095L351.518 336.939L340.781 336.398L338.165 331.699L334.285 333.597L335.728 328.718L330.315 329.44L329.774 327.632M329.774 327.632L327.429 325.554L329.052 324.289L325.984 324.109L328.06 320.223L326.797 317.151M329.774 327.632L325.262 328.085L329.503 330.433L329.413 334.5L324.811 334.23L326.525 341.818L322.737 340.462L322.646 345.434L316.511 342.45L305.414 352.481M379.487 227.789L380.932 228.602L380.028 232.035L381.564 233.661L400.961 233.933L399.337 235.017L400.059 238.813L402.586 240.709L402.496 245.498L399.157 245.588L399.247 248.389L395.818 248.751L396.449 253.088L394.014 253.541L395.006 255.709L391.218 259.142L389.412 259.233V265.377L390.765 267.093L388.601 269.171L390.224 272.063L395.908 271.792L396.179 274.683L398.886 275.768L400.42 274.774L405.833 274.413L408.541 281.911L410.345 282.906L410.074 285.074L414.405 288.328L411.968 291.399L409.714 296.098L411.247 299.893L408 302.333L406.194 301.971L403.939 307.755M379.487 227.789L370.917 228.872L363.157 228.059L362.615 232.668L360 234.384L358.916 232.668L350.526 232.306L349.714 236.102L348.181 237.365L349.985 241.071L344.12 240.619L344.21 247.216L340.06 249.654L336.991 249.474M379.487 227.789L377.683 221.102L382.195 221.644L387.518 217.217L384.991 216.403L388.33 208.632L394.375 199.778L391.126 193.814M298.826 276.762L298.195 279.292L295.399 278.569L294.948 281.731L296.661 282.183L298.826 285.527L298.555 287.695L295.85 286.882L292.42 291.037L294.405 292.845L295.308 290.767L296.661 292.392L294.224 295.736L296.03 295.466L296.481 298.087L298.104 297.182L297.653 301.248L296.391 300.525L294.495 303.869L295.85 304.952L294.765 309.11M298.826 276.762L300.812 276.671L300.542 275.406L306.406 277.665L305.232 275.586L307.218 274.683L310.555 277.214L316.511 272.967L317.684 274.864L326.887 274.231L329.323 270.617L336.45 272.785L338.526 270.347M298.826 276.762L298.555 275.046L297.022 274.141M294.765 309.11L297.112 311.91L302.616 311.639L308.571 314.17L310.466 313.085L312.36 317.151L316.962 317.964L315.157 320.585L322.376 320.223L325.713 322.03L326.797 317.151M294.765 309.11L292.24 309.833L291.699 311.639L287.367 311.369L286.465 315.796L284.481 316.066L285.473 322.573L292.691 325.374L292.51 329.078L288.179 330.343L285.203 334.32M326.797 317.151L325.713 309.381L328.24 309.471L333.924 316.066L343.038 315.706L343.489 312.001L337.714 305.585M337.714 305.585L338.706 301.7M337.714 305.585L334.466 304.229L333.744 307.303L330.585 305.767L329.233 301.79L324.18 306.127L319.307 294.2L320.57 293.115L320.119 290.857L323.278 291.49L325.713 295.193L328.15 295.103L333.473 300.525L338.797 298.99L338.706 301.7M338.706 301.7L344.481 306.58L352.42 308.478L354.316 304.139L352.239 301.971L358.916 293.387L368.209 297.182L376.601 290.496M376.601 290.496L371.548 290.044L367.488 288.146L365.774 290.496L361.804 289.501L362.345 286.973L358.284 285.978L356.21 279.11L344.12 283.357L340.601 275.406L345.383 271.612L340.961 272.515L338.526 270.347M376.601 290.496L388.15 290.767L391.94 298.627L391.849 301.338L394.646 301.428L394.555 306.67L400.239 311.459M206.165 154.961H207.518M206.165 154.961L205.804 155.593L208.239 156.045L208.51 156.587H209.504M207.518 154.961L207.608 153.425M207.518 154.961L209.324 154.418L209.594 155.593M209.594 155.593L209.504 156.587M209.594 155.593L212.571 153.696L215.278 156.045L214.917 157.4L215.91 158.756L214.737 160.292L215.368 160.382L215.819 162.189M198.677 185.772L198.406 185.591L197.593 185.501L197.773 184.508L199.218 183.693H200.932M198.677 185.772L198.948 187.037L197.232 189.387L196.33 189.838M198.677 185.772L198.857 185.591L200.932 186.857L202.285 184.508L202.465 183.603M200.932 183.693L201.112 184.598H201.383L201.834 183.513M200.932 183.693L201.293 182.88L201.924 183.243L201.834 183.513M201.834 183.513L202.465 183.603M202.465 183.603L203.096 180.351L201.473 180.17L200.03 181.615L199.489 180.441V181.525L198.677 180.712L198.497 179.357L198.134 178.724L198.948 178.273L197.503 178.182L198.224 176.556L197.954 175.923L199.85 174.297L200.391 174.478L201.563 174.116L201.653 175.381L201.383 175.923L201.744 176.465L203.187 176.194L203.73 174.388L204.451 173.664L203.818 173.032H201.744L201.112 171.677M108.541 142.582L106.466 144.479L104.21 141.046L101.052 142.491L101.594 148.274L103.669 149.72L103.759 152.069L104.932 151.527L105.654 153.696M63.699 195.44L65.684 195.35L65.4132 199.506L68.0298 201.314L75.0673 198.423L80.4809 202.67L78.9471 205.831L82.5561 205.108L81.7439 208.272L84.8117 209.717L83.5487 212.246L86.3454 212.699L87.5186 218.933L90.0446 216.675L93.4734 221.554L95.5486 219.928L102.135 231.313L100.691 233.301L96.2704 232.848L97.6238 236.462L90.8566 240.168L92.1198 241.704L91.3078 243.42M63.699 195.44L65.7742 193.814L64.8718 192.278L60.2703 189.928L65.323 186.857L67.8494 192.096L70.3757 184.508L76.2403 183.062L76.8717 181.164L86.2552 180.08L87.2477 174.207L88.8718 180.17L90.4056 179.809L90.2252 175.291L96.6314 170.683L92.4808 169.327L95.6386 167.43L93.9244 164.719L100.421 160.653L100.15 158.846L96.8116 157.491L98.165 154.509L106.105 155.593L105.654 153.696M91.3078 243.42L87.4282 243.962L81.0223 250.017L80.1201 255.347L81.6537 252.728L83.9095 253.45L82.4659 259.685L77.0521 261.763L75.0673 259.685L68.3004 261.131L67.9394 267.183L66.2252 267.365L68.481 272.515M91.3078 243.42L92.7516 246.493L99.1574 246.853L100.962 250.107L106.105 246.493L107.187 249.744L113.503 247.396L116.571 248.119L116.3 242.877L121.443 241.071L118.646 237.457L118.737 233.661M125.142 188.935L127.669 191.736L126.316 192.639L127.127 196.163L125.955 198.513L131.007 205.561L128.842 207.277L128.571 212.156L131.639 214.777L126.947 216.585L122.887 221.011L115.488 222.277L112.782 224.806L113.774 227.156L112.15 228.962L115.849 230.137L118.737 233.661M125.142 188.935L127.308 186.314L132.27 188.573L132.36 185.141L134.436 185.681L138.496 179.809L146.255 180.532L147.97 182.52L154.827 181.887L156.992 185.049L161.232 183.785L164.12 188.665L170.165 191.374L175.669 191.284M180.27 168.424L178.646 169.237L180.18 171.135L182.797 171.948L183.338 174.839L180.361 178.724L182.076 180.712L181.352 183.785L179.368 184.056L179.007 187.309L174.676 189.477L176.03 190.923L175.669 191.284M175.669 191.284L175.669 193.814L178.917 196.163L180.361 193.994L182.797 194.176L184.691 195.892L188.03 192.368L192.811 194.176V190.833L196.33 189.838M205.804 146.467L205.985 147.642L204.361 148.636L204.541 150.804L205.714 151.346L204.722 152.611L207.608 153.425M205.804 146.467L207.157 147.28L211.488 141.949L212.3 142.13M231.429 291.309L231.248 288.689L232.24 286.52L237.383 288.598L237.203 289.773L242.256 292.392L243.158 290.406L241.985 287.695L244.33 287.333L244.601 285.617L246.857 288.146L249.383 287.515L251.908 285.707L250.916 282.003L249.383 282.726L248.661 279.382L249.924 277.484L248.481 276.581L249.473 273.69L252.632 275.136L251.277 276.401L253.353 279.563L259.127 275.046L261.653 275.496L265.082 272.245L267.067 271.702L267.427 269.624M214.375 229.234L215.188 229.415L216.27 230.68L215.639 232.306L217.894 231.763L216.992 230.95L218.074 230.5L218.435 229.415L219.427 229.957L218.976 232.758L219.79 233.301M207.608 153.425L213.112 152.431L213.473 151.527L212.931 150.081L211.218 148.636L212.571 148.003L212.931 146.287L215.368 144.66L215.549 144.027L213.382 144.208L213.292 144.931L212.39 144.66L212.3 142.13M212.3 142.13L212.661 140.052L214.827 137.341L213.473 136.347L214.286 133.456L212.661 131.287L213.743 131.016L213.112 129.119L217.804 127.402L221.955 127.944L227.188 132.462L230.436 132.281M230.436 132.281L231.248 132.642L231.158 134.359L229.533 134.72L228.36 140.323L230.436 141.498L229.984 142.13L240.179 150.894L239.277 151.527V151.617M215.819 162.189H216.451L216.09 160.653L218.886 159.93L219.427 160.382L219.518 161.286L218.345 161.195V162.37L218.886 162.731L218.706 163.545L218.435 163.635L217.984 163.906L218.074 166.888M219.427 235.016L219.517 235.287M219.427 235.016V234.746L219.79 233.301M219.517 235.287L220.151 233.933L222.135 234.474L222.676 230.95L226.827 231.763L230.707 229.325L231.97 233.028M251.908 224.175L250.736 227.066L251.277 230.77L252.09 229.867L253.894 233.028L252.361 234.384L251.096 232.396L249.473 233.933L248.571 232.848M251.908 224.175L250.014 223.09L249.202 221.915L247.85 221.554L245.773 218.753V217.307M251.908 224.175L254.526 224.988L254.345 222.819L255.338 222.187M248.571 232.848L247.399 232.306L249.383 237.185L252.181 236.192L254.165 242.697L250.826 244.775L253.714 247.216L254.526 246.131L255.969 247.034L257.955 252.546L259.127 251.552L261.563 253.721L262.647 256.341L260.751 258.87L259.308 258.51L258.406 260.316L257.684 259.413L256.69 260.408L258.586 262.666L260.48 263.117L260.21 264.745L263.729 264.022L264.541 261.944L266.796 263.027L266.525 264.925L268.151 265.105L266.976 267.183L267.427 269.624M248.571 232.848V231.403L246.677 230.409L246.134 228.692L243.789 232.216L241.805 229.957L242.256 234.564L236.481 233.029L235.758 234.836L231.97 233.028M219.79 233.301L220.421 233.751L221.774 233.028L221.323 231.132L220.241 229.867L219.698 229.595L220.06 227.156L220.602 223.542L222.045 222.909L221.233 220.831L227.458 221.554L229.623 220.831L236.121 216.132L239.007 213.241M267.427 269.624L269.684 268.449L273.925 268.991L278.435 267.906L279.338 268.811L282.766 267.816L282.585 271.069L283.938 272.063L289.262 269.352L293.413 269.804L294.495 273.87L297.022 274.141M274.376 126.227L274.286 126.318L270.405 129.48L269.774 129.028L268.602 129.841L268.872 130.745L266.255 132.281L269.503 134.72L268.151 136.528L265.533 134.811L264.18 136.799L266.165 139.419L268.059 138.335L268.872 138.877L268.059 141.588H269.143M274.376 126.227L294.495 108.788M239.819 173.303L237.383 173.484V175.923M239.819 173.303L239.728 172.49L242.977 172.219L244.871 169.327L242.977 168.062L238.826 168.876L238.556 167.159L239.728 163.906L240.811 162.912M237.383 175.923L230.707 169.96L229.352 169.779L228.45 169.689H226.015L219.97 167.34L217.804 167.52M240.901 162.46L241.804 163.816L243.699 161.737L245.683 163.364L244.871 164.719L243.248 165.081V164.267L242.616 164.087L241.804 164.809L240.811 162.912M240.901 162.46V162.189H242.346L241.895 161.105L242.526 160.563L243.879 161.105L244.781 160.472L249.563 160.924L250.285 160.201M239.007 213.241L239.367 213.601L239.458 215.047L240.993 215.319L241.895 214.234L244.15 214.144L245.773 215.952L244.33 216.675L245.773 217.307M245.773 217.307L246.224 216.585M246.224 216.585L249.383 215.68L251.187 221.102L251.908 221.914L253.894 221.282L255.338 222.187M254.255 156.316L252.632 154.328L253.534 154.147L255.247 155.412L257.053 155.232L255.788 151.437L258.406 149.449L257.053 147.822L261.022 148.003L263.549 145.473L265.533 148.094L266.886 146.738L269.143 146.919L270.315 149.087L271.578 145.021L269.143 141.588M254.255 156.316L252.632 156.768L250.014 154.418H247.669L246.134 157.4L246.224 158.213L247.128 159.117L248.21 159.298L248.3 158.394L250.285 160.201M263.549 201.584L263.368 202.85L265.353 204.748L264.631 206.736L263.729 206.644L262.555 208.452L261.382 208.272L261.743 209.897L259.849 211.253L260.029 213.151L257.504 213.601L254.165 211.433L253.353 212.879L255.518 214.324L256.961 214.054L256.69 215.5L254.616 216.855L255.969 218.12V220.289L256.871 220.469L257.414 222.277L255.338 222.187M263.549 201.584L259.578 200.229L259.037 199.146L256.6 200.591L255.608 198.784L253.624 197.518L252.992 197.608M263.549 201.584L264.902 201.404V200.952L267.517 199.506L268.872 200.772L271.488 200.501M244.961 205.108L245.412 202.94L244.961 202.579L245.503 202.127L244.33 200.952L244.781 200.591L246.134 201.765L247.579 200.139L250.826 199.869L250.916 198.693L252.992 197.608M269.143 141.588L272.66 140.775L274.376 137.612L278.978 133.365L280.511 133.275L283.127 130.926L283.938 128.576L297.203 117.462M271.488 200.501L275.999 202.037L275.909 205.108L277.533 204.928L280.15 203.392L282.585 203.753V205.108H286.015L287.007 203.933L292.51 202.67L294.134 201.314L295.85 203.392L299.818 204.476L300.902 205.831M305.414 352.481L300.902 352.299L302.796 346.064L296.932 345.974L299.096 343.806L295.669 336.939L297.383 334.229L290.887 333.507L286.916 334.952L285.203 334.32M285.203 334.32L282.766 332.692L280.782 334.41L276.721 332.331L272.841 333.687L271.398 336.306L266.615 340.192L263.278 338.024L260.029 337.391L255.247 337.753M301.443 191.556L301.624 192.459L305.594 196.795L302.887 198.241L304.149 199.869H301.443V205.651L300.902 205.831M301.443 191.556L305.232 191.374L305.051 190.471M301.443 191.556L300.269 191.556L300.09 192.549L297.834 193.091L296.391 191.193L292.42 191.374L291.608 187.219L295.308 182.97L294.857 182.248L299.277 181.255L301.534 182.88L301.083 184.056L303.428 184.959L305.051 190.471M300.902 205.831L301.083 206.916L308.3 209.627L309.382 215.68L311.819 214.596L313.353 214.324L314.255 215.409M297.022 274.141L301.534 271.43L301.443 266.46L303.879 264.022L304.149 260.768L299.277 256.792L301.714 252.546L303.698 252.275L302.977 248.931L296.661 250.287L296.481 246.763L294.224 245.045L294.495 242.064L289.985 240.076L291.699 237.457L291.879 233.391L296.932 234.474L298.555 226.614L303.157 223.45L312.902 223.36M312.902 223.36L313.443 222.637L315.247 223.993L315.698 221.914L310.104 217.217L314.255 215.409M312.902 223.36L315.066 225.438L313.714 227.698L315.788 229.687L315.337 232.488L323.278 230.227V234.023L320.931 236.915L323.909 239.173L328.24 238.18L329.323 246.493L336.45 247.124L336.089 249.384L336.991 249.474M305.051 190.471L305.684 187.399L305.594 184.056L313.623 180.983L313.353 178.453L315.247 176.917L314.255 172.942L315.97 165.803L318.676 164.719L313.804 162.28L314.345 156.316M336.991 249.474L339.157 253.991L338.436 258.69L341.683 259.413L339.699 262.757L335.909 264.022L340.15 265.015L337.714 267.456L338.526 270.347M217.804 167.52L217.533 167.611L218.074 166.888M217.804 167.52L218.074 166.888M164.751 195.44L157.443 195.712L159.699 192.006L155.819 194.176L154.466 191.916L149.323 192.459L151.127 197.971H147.338L148.782 199.869L147.699 203.753L153.563 203.483V199.596L156.18 204.025L158.345 202.85L156.541 198.423L160.872 197.971L160.06 202.217L164.751 195.44ZM212.029 326.457L208.51 327.362V324.379L210.406 321.76L207.338 321.127L205.533 322.301L205.714 319.682L202.826 318.867L203.187 321.76L198.857 324.379L199.308 326.639L201.563 327.723L200.12 328.898L205.533 329.621L205.894 331.519L207.879 327.903L212.3 329.44L212.029 326.457ZM226.917 341.457L226.195 337.029L224.119 336.306L216.27 339.109L219.247 340.372L222.676 343.173L226.917 341.457ZM213.473 251.28L213.022 253.178L211.398 252.185L211.127 253.178L212.029 253.541L211.669 255.529L213.563 256.522L212.571 257.154L215.278 257.877L215.729 255.437L217.713 256.251L220.331 254.806L221.323 255.166L221.594 254.534L219.517 252.185L217.082 250.557L215.729 251.1L215.188 253.268L213.473 251.28ZM151.759 257.877L147.699 258.87L147.609 261.763L152.21 261.581L151.759 257.877ZM344.21 185.501L344.03 187.309L345.383 188.212L352.239 186.224L349.804 185.681L352.42 179.086L351.337 179.538L349.443 176.827L348.181 178.544L343.759 178.724L343.398 181.345L341.503 182.79L339.969 185.954L340.601 188.032L344.21 185.501ZM426.134 208.994L429.474 209.355L430.285 204.025H428.389L427.397 202.307L426.134 203.663L425.774 202.579L423.156 202.67V204.025L421.713 204.205L421.623 206.283L418.646 208.182L417.562 210.35L418.015 211.613H419.368V210.891L424.691 211.343L426.134 208.994ZM280.06 241.884L277.713 245.498L276.089 242.697L274.736 243.239L276.811 248.571L282.044 249.654L282.766 248.479L284.481 249.112L282.946 246.853L285.383 246.131L280.06 241.884ZM243.608 182.97L244.601 184.146L245.142 183.875L245.322 184.326H245.773L247.128 182.52L248.03 183.153L248.661 182.7L248.481 182.068L245.953 181.797L246.497 180.983L245.683 181.164L245.593 181.887L243.608 182.97ZM248.842 204.386L250.916 201.947L254.255 202.85L254.165 204.838L254.526 205.561L250.195 204.928L249.834 205.381L248.842 204.386ZM260.841 221.734L260.931 220.018L260.029 218.843L260.21 217.578L263.188 216.945L263.819 215.047L267.157 214.777L270.225 216.945V219.113L272.931 221.192L272.029 224.535L275.819 227.789L274.737 229.144L270.496 224.716L268.059 225.62L267.337 226.253L265.172 223.722L262.917 221.464L261.563 222.277L260.841 221.734ZM185.864 201.675V203.663L183.609 204.928L182.887 204.838L182.797 201.675H185.864ZM265.262 158.213L261.382 156.497L260.841 157.491L259.849 158.304L258.406 157.491L258.135 157.762L259.127 159.93L262.014 162.37L261.563 163.002L261.924 163.273L264 162.189L263.729 159.93L263.008 159.207L263.278 158.665L264.992 159.117L265.262 158.213ZM270.135 172.309L268.059 171.135L267.88 172.038H267.337L267.247 171.406L266.616 171.496L266.886 172.4L266.345 172.851L266.616 173.032L268.692 174.388L270.135 172.309Z" stroke="white" stroke-linecap="round" stroke-linejoin="round"/>
<path d="M201.202 205.289V203.663L202.646 205.199L203.818 203.663L204.361 204.566L205.083 204.025L204.361 202.037L202.375 199.416L200.661 193.814L200.751 187.127L198.497 190.018L197.864 189.568L197.232 190.29L196.33 189.838L197.232 189.387L198.948 187.037L198.677 185.772L198.857 185.591L200.932 186.857L202.285 184.508L202.465 183.603L203.096 180.351L201.473 180.17L200.03 181.615L199.489 180.441V181.525L198.677 180.712L198.497 179.357L198.134 178.725L198.948 178.273L197.503 178.182L198.224 176.556L197.954 175.923L199.85 174.297L200.391 174.478L201.563 174.116L201.653 175.381L201.383 175.923L201.744 176.466L203.187 176.195L203.73 174.388L204.451 173.664L203.818 173.032H201.744L201.112 171.677L201.383 170.321L200.301 169.689L201.022 167.43L200.481 166.978L201.473 165.623L199.399 164.268L198.767 165.081L197.593 163.725L198.497 163.002L198.857 163.545L199.579 163.002L198.406 161.286L199.038 160.743L199.579 161.195L200.03 160.834L199.759 160.473L200.21 160.111L203.459 161.376L204.451 160.563L206.075 161.195L203.91 163.274L204.361 165.261L203.187 165.442L203.638 166.797L202.465 166.888L202.646 168.876L203.459 168.966L204.361 172.4L205.804 172.942L207.518 171.858H209.775L212.931 169.599L215.188 167.972L215.91 167.882L214.557 162.641L215.819 162.189H216.451L216.09 160.653L218.886 159.93L219.427 160.382L219.518 161.286L218.345 161.195V162.37L218.886 162.731L218.706 163.545L218.435 163.635L217.984 163.906L218.074 166.888L217.804 167.52L219.97 167.34L226.015 169.689H228.45L229.352 169.779L230.707 169.96L237.383 175.923L242.797 180.893L243.248 182.34L243.518 188.665V193.994L247.399 193.091L247.669 194.717L245.593 195.17L246.044 197.338L249.653 197.068L250.285 196.163L252.993 197.608L250.916 198.694L250.826 199.869L247.579 200.139L246.134 201.765L244.781 200.591L244.33 200.952L245.503 202.127L244.962 202.58L245.413 202.94L244.962 205.108L242.436 203.12L243.067 205.471L243.248 208.362L242.526 209.085L240.179 212.066L236.121 216.132L229.623 220.831L227.458 221.554L221.233 220.831L222.045 222.909L220.602 223.542L220.06 227.156L219.698 229.595L220.241 229.867L221.323 231.132L221.774 233.029L220.421 233.751L219.79 233.301L218.976 232.758L219.427 229.957L218.435 229.415L218.074 230.5L216.992 230.95L217.894 231.763L215.639 232.306L216.27 230.68L215.188 229.415L214.375 229.234L213.653 228.239L211.579 227.879L210.496 228.602L210.226 226.976L213.563 225.981L215.098 223.993L216.721 224.626L217.533 223.18L217.082 221.915L216 221.192V220.379L217.353 220.199L216.721 219.023L213.473 217.398L206.796 207.277L204.993 207.187L205.083 210.801L204.451 211.976L202.375 211.796L201.293 213.061L199.128 211.073L198.406 211.705L197.322 210.44L197.503 209.085L198.948 207.549L198.497 207.187L198.857 205.108L201.202 205.289Z" fill="#EAE4DA"/>
<path d="M248.842 204.386L250.916 201.947L254.255 202.85L254.165 204.838L254.526 205.561L250.195 204.928L249.834 205.381L248.842 204.386Z" fill="#EAE4DA"/>
<path d="M243.608 182.971L244.601 184.146L245.142 183.875L245.322 184.326H245.773L247.128 182.52L248.03 183.153L248.661 182.7L248.481 182.068L245.954 181.797L246.497 180.983L245.683 181.164L245.593 181.887L243.608 182.971Z" fill="#EAE4DA"/>
<path d="M187.94 214.597L187.036 215.77L187.397 216.585L185.774 215.77L184.601 216.855L184.24 216.585L185.864 214.324L186.766 213.602L186.856 213.241L187.397 213.964L187.94 214.597Z" fill="#EAE4DA"/>
<path d="M189.924 216.765L190.105 214.687L191.097 213.964L193.173 214.597L194.707 213.784L196.059 214.867L195.158 215.952L195.879 217.125L191.638 219.023L190.015 219.836L189.022 218.03L189.924 216.765Z" fill="#EAE4DA"/>
<path d="M200.932 183.693L201.293 182.88L201.924 183.243L201.834 183.513L201.383 184.598H201.112L200.932 183.693Z" fill="#EAE4DA"/>
<path d="M191.277 158.214L191.548 155.141H190.466L191.187 154.328L184.872 149.901L182.435 151.346L181.352 149.991L179.368 150.443L181.713 154.328L180.451 155.141L181.172 158.033L180.631 159.388L184.24 159.659L187.217 161.828L186.495 158.033L187.67 156.226L190.015 156.949L190.285 158.394L191.277 158.214Z" fill="#EAE4DA"/>
<path d="M200.03 158.756L202.285 156.858L203.006 155.684L204.451 155.774L205.173 154.147L206.165 154.418V154.961L205.804 155.593L208.239 156.045L208.51 156.587H209.504L209.594 157.31L208.69 157.22L208.42 157.852L207.788 157.943L204.812 159.93L204.541 158.756L200.12 159.75L199.759 159.207L200.03 158.756Z" fill="#EAE4DA"/>
<path d="M238.466 152.973L238.376 152.882L238.826 152.34L238.646 151.979L239.277 151.617L239.368 152.16L239.187 152.521L239.007 152.431L238.826 152.612L239.007 152.702L238.466 152.973Z" fill="#EAE4DA"/>
<path d="M201.202 205.289V203.663L202.646 205.199L203.818 203.663L204.361 204.566L205.083 204.025L204.361 202.037L202.375 199.416L200.661 193.814L200.751 187.127L198.497 190.018L197.864 189.568L197.232 190.29L196.33 189.838L197.232 189.387L198.948 187.037L198.677 185.772L198.857 185.591L200.932 186.857L202.285 184.508L202.465 183.603L203.096 180.351L201.473 180.17L200.03 181.615L199.489 180.441V181.525L198.677 180.712L198.497 179.357L198.134 178.725L198.948 178.273L197.503 178.182L198.224 176.556L197.954 175.923L199.85 174.297L200.391 174.478L201.563 174.116L201.653 175.381L201.383 175.923L201.744 176.466L203.187 176.195L203.73 174.388L204.451 173.664L203.818 173.032H201.744L201.112 171.677L201.383 170.321L200.301 169.689L201.022 167.43L200.481 166.978L201.473 165.623L199.399 164.268L198.767 165.081L197.593 163.725L198.497 163.002L198.857 163.545L199.579 163.002L198.406 161.286L199.038 160.743L199.579 161.195L200.03 160.834L199.759 160.473L200.21 160.111L203.459 161.376L204.451 160.563L206.075 161.195L203.91 163.274L204.361 165.261L203.187 165.442L203.638 166.797L202.465 166.888L202.646 168.876L203.459 168.966L204.361 172.4L205.804 172.942L207.518 171.858H209.775L212.931 169.599L215.188 167.972L215.91 167.882L214.557 162.641L215.819 162.189H216.451L216.09 160.653L218.886 159.93L219.427 160.382L219.518 161.286L218.345 161.195V162.37L218.886 162.731L218.706 163.545L218.435 163.635L217.984 163.906L218.074 166.888L217.804 167.52L219.97 167.34L226.015 169.689H228.45L229.352 169.779L230.707 169.96L237.383 175.923L242.797 180.893L243.248 182.34L243.518 188.665V193.994L247.399 193.091L247.669 194.717L245.593 195.17L246.044 197.338L249.653 197.068L250.285 196.163L252.993 197.608L250.916 198.694L250.826 199.869L247.579 200.139L246.134 201.765L244.781 200.591L244.33 200.952L245.503 202.127L244.962 202.58L245.413 202.94L244.962 205.108L242.436 203.12L243.067 205.471L243.248 208.362L242.526 209.085L240.179 212.066L236.121 216.132L229.623 220.831L227.458 221.554L221.233 220.831L222.045 222.909L220.602 223.542L220.06 227.156L219.698 229.595L220.241 229.867L221.323 231.132L221.774 233.029L220.421 233.751L219.79 233.301L218.976 232.758L219.427 229.957L218.435 229.415L218.074 230.5L216.992 230.95L217.894 231.763L215.639 232.306L216.27 230.68L215.188 229.415L214.375 229.234L213.653 228.239L211.579 227.879L210.496 228.602L210.226 226.976L213.563 225.981L215.098 223.993L216.721 224.626L217.533 223.18L217.082 221.915L216 221.192V220.379L217.353 220.199L216.721 219.023L213.473 217.398L206.796 207.277L204.993 207.187L205.083 210.801L204.451 211.976L202.375 211.796L201.293 213.061L199.128 211.073L198.406 211.705L197.322 210.44L197.503 209.085L198.948 207.549L198.497 207.187L198.857 205.108L201.202 205.289Z" stroke="white" stroke-width="2" stroke-linejoin="round"/>
<path d="M248.842 204.386L250.916 201.947L254.255 202.85L254.165 204.838L254.526 205.561L250.195 204.928L249.834 205.381L248.842 204.386Z" stroke="white" stroke-width="2" stroke-linejoin="round"/>
<path d="M243.608 182.971L244.601 184.146L245.142 183.875L245.322 184.326H245.773L247.128 182.52L248.03 183.153L248.661 182.7L248.481 182.068L245.954 181.797L246.497 180.983L245.683 181.164L245.593 181.887L243.608 182.971Z" stroke="white" stroke-width="2" stroke-linejoin="round"/>
<path d="M187.94 214.597L187.036 215.77L187.397 216.585L185.774 215.77L184.601 216.855L184.24 216.585L185.864 214.324L186.766 213.602L186.856 213.241L187.397 213.964L187.94 214.597Z" stroke="white" stroke-width="2" stroke-linejoin="round"/>
<path d="M189.924 216.765L190.105 214.687L191.097 213.964L193.173 214.597L194.707 213.784L196.059 214.867L195.158 215.952L195.879 217.125L191.638 219.023L190.015 219.836L189.022 218.03L189.924 216.765Z" stroke="white" stroke-width="2" stroke-linejoin="round"/>
<path d="M200.932 183.693L201.293 182.88L201.924 183.243L201.834 183.513L201.383 184.598H201.112L200.932 183.693Z" stroke="white" stroke-width="2" stroke-linejoin="round"/>
<path d="M191.277 158.214L191.548 155.141H190.466L191.187 154.328L184.872 149.901L182.435 151.346L181.352 149.991L179.368 150.443L181.713 154.328L180.451 155.141L181.172 158.033L180.631 159.388L184.24 159.659L187.217 161.828L186.495 158.033L187.67 156.226L190.015 156.949L190.285 158.394L191.277 158.214Z" stroke="white" stroke-width="2" stroke-linejoin="round"/>
<path d="M200.03 158.756L202.285 156.858L203.006 155.684L204.451 155.774L205.173 154.147L206.165 154.418V154.961L205.804 155.593L208.239 156.045L208.51 156.587H209.504L209.594 157.31L208.69 157.22L208.42 157.852L207.788 157.943L204.812 159.93L204.541 158.756L200.12 159.75L199.759 159.207L200.03 158.756Z" stroke="white" stroke-width="2" stroke-linejoin="round"/>
<path d="M238.466 152.973L238.376 152.882L238.826 152.34L238.646 151.979L239.277 151.617L239.368 152.16L239.187 152.521L239.007 152.431L238.826 152.612L239.007 152.702L238.466 152.973Z" stroke="white" stroke-width="2" stroke-linejoin="round"/>
</svg>
