<svg width="46" height="40" viewBox="0 0 46 40" fill="none" xmlns="http://www.w3.org/2000/svg">
<g clip-path="url(#clip0_0_661)">
<path d="M45.0844 38.6429C44.5215 38.6655 43.957 38.6486 43.388 38.6486V13.0898C44.0461 12.9896 44.2919 12.794 44.2975 12.3867C44.3031 11.9803 44.082 11.7999 43.3806 11.6521V9.33825C43.4615 9.32963 43.5192 9.32317 43.5769 9.31754C44.0458 9.27169 44.3088 9.02208 44.2998 8.63145C44.2908 8.24392 44.0017 7.97468 43.5448 7.97384C40.7473 7.9687 37.9496 7.96834 35.1521 7.97492C34.7052 7.976 34.4085 8.26727 34.4103 8.65048C34.4121 9.01717 34.6794 9.27073 35.1134 9.31659C35.185 9.32413 35.2567 9.32987 35.3425 9.33766V11.6582C34.6526 11.7891 34.404 11.9882 34.4115 12.3874C34.4189 12.7809 34.6617 12.9678 35.327 13.0988V15.9527C33.8498 14.4722 32.4179 13.0699 31.027 11.6282C30.3905 10.9683 29.6722 10.6384 28.7563 10.6773C28.0396 10.7078 27.3204 10.6848 26.6023 10.6818C26.4742 10.6814 26.3462 10.6624 26.2289 10.6529V5.34642C26.9925 5.24167 27.2407 5.07706 27.2351 4.65757C27.226 3.98608 26.6935 3.97782 26.2359 3.92335V1.36297C26.4116 1.35207 26.547 1.35387 26.6789 1.3334C27.0214 1.28 27.2116 1.06559 27.2341 0.728228C27.2566 0.391345 27.0976 0.146644 26.7662 0.0532652C26.611 0.00956864 26.4418 0.00226592 26.2789 0.00214621C22.2397 -0.00048756 18.2003 -0.000248126 14.1611 0.00154762C14.0124 0.00154762 13.8594 0.00274479 13.7159 0.0363852C13.3643 0.118631 13.1747 0.350761 13.1937 0.715059C13.2125 1.07756 13.4198 1.28778 13.7801 1.33795C13.9229 1.35782 14.0674 1.36476 14.2244 1.37877V3.90312C13.3947 4.06162 13.1878 4.20049 13.1927 4.62261C13.2006 5.30751 13.7483 5.28357 14.25 5.34774C14.25 5.53294 14.25 5.69432 14.25 5.85581C14.2502 6.6487 14.2444 7.4417 14.253 8.23447C14.2581 8.70687 14.5017 8.98461 14.8922 8.99838C15.2961 9.01262 15.5814 8.7192 15.5922 8.23782C15.6063 7.60978 15.5963 6.98127 15.5966 6.35288C15.5967 6.01576 15.5966 5.67863 15.5966 5.33684H24.8124V23.5311H15.5969C15.5969 23.3425 15.5969 23.1812 15.5969 23.0201C15.5969 19.1453 15.5979 15.2706 15.5942 11.3959C15.5939 11.1891 15.5878 10.9711 15.524 10.7781C15.4231 10.4726 15.1716 10.3429 14.853 10.3712C14.5319 10.3997 14.3257 10.5791 14.2716 10.8973C14.2417 11.0725 14.251 11.2552 14.251 11.4344C14.25 15.2942 14.2505 19.1539 14.2493 23.0136C14.2493 23.1853 14.2349 23.357 14.227 23.5344H11.697L10.2913 23.559C9.86358 23.559 9.46265 23.5555 9.06184 23.5598C8.09489 23.5701 7.64356 24.0257 7.64092 24.9997C7.63769 26.2265 7.64008 27.4532 7.64008 28.6799V29.1714C7.1344 29.1714 6.70091 29.16 6.26813 29.1735C4.91713 29.2154 3.77036 29.7176 2.85812 30.7248C2.52519 31.0923 2.51022 31.4757 2.80006 31.7558C3.09276 32.0388 3.49489 32.0201 3.82148 31.655C4.8599 30.4944 6.1975 30.4237 7.61698 30.5547V32.3134C7.24035 32.3134 6.88563 32.3126 6.53079 32.3136C5.41072 32.3169 4.80531 32.9076 4.79873 34.0219C4.79142 35.2636 4.79693 36.5053 4.79693 37.747C4.79693 38.0282 4.79693 38.3095 4.79693 38.6194H3.00118C3.00118 38.2658 3.0013 37.9267 3.00118 37.5877C3.00046 36.3609 3.00752 35.1341 2.99483 33.9075C2.99017 33.4555 2.74331 33.2022 2.35878 33.1876C1.95294 33.1723 1.69423 33.4312 1.65903 33.8945C1.64994 34.0137 1.65473 34.1337 1.65473 34.2535C1.65449 35.5401 1.65461 36.8266 1.65449 38.1132V38.6048C1.06476 38.7362 0.413262 38.447 0 39.0303V39.5689C0.2453 39.9286 0.598344 40.0002 1.01113 40C15.6588 39.9944 30.3065 39.9944 44.9544 40.0001C45.3675 40.0002 45.7196 39.9271 45.9656 39.5689V39.1199C45.7818 38.7573 45.4876 38.6267 45.0844 38.6429ZM7.61638 38.6271H6.18277C6.16841 38.4945 6.1453 38.3797 6.14506 38.2647C6.14255 36.8899 6.15272 35.5149 6.13704 34.1403C6.13297 33.777 6.23928 33.6178 6.62082 33.6492C6.94333 33.6759 7.26968 33.6548 7.61626 33.6548V38.6271H7.61638ZM26.22 12.0534C27.2578 12.0534 28.2705 12.034 29.2813 12.0695C29.4876 12.0767 29.7224 12.2536 29.8837 12.4132C31.6476 14.159 33.4018 15.9148 35.1493 17.677C35.2615 17.7901 35.3546 17.9769 35.3594 18.1324C35.3816 18.849 35.3691 19.5669 35.3691 20.3922C35.2009 20.2385 35.0866 20.1417 34.981 20.0363C33.0561 18.1129 31.1272 16.1935 29.2133 14.2592C28.9049 13.9475 28.5802 13.8014 28.1427 13.8189C27.5174 13.8438 26.8904 13.8252 26.2196 13.8252V12.0534H26.22ZM15.6337 3.92826V1.37542H24.8218V3.92826H15.6337ZM27.9804 38.6277C27.8545 38.6341 27.713 38.6477 27.5716 38.6477C25.0164 38.649 22.461 38.6407 19.9058 38.6571C19.5245 38.6595 19.4281 38.5394 19.4347 38.1749C19.4554 37.0127 19.4424 35.85 19.4424 34.6482H27.9804V38.6277V38.6277ZM38.4389 38.6277H29.3881C29.3802 38.4662 29.366 38.3095 29.3658 38.1527C29.364 36.8211 29.3668 35.4895 29.3638 34.1579C29.3623 33.5196 29.137 33.2894 28.5038 33.2889C25.317 33.2865 22.1301 33.2863 18.9433 33.289C18.3373 33.2895 18.1018 33.5213 18.0984 34.1306C18.0912 35.4622 18.0966 36.7938 18.0947 38.1255C18.0945 38.2854 18.0811 38.4453 18.073 38.6207H9.01072V24.9054H9.59207C16.0407 24.9054 22.4893 24.9054 28.9379 24.905C29.1024 24.905 29.2685 24.9139 29.4312 24.8957C29.8374 24.8503 30.0792 24.5944 30.0799 24.2279C30.0806 23.8416 29.8237 23.5735 29.3883 23.566C28.5059 23.5507 27.623 23.5596 26.7402 23.5587C26.5784 23.5584 26.4166 23.5587 26.2252 23.5587V15.1765C26.8546 15.1765 27.4786 15.1659 28.1015 15.1862C28.2133 15.1898 28.3372 15.3041 28.4281 15.3948C30.6739 17.6346 32.9185 19.876 35.1528 22.1275C35.2724 22.248 35.3391 22.4556 35.3604 22.6312C35.3944 22.9105 35.3695 23.1969 35.3695 23.5588C35.0266 23.5588 34.7057 23.5588 34.3847 23.5588C33.6815 23.5589 32.9783 23.5547 32.275 23.5606C31.748 23.5649 31.437 23.8167 31.4356 24.2234C31.4342 24.6301 31.7502 24.9013 32.2682 24.9029C34.1684 24.9086 36.0685 24.9054 37.9688 24.9055C38.1159 24.9055 38.263 24.9055 38.4389 24.9055V38.6277V38.6277ZM41.9782 38.6466C41.3358 38.6466 40.6977 38.6554 40.0603 38.6357C39.9782 38.6332 39.8633 38.4948 39.8305 38.397C39.7899 38.2757 39.8185 38.1311 39.8185 37.9965C39.8184 33.75 39.8185 29.5037 39.8179 25.2572C39.8179 25.0779 39.8214 24.8977 39.8052 24.7196C39.7426 24.0264 39.3065 23.5922 38.6124 23.5681C38.0025 23.547 37.3914 23.5637 36.7393 23.5637V13.0798H41.9782V38.6466ZM41.9794 11.6791H36.7363V9.35047H41.9794V11.6791Z" fill="white"/>
<path d="M23.6992 31.1971C19.9893 31.1971 16.2796 31.1975 12.5698 31.1969C11.6932 31.1968 11.5056 31.0119 11.505 30.1528C11.5044 29.2553 11.5015 28.3577 11.5061 27.4602C11.5093 26.8049 11.7418 26.5748 12.407 26.5746C19.9613 26.5732 27.5156 26.5731 35.0699 26.5749C35.7169 26.575 35.9405 26.794 35.9453 27.4322C35.9524 28.3746 35.95 29.317 35.9464 30.2594C35.9436 30.9831 35.7333 31.1956 35.0084 31.196C31.2386 31.1983 27.469 31.1971 23.6992 31.1971ZM12.8867 27.9471C12.8867 28.6041 12.8867 29.209 12.8867 29.8182C13.7357 29.8182 14.5493 29.8182 15.3822 29.8182C15.3822 29.1816 15.3822 28.5776 15.3822 27.9471C14.5384 27.9471 13.7244 27.9471 12.8867 27.9471ZM20.5976 29.8235C21.4194 29.8235 22.2151 29.8235 23.0306 29.8235C23.0306 29.186 23.0306 28.5725 23.0306 27.9534C22.201 27.9534 21.4052 27.9534 20.5976 27.9534C20.5976 28.5901 20.5976 29.1934 20.5976 29.8235ZM32.0678 29.823C32.9211 29.823 33.7335 29.823 34.5587 29.823C34.5587 29.1815 34.5587 28.5682 34.5587 27.9547C33.7046 27.9547 32.8927 27.9547 32.0678 27.9547C32.0678 28.5837 32.0678 29.1783 32.0678 29.823ZM30.6747 29.8263C30.6747 29.1867 30.6747 28.5717 30.6747 27.945C29.8577 27.945 29.0737 27.945 28.265 27.945C28.265 28.5854 28.265 29.2009 28.265 29.8263C29.0871 29.8263 29.8722 29.8263 30.6747 29.8263ZM16.7863 27.9398C16.7863 28.5862 16.7863 29.1919 16.7863 29.8118C17.6088 29.8118 18.4032 29.8118 19.1914 29.8118C19.1914 29.1676 19.1914 28.5629 19.1914 27.9398C18.3855 27.9398 17.6132 27.9398 16.7863 27.9398ZM24.4343 27.9473C24.4343 28.5895 24.4343 29.1938 24.4343 29.8174C25.2512 29.8174 26.0444 29.8174 26.8531 29.8174C26.8531 29.1806 26.8531 28.5773 26.8531 27.9473C26.0428 27.9473 25.2608 27.9473 24.4343 27.9473Z" fill="white"/>
</g>
<defs>
<clipPath id="clip0_0_661">
<rect width="45.9655" height="40" fill="white"/>
</clipPath>
</defs>
</svg>
