<svg width="36" height="40" viewBox="0 0 36 40" fill="none" xmlns="http://www.w3.org/2000/svg">
<g clip-path="url(#clip0_0_605)">
<path d="M12.3602 6.0429C11.7788 6.00424 11.2583 6.02047 10.7582 5.92707C9.2594 5.64673 8.2338 4.24898 8.37063 2.73396C8.50539 1.2425 9.75438 0.0235841 11.2525 0.0164243C15.5431 -0.00410042 19.8341 -0.00521417 24.1247 0.0164243C25.7404 0.0245387 27.0274 1.39938 27.0225 3.01797C27.0176 4.61667 25.739 5.94346 24.1414 6.00026C23.7841 6.01299 23.4259 6.00217 23.0248 6.00217C23.0248 6.19007 23.0248 6.33836 23.0248 6.48681C23.0248 8.56967 23.017 10.6527 23.0347 12.7354C23.0369 12.9941 23.1204 13.2843 23.2558 13.505C27.0233 19.6413 30.8115 25.7648 34.5758 31.903C36.4451 34.9511 34.7368 39.0306 31.263 39.8615C30.889 39.9509 30.4947 39.9932 30.1098 39.9937C21.8476 40.001 13.5855 40.004 5.32326 39.9959C3.25997 39.9938 1.73223 39.0125 0.74386 37.2469C-0.245146 35.4803 -0.274422 33.6657 0.804956 31.9088C4.57435 25.7739 8.35806 19.6476 12.1244 13.5106C12.2662 13.2795 12.3475 12.9731 12.3499 12.7009C12.3683 10.632 12.3599 8.56299 12.3599 6.49397C12.3602 6.34489 12.3602 6.1958 12.3602 6.0429ZM13.7031 12.6708C13.8975 12.6708 14.0609 12.6708 14.2245 12.6708C16.7587 12.6716 17.0125 12.7311 17.0225 13.3268C17.0329 13.9384 16.7602 14.004 14.2033 14.004C14.0367 14.004 13.8612 13.971 13.7059 14.013C13.5422 14.0573 13.334 14.1333 13.2539 14.2627C9.46003 20.3972 5.67234 26.5355 1.89945 32.6831C1.10805 33.9726 1.18474 35.3129 1.90725 36.6014C2.63802 37.9043 3.75161 38.6618 5.28428 38.6631C13.5586 38.6694 21.8331 38.6678 30.1074 38.66C30.4494 38.6597 30.8007 38.6055 31.1318 38.5169C33.427 37.9032 34.877 34.8851 33.4324 32.5618C29.5948 26.3893 25.8004 20.1897 21.9804 14.0062C21.7741 13.6721 21.6837 13.3418 21.6859 12.9513C21.6985 10.7855 21.692 8.61979 21.692 6.45403C21.692 6.30877 21.692 6.16366 21.692 6.02938C18.9918 6.02938 16.3594 6.02938 13.7225 6.02938C13.7225 6.4744 13.7225 6.89539 13.7225 7.33898C14.5966 7.33898 15.442 7.33182 16.2871 7.34169C16.7994 7.34757 17.1337 7.74789 16.9967 8.17986C16.8857 8.53021 16.6248 8.67468 16.2637 8.67293C15.4206 8.66864 14.5775 8.67166 13.7184 8.67166C13.7184 9.13259 13.7184 9.55343 13.7184 10.0051C14.129 10.0051 14.5153 10.0013 14.9015 10.0061C15.391 10.0123 15.6898 10.2683 15.6894 10.6719C15.6889 11.0746 15.3891 11.3308 14.9 11.337C14.5039 11.3419 14.1075 11.338 13.7032 11.338C13.7031 11.8003 13.7031 12.2016 13.7031 12.6708ZM17.69 1.33971C15.5949 1.33971 13.4997 1.33478 11.4048 1.34194C10.4264 1.34528 9.69455 2.07017 9.69551 3.00794C9.69646 3.94381 10.4296 4.6687 11.4096 4.66981C15.5998 4.67506 19.7899 4.67602 23.9801 4.66329C24.26 4.66249 24.5627 4.5831 24.8143 4.45836C25.4873 4.12471 25.8205 3.34748 25.6447 2.63293C25.454 1.85808 24.8268 1.34576 24.0168 1.34274C21.9079 1.33446 19.7988 1.33987 17.69 1.33971Z" fill="white"/>
<path d="M9.68113 25.1552C9.61701 25.2465 9.55814 25.3216 9.5085 25.4023C7.76835 28.2247 6.02582 31.0456 4.29156 33.8715C3.7506 34.753 4.14088 35.76 5.09314 35.966C5.26688 36.0035 5.45176 35.9978 5.63155 35.998C8.65855 35.9997 11.6856 35.9991 14.7127 35.9997C14.8515 35.9997 14.994 35.9865 15.1281 36.0131C15.4674 36.0802 15.6642 36.2958 15.688 36.6433C15.7105 36.9693 15.4662 37.2587 15.1312 37.3198C15.05 37.3346 14.9652 37.3318 14.882 37.3318C11.7161 37.3321 8.5502 37.3411 5.3843 37.3275C3.82251 37.3208 2.61314 36.0697 2.71704 34.5433C2.74695 34.1041 2.89254 33.63 3.12038 33.2539C4.98224 30.1809 6.87497 27.1265 8.7615 24.0685C9.03023 23.6329 9.28098 23.5815 9.78487 23.7385C10.4838 23.9563 11.1837 24.2093 11.9027 24.3161C13.2368 24.5143 14.4262 24.0666 15.475 23.2564C16.3644 22.5694 17.2155 21.8329 18.1037 21.1443C19.8164 19.8165 21.7322 19.3564 23.8642 19.8336C24.2737 19.9252 24.5477 20.1188 24.7631 20.4862C27.2341 24.6976 29.7133 28.9042 32.2028 33.1048C32.7652 34.0537 32.8854 35.0118 32.3312 35.9817C31.7772 36.9515 30.8908 37.3405 29.7876 37.3364C26.6772 37.3244 23.5668 37.3324 20.4566 37.3318C20.3317 37.3318 20.2027 37.3445 20.0829 37.3182C19.7282 37.2404 19.5196 37.0193 19.5281 36.646C19.536 36.2926 19.7438 36.0839 20.08 36.0134C20.2137 35.9854 20.3565 35.9996 20.4953 35.9996C23.5918 35.9989 26.6882 35.9938 29.7847 36.0037C30.3688 36.0056 30.8612 35.8594 31.1686 35.3353C31.487 34.7924 31.3506 34.2852 31.045 33.7695C28.6191 29.6765 26.2024 25.5779 23.791 21.4763C23.6508 21.238 23.4868 21.1245 23.2141 21.0759C21.6884 20.8027 20.3156 21.158 19.0939 22.0809C18.308 22.6746 17.561 23.3193 16.7938 23.9377C15.945 24.6219 15.0381 25.2058 13.9727 25.4952C12.6551 25.853 11.3605 25.7111 10.0829 25.2874C9.95304 25.2443 9.82289 25.2018 9.68113 25.1552Z" fill="white"/>
</g>
<defs>
<clipPath id="clip0_0_605">
<rect width="35.3457" height="40" fill="white"/>
</clipPath>
</defs>
</svg>
