<svg width="46" height="54" viewBox="0 0 46 54" fill="none" xmlns="http://www.w3.org/2000/svg">
<g clip-path="url(#clip0_6_22141)">
<path d="M9.30849 12.0604C8.92542 11.3939 8.54415 10.7306 8.16319 10.0671C7.82686 9.4813 7.48647 8.89776 7.15555 8.30895C6.78345 7.64666 6.87888 7.30116 7.53847 6.91884C8.46375 6.38264 9.39084 5.84929 10.3203 5.32044C11.0405 4.91062 11.3589 5.00049 11.7824 5.73267C12.4861 6.9492 13.1843 8.16889 13.8838 9.38557C14.8895 9.0548 15.8515 8.69007 16.8403 8.42662C17.8529 8.15687 18.8945 7.99787 19.9166 7.76042C20.0813 7.72225 20.327 7.53575 20.3353 7.40516C20.3778 6.73385 20.355 6.05848 20.355 5.29895C19.8466 5.29895 19.3851 5.30436 18.9235 5.29775C18.2446 5.28798 17.9695 5.02333 17.9626 4.33655C17.9514 3.20973 17.95 2.08246 17.9635 0.955649C17.9713 0.31169 18.2608 0.00977312 18.895 0.00751889C21.6372 -0.00239973 24.3795 -0.00255001 27.1219 0.00781945C27.7529 0.010224 28.0404 0.315297 28.0481 0.96151C28.0611 2.08833 28.0607 3.21544 28.0485 4.34241C28.041 5.02544 27.7627 5.28663 27.0812 5.29835C26.6682 5.30541 26.2551 5.30541 25.8421 5.31203C25.8081 5.31263 25.7746 5.33848 25.659 5.38687C25.659 6.05743 25.646 6.76405 25.6735 7.46888C25.6775 7.57122 25.8661 7.73713 25.9857 7.75351C28.0796 8.03874 30.1002 8.58667 32.0989 9.43983C32.7288 8.34292 33.3512 7.25653 33.9759 6.17149C34.744 4.83729 34.8099 4.81895 36.1323 5.57412C36.898 6.01144 37.6645 6.44771 38.4258 6.89254C39.1482 7.31454 39.2364 7.6432 38.8257 8.36245C38.1287 9.58289 37.4272 10.8006 36.7141 12.0429C43.2453 17.2501 46.4974 23.9862 45.9382 32.3359C45.5151 38.6554 42.7551 43.918 37.9697 48.0871C28.7553 56.115 14.3789 55.2974 6.13198 46.2459C1.5401 41.206 -0.517107 35.2454 0.110171 28.4505C0.735946 21.6717 3.92042 16.2617 9.30849 12.0604ZM22.4994 52.0281C34.4415 52.2414 43.9061 42.932 44.4227 31.5621C44.9616 19.7003 35.7469 9.45861 23.4505 9.13851C11.7561 8.83404 1.86562 18.2572 1.58083 29.9391C1.28898 41.9047 10.6063 51.7432 22.4994 52.0281ZM19.5663 3.68567C21.8958 3.68567 24.1567 3.68567 26.4262 3.68567C26.4262 2.96958 26.4262 2.28985 26.4262 1.61704C24.1167 1.61704 21.856 1.61704 19.5663 1.61704C19.5663 2.31946 19.5663 2.98506 19.5663 3.68567ZM12.476 10.1042C11.851 9.02054 11.2543 7.9863 10.654 6.94529C9.9795 7.33738 9.40091 7.67371 8.80745 8.01861C9.42586 9.09312 10.0201 10.1256 10.6238 11.1744C11.2494 10.813 11.8278 10.4787 12.476 10.1042ZM35.3516 6.94424C34.7317 8.02567 34.1422 9.05435 33.5388 10.1069C34.1896 10.4807 34.7783 10.8187 35.3925 11.1712C36.0102 10.0942 36.5997 9.06637 37.2034 8.0135C36.5718 7.64876 35.992 7.31409 35.3516 6.94424ZM21.9729 7.52238C22.6608 7.52238 23.3513 7.52238 24.0382 7.52238C24.0382 6.76916 24.0382 6.06509 24.0382 5.33111C23.337 5.33111 22.6734 5.33111 21.9729 5.33111C21.9729 6.06644 21.9729 6.77082 21.9729 7.52238Z" fill="white"/>
<path d="M40.8919 30.6051C40.862 40.468 32.8084 48.4896 22.9695 48.4562C13.1003 48.4229 5.08558 40.3756 5.11925 30.5334C5.15306 20.6366 13.2175 12.681 23.182 12.7143C32.902 12.7471 40.9217 20.8485 40.8919 30.6051ZM23.7951 14.303C23.7951 14.9532 23.799 15.5326 23.7941 16.1119C23.7888 16.7192 23.5018 17.0869 23.0318 17.1033C22.5416 17.1205 22.2242 16.7362 22.2186 16.105C22.2134 15.5114 22.2174 14.9176 22.2174 14.3024C19.7892 14.4514 17.57 15.0315 15.4659 16.1544C15.7771 16.6855 16.0644 17.1688 16.3446 17.6562C16.6809 18.2416 16.6286 18.6651 16.195 18.9335C15.7496 19.2092 15.3344 19.0384 14.9692 18.4276C14.6829 17.9485 14.3978 17.4687 14.092 16.9548C12.1532 18.242 10.5805 19.8066 9.33165 21.7517C9.86681 22.0635 10.3534 22.3419 10.8348 22.629C11.406 22.97 11.5679 23.3859 11.31 23.8229C11.051 24.2619 10.6238 24.32 10.0366 23.9893C9.53919 23.709 9.04522 23.4228 8.52073 23.1227C7.45268 25.263 6.8251 27.4246 6.75101 29.7903C7.39842 29.7903 7.96003 29.7825 8.52118 29.7924C9.18122 29.8041 9.52236 30.0936 9.50763 30.608C9.49351 31.0998 9.16935 31.3562 8.52599 31.3651C7.94921 31.3731 7.37243 31.3667 6.73808 31.3667C6.85485 33.7988 7.45809 36.0058 8.57483 38.1248C9.12471 37.8035 9.6214 37.5073 10.1239 37.2214C10.6541 36.92 11.1122 36.9885 11.36 37.3944C11.6134 37.8095 11.4666 38.2447 10.9467 38.5639C10.438 38.8762 9.92016 39.1733 9.37508 39.4954C10.6502 41.4299 12.2313 43.0005 14.1715 44.2667C14.4899 43.721 14.7861 43.2004 15.0953 42.6874C15.4089 42.1669 15.8443 42.0195 16.2624 42.2766C16.6529 42.5169 16.7362 42.9684 16.4619 43.4645C16.1732 43.9867 15.8683 44.4998 15.5464 45.0588C17.6475 46.1494 19.8389 46.737 22.2165 46.8595C22.2165 46.2223 22.2128 45.6431 22.2176 45.0641C22.2227 44.4315 22.5375 44.0495 23.0291 44.0674C23.4999 44.0845 23.7871 44.4511 23.7928 45.0587C23.7984 45.6538 23.7941 46.249 23.7941 46.8714C26.2161 46.7139 28.4394 46.142 30.5414 45.0203C30.3684 44.7189 30.2206 44.4584 30.07 44.1996C29.9095 43.924 29.7461 43.6501 29.5844 43.3752C29.3839 43.0344 29.3638 42.6986 29.6334 42.3848C29.9984 41.96 30.6108 42.0473 30.9473 42.5853C31.2799 43.1169 31.5898 43.6627 31.9191 44.2183C33.8687 42.9152 35.4292 41.3531 36.6863 39.4144C36.1248 39.0888 35.6053 38.7956 35.0939 38.4889C34.5909 38.1872 34.4418 37.7262 34.6978 37.3136C34.9442 36.9161 35.3715 36.8429 35.8826 37.1271C36.4047 37.4174 36.9194 37.7213 37.4807 38.0441C38.5588 35.9424 39.1651 33.7738 39.2647 31.381C38.6306 31.381 38.054 31.3908 37.4777 31.3785C36.8387 31.3648 36.5141 31.0974 36.5033 30.6054C36.492 30.0907 36.8301 29.8136 37.4966 29.8059C38.0713 29.7993 38.6461 29.8046 39.2739 29.8046C39.1511 27.3647 38.5513 25.1574 37.4364 23.0444C36.8793 23.3701 36.3823 23.6675 35.8787 23.9535C35.3507 24.2533 34.8904 24.1818 34.6431 23.7745C34.3889 23.3561 34.5389 22.9304 35.0628 22.6121C35.5736 22.3017 36.0894 21.9997 36.6388 21.6725C35.3614 19.7405 33.7812 18.1682 31.8409 16.9012C31.5235 17.4448 31.2264 17.9647 30.9183 18.4783C30.5961 19.0154 30.1884 19.1664 29.7607 18.921C29.3423 18.681 29.2592 18.2258 29.553 17.6989C29.8431 17.1786 30.1466 16.6659 30.4675 16.1092C28.3727 15.015 26.184 14.4454 23.7951 14.303Z" fill="white"/>
<path d="M23.7947 23.1696C23.7952 24.3335 23.8024 25.4974 23.7899 26.6612C23.7869 26.9435 23.8563 27.0808 24.1516 27.1814C25.2451 27.5535 26.0135 28.2942 26.3866 29.3934C26.5025 29.7348 26.6878 29.7958 27.0038 29.7945C29.219 29.7845 31.4342 29.788 33.6495 29.7915C33.8734 29.7918 34.1562 29.7428 34.3079 29.8559C34.5503 30.0369 34.8173 30.3129 34.8702 30.5879C34.9424 30.9628 34.6785 31.2618 34.2676 31.3361C34.0847 31.3691 33.894 31.3657 33.7067 31.3658C31.5104 31.3676 29.3138 31.3759 27.1175 31.3589C26.7137 31.3557 26.5055 31.433 26.3498 31.8653C25.7783 33.4529 24.2283 34.3391 22.5 34.1418C20.9356 33.9631 19.6418 32.6426 19.4235 31.002C19.2138 29.4269 20.1605 27.8187 21.702 27.2544C22.1493 27.0907 22.23 26.8665 22.2262 26.4444C22.207 24.2857 22.2174 22.1268 22.2174 19.9678C22.2174 19.8365 22.2133 19.7048 22.2187 19.5736C22.2416 19.0221 22.5579 18.6814 23.0301 18.6957C23.4785 18.7092 23.7859 19.0391 23.7907 19.5652C23.8019 20.7667 23.7943 21.9682 23.7947 23.1696ZM23.0283 32.5978C24.1297 32.5902 25.0314 31.6864 25.0309 30.5902C25.0306 29.4656 24.1109 28.5579 22.9831 28.5691C21.8788 28.58 20.9842 29.4781 20.9817 30.5783C20.9795 31.7015 21.8958 32.6058 23.0283 32.5978Z" fill="white"/>
</g>
<defs>
<clipPath id="clip0_6_22141">
<rect width="46" height="53.6098" fill="white"/>
</clipPath>
</defs>
</svg>
