<svg width="50" height="36" viewBox="0 0 50 36" fill="none" xmlns="http://www.w3.org/2000/svg">
<g clip-path="url(#clip0_0_588)">
<path d="M0.63063 17.8507C3.50523 19.0263 6.19834 19.8818 8.86372 20.4663C10.8248 20.8964 12.5598 21.1055 14.1675 21.1055C14.9073 21.1055 15.6387 21.0607 16.3413 20.9721C19.786 20.5386 23.3475 19.5445 27.5495 17.8439C27.9926 17.6646 28.1636 17.4086 28.1594 16.9303C28.146 15.3863 28.1483 13.8167 28.1504 12.2987C28.1513 11.722 28.1521 11.1452 28.1521 10.5685L28.152 4.31193C28.1518 3.54688 28.1159 3.49473 27.3834 3.19773C24.7049 2.11155 22.2429 1.31463 19.8566 0.761188C17.6171 0.24182 15.757 0 14.0029 0C13.2589 0 12.5239 0.0456602 11.8187 0.135739C8.29376 0.58572 4.71714 1.5868 0.562991 3.28602C0.157575 3.45183 0.000170262 3.70179 0.00143062 4.17757C0.0134741 8.83988 0.0129139 13.001 -0.000109818 16.8988C-0.0017903 17.404 0.169198 17.662 0.63063 17.8507ZM11.37 1.48348L11.5428 1.45285C12.7357 1.24152 13.9781 1.1862 15.2375 1.28759C19.4745 1.62956 23.4359 3.00406 26.4137 4.1635C26.6272 4.24682 26.8764 4.52961 26.8773 4.7695C26.8919 8.28354 26.8888 11.8562 26.886 15.3112L26.885 16.5102C26.885 16.56 26.873 16.6007 26.8604 16.6439C26.8545 16.6638 26.8471 16.6886 26.8388 16.7216L26.8119 16.8275L26.7079 16.8653C22.8691 18.2613 18.5177 19.8436 13.9622 19.8436C13.9619 19.8436 13.962 19.8436 13.9617 19.8436C13.152 19.8436 12.3419 19.7941 11.554 19.6963L11.3702 19.6735V1.48348H11.37ZM6.34286 2.53932L10.0486 1.63053V19.4657L6.34286 18.5713V2.53932ZM1.80332 4.12639C2.49358 3.88954 3.16913 3.63599 3.88446 3.36768C4.16566 3.26216 4.45036 3.15525 4.7401 3.04806L5.0241 2.94281V18.1582L1.26781 16.7855L1.26809 13.5868C1.26879 10.7467 1.26949 7.81011 1.26039 4.92193C1.25927 4.60589 1.32439 4.29082 1.80332 4.12639Z" fill="white"/>
<path d="M49.9999 19.1196C50.0029 18.2522 49.7824 17.4692 49.3263 16.726C48.0989 14.7256 46.7854 12.5785 45.4968 10.4316C44.9511 9.52214 44.1909 9.09851 43.1045 9.09851H43.0848C41.5597 9.10568 39.8826 9.10899 37.8068 9.10899C36.7702 9.10899 35.7335 9.10831 34.6969 9.10748C33.6603 9.10679 32.6236 9.10596 31.5872 9.10596H31.2193C30.4064 9.1061 30.2529 9.25867 30.2528 10.0661L30.2525 25.6217H28.152L28.1522 24.4701C28.1523 23.8029 28.1526 23.1467 28.1519 22.4905C28.151 21.6651 28.0001 21.5198 27.1423 21.5192C26.9099 21.5191 26.6774 21.5181 26.4449 21.5171C25.8909 21.5151 25.3369 21.5129 24.7832 21.5209C24.3926 21.5262 24.0927 21.5214 23.8552 21.5177C23.7388 21.5156 23.6378 21.5141 23.5486 21.5141C23.0414 21.5141 23.0204 21.5358 22.4818 22.0903C22.3209 22.256 22.1205 22.4623 21.8539 22.7217C21.5217 23.0449 21.1777 23.1828 20.704 23.1828C16.306 23.1747 11.9739 23.1737 8.69067 23.1737L0.907668 23.175C0.194025 23.1751 0.00917197 23.3542 0.00847177 24.0458C0.00623113 26.0124 0.00469069 28.1253 0.00875185 30.2507C0.0108525 31.2854 0.600421 31.858 1.66865 31.8632C1.8626 31.8642 2.05656 31.8645 2.24995 31.8645L3.3882 31.8637L3.42363 32.0274C3.99961 34.6812 6.14362 35.932 8.01315 35.9942C8.08177 35.9965 8.14941 35.9975 8.21677 35.9975C8.21691 35.9975 8.21719 35.9975 8.21733 35.9975C10.5056 35.9974 12.1155 34.6611 13.0025 32.0257L13.0503 31.8839H15.1132L15.16 32.0277C15.9869 34.5671 17.5896 35.9396 19.7951 35.9967C20.8404 36.0258 21.8005 35.7526 22.6469 35.19C23.738 34.4646 24.4387 33.4091 24.7299 32.0524L24.765 31.8884H34.4699L34.507 32.0495C35.169 34.9258 37.4425 35.9747 39.1886 35.9992L39.2729 35.9998C41.6029 35.9997 43.2665 34.62 44.0839 32.0096L44.1296 31.8637L46.2583 31.8643C46.66 31.8643 47.0626 31.8641 47.4652 31.8632C49.0716 31.8597 49.9938 30.9467 49.9947 29.3591C49.9956 28.1335 49.9952 26.9078 49.9946 25.6821C49.9938 23.5314 49.9929 21.3073 49.9999 19.1196ZM8.19563 34.7596C6.24501 34.7594 4.64631 33.1988 4.62895 31.2807C4.62027 30.3359 4.98717 29.4446 5.66202 28.771C6.33253 28.1014 7.22445 27.7306 8.17336 27.7265H8.18974C10.1614 27.7265 11.7666 29.2988 11.768 31.2316C11.7694 33.1754 10.167 34.7579 8.19563 34.7596ZM19.943 34.7596C19.9429 34.7596 19.9432 34.7596 19.943 34.7596L19.8821 34.759C18.9409 34.7436 18.0595 34.3642 17.4003 33.6906C16.7305 33.0063 16.3723 32.1049 16.3915 31.1527C16.4294 29.2635 18.0333 27.7264 19.9667 27.7264L20.0102 27.7266C20.9593 27.738 21.8487 28.1155 22.5146 28.7901C23.1842 29.4684 23.5446 30.3618 23.5294 31.3055C23.4985 33.21 21.8896 34.7596 19.943 34.7596ZM26.8642 30.5834H24.76L24.7248 30.4192C24.4426 29.1032 23.7655 28.0683 22.7126 27.3436C21.8193 26.7287 20.8138 26.4429 19.7261 26.4926C18.0148 26.5715 15.8004 27.6506 15.1912 30.4323L15.1555 30.5957H13.0007L12.9658 30.4311C12.6727 29.0465 11.9463 27.9745 10.8068 27.2451C9.95635 26.7005 8.98881 26.4469 7.93977 26.4926C5.76887 26.585 4.15883 27.9916 3.40668 30.4536L3.36173 30.6008H1.30286V24.4159L10.4452 24.4146C13.5859 24.4146 17.3128 24.4161 21.1413 24.4274C21.7854 24.4274 22.1562 24.273 22.4333 23.8945C23.1198 22.9573 24.0232 22.5828 25.2017 22.7516C25.3515 22.7729 25.5148 22.7829 25.7155 22.7829C25.8642 22.7829 26.0146 22.7777 26.1667 22.7723C26.3273 22.7666 26.4899 22.761 26.6541 22.761H26.8642V30.5834ZM30.2131 30.5877H28.1769V26.9244H30.2131V30.5877ZM34.9109 10.3489H35.121C35.7227 10.3489 36.3225 10.3483 36.921 10.3478C37.5168 10.3472 38.1112 10.3466 38.7047 10.3466C40.069 10.3466 41.6869 10.3493 43.3424 10.3684C43.6718 10.3722 44.1016 10.617 44.2811 10.903C45.288 12.508 46.2855 14.1548 47.2502 15.7475L47.9618 16.9213C48.0062 16.9944 47.9997 17.0686 47.9957 17.1131C47.9947 17.124 47.9934 17.1361 47.9934 17.1499V17.3568H34.9108V10.3489H34.9109ZM39.2758 34.7597C39.2757 34.7597 39.2757 34.7597 39.2755 34.7597C38.3199 34.7578 37.4276 34.389 36.7552 33.7218C36.0783 33.0497 35.7084 32.1591 35.7139 31.2141C35.725 29.2943 37.3207 27.7297 39.2709 27.7265H39.2771C40.2338 27.7265 41.1337 28.0947 41.811 28.7632C42.485 29.4284 42.8548 30.3094 42.8528 31.244C42.8489 33.1826 41.2442 34.7597 39.2758 34.7597ZM48.7169 29.7146C48.6445 30.2559 48.2714 30.5987 47.7433 30.6093C47.3065 30.618 46.8315 30.6223 46.2488 30.6223C45.9207 30.6223 45.593 30.621 45.266 30.6197C44.941 30.6184 44.6164 30.6172 44.293 30.6172H44.1415L44.0936 30.4756C43.1674 27.7311 41.4708 26.3906 39.0517 26.494C37.1982 26.5722 35.0768 27.8188 34.5164 30.4278L34.4811 30.5918H31.5396V10.3882H33.613L33.6127 12.9972C33.6124 14.5811 33.6122 16.1649 33.6138 17.7488C33.6146 18.4423 33.799 18.6219 34.5111 18.6222C36.639 18.6229 38.7663 18.623 40.8941 18.623L48.7034 18.6227V20.6918H47.9074C47.6353 20.6918 47.3631 20.6911 47.091 20.6903C46.4716 20.6886 45.8519 20.6868 45.2328 20.6939C44.3125 20.7041 43.7092 21.3028 43.6959 22.219C43.6887 22.7141 43.6914 23.205 43.6952 23.6619C43.7037 24.6447 44.2976 25.2352 45.2838 25.2417C46.0179 25.2465 46.752 25.2454 47.5008 25.2443C47.8352 25.2438 48.1724 25.2432 48.5135 25.2432H48.7236V27.2913H46.2481V28.5401H48.7263V28.747C48.7263 28.8517 48.7293 28.9531 48.7324 29.0523C48.7396 29.2799 48.746 29.4951 48.7169 29.7146ZM48.712 21.9695V23.9746H44.9971V21.9695H48.712Z" fill="white"/>
<path d="M36.5235 20.725H33.6337V21.8904H36.5235V20.725Z" fill="white"/>
<path d="M8.79608 30.6594H7.59216V31.8362H8.79608V30.6594Z" fill="white"/>
<path d="M20.5586 30.6591H19.3724V31.8546H20.5586V30.6591Z" fill="white"/>
<path d="M39.8788 30.6621H38.6801V31.8335H39.8788V30.6621Z" fill="white"/>
</g>
<defs>
<clipPath id="clip0_0_588">
<rect width="50" height="36" fill="white"/>
</clipPath>
</defs>
</svg>
