<svg width="46" height="46" viewBox="0 0 46 46" fill="none" xmlns="http://www.w3.org/2000/svg">
<path d="M41.5834 45.2488C42.2807 44.4989 43.0193 43.7687 43.7336 43.0625C44.1999 42.6015 44.6821 42.1247 45.1466 41.6486C45.3958 41.3931 45.6011 41.1041 45.7405 40.8127C46.2883 39.6674 45.9524 38.406 44.8848 37.5991C42.6741 35.9284 40.4207 34.2371 38.2415 32.6014C37.4349 31.996 36.6284 31.3906 35.822 30.7849C35.6431 30.6506 35.4629 30.518 35.2811 30.3844L35.24 30.3541L34.6597 30.8973L31.5276 27.7694H31.4651L31.3742 27.602C31.3108 27.485 31.3379 27.3682 31.3679 27.296L31.504 26.8424L31.5986 26.9368C31.6161 26.9101 31.6334 26.8831 31.6501 26.8559C35.3761 20.7978 35.564 14.6838 32.2088 8.68398C29.1683 3.24632 23.6592 0 17.4722 0C15.8904 0 14.3022 0.219827 12.7517 0.653402C6.29429 2.45938 2.15357 6.77017 0.444428 13.466C0.293659 14.0565 0.207201 14.6835 0.123618 15.2899C0.0852867 15.5682 0.0456779 15.8557 0 16.1392V18.4627C0.0308778 18.6797 0.0593068 18.897 0.0876292 19.1145C0.148746 19.5828 0.211886 20.0669 0.300473 20.5333C1.84937 28.6902 9.00472 34.6105 17.3142 34.6105C20.7307 34.6105 24.0591 33.5797 26.9393 31.6297C27.0244 31.572 27.1117 31.5203 27.1819 31.4786C27.2093 31.4623 27.2348 31.4472 27.2573 31.4334L27.471 31.3022L30.8748 34.6815L30.2955 35.3086C30.9987 36.2477 31.7045 37.1847 32.4104 38.1218C34.0952 40.3585 35.8376 42.6713 37.5126 44.9758C37.9789 45.6172 38.795 46.0001 39.6958 46C40.4516 45.9999 41.1396 45.7262 41.5834 45.2488ZM17.2816 33.3068C17.2811 33.3068 17.2817 33.3068 17.2812 33.3068H17.234C8.4321 33.2812 1.28345 26.0981 1.29836 17.2945C1.3056 13.0285 2.96896 9.0175 5.98221 6.0004C8.99535 2.9834 13.001 1.3179 17.2612 1.31086H17.288C21.5449 1.31086 25.55 2.97679 28.5655 6.00179C31.5842 9.02998 33.2434 13.0504 33.2374 17.3228C33.225 26.1361 26.0667 33.3068 17.2816 33.3068ZM28.7589 30.4974L30.5025 28.7972L33.5799 31.8774L31.8304 33.588L28.7589 30.4974ZM39.6399 44.7728C39.2178 44.7728 38.8306 44.53 38.4562 44.0306C36.8028 41.8255 35.1511 39.6189 33.4995 37.4123L32.3956 35.9376C32.3495 35.876 32.306 35.8125 32.264 35.7511L32.0589 35.4561L35.4081 32.109L36.1799 32.6874C36.6065 33.007 37.0437 33.3347 37.4807 33.6628L38.6944 34.574C40.4254 35.8735 42.1563 37.1731 43.8866 38.4736C44.4056 38.8638 44.6609 39.2338 44.6897 39.6382C44.7185 40.0408 44.5205 40.4402 44.067 40.8951L43.5222 41.4418C42.6105 42.3567 41.6986 43.2716 40.784 44.1838C40.3868 44.5801 40.0126 44.7728 39.6399 44.7728Z" fill="white"/>
<path d="M25.6388 13.6488C23.169 11.7727 20.4191 10.8215 17.4654 10.8215C16.3832 10.8215 15.2552 10.9496 14.1126 11.2022C10.5225 11.9957 7.78098 13.9681 5.96398 17.0648C5.83291 17.2884 5.84835 17.3791 5.96153 17.5386C6.09835 17.7315 6.22452 17.9318 6.34654 18.1254C6.51659 18.3953 6.67715 18.6501 6.86316 18.8852C9.35958 22.0405 12.8376 23.6517 17.4962 23.8104C17.6785 23.7906 17.88 23.7734 18.0926 23.7552C18.6262 23.7095 19.2308 23.6577 19.8228 23.5438C23.8122 22.7755 26.6844 20.8013 28.6036 17.5084C28.7009 17.3416 28.7036 17.2738 28.6189 17.1265C27.7845 15.6759 26.8097 14.5383 25.6388 13.6488ZM27.2038 17.3213L27.0842 17.4971C25.5167 19.8029 23.3707 21.3207 20.7057 22.0083C19.4522 22.3318 18.2256 22.4959 17.0606 22.4959C17.0604 22.4959 17.0604 22.4959 17.0603 22.4959C14.0292 22.4959 11.2869 21.3931 8.90962 19.2185C8.61841 18.9521 8.37128 18.6462 8.13224 18.3502C7.99957 18.1858 7.86233 18.0159 7.72252 17.8597C7.42045 17.5222 7.41055 17.1709 7.6926 16.7858C9.2432 14.6684 11.3283 13.256 13.8901 12.5875C15.1004 12.2718 16.2935 12.1116 17.4359 12.1116C20.0826 12.1116 22.5608 12.9666 24.8016 14.6528C25.6863 15.3185 26.4342 16.1328 27.0884 17.1428L27.2038 17.3213Z" fill="white"/>
<path d="M17.2899 13.7344L17.248 13.7346C15.2847 13.7582 13.6988 15.3679 13.713 17.323C13.7273 19.2866 15.3212 20.8841 17.266 20.8841H17.2792C18.2312 20.8806 19.13 20.4976 19.8101 19.8058C20.487 19.117 20.8539 18.2164 20.8426 17.2697C20.8195 15.3203 19.2256 13.7344 17.2899 13.7344ZM17.2689 19.5633H17.2526C15.9925 19.5546 15.011 18.5551 15.0183 17.2879C15.0254 16.0339 16.0176 15.0516 17.2772 15.0516H17.2904C17.8976 15.0549 18.4636 15.2925 18.8843 15.7204C19.3048 16.1483 19.5332 16.7188 19.5273 17.327C19.5149 18.5809 18.5229 19.5633 17.2689 19.5633Z" fill="white"/>
</svg>
