<svg width="70" height="70" viewBox="0 0 70 70" fill="none" xmlns="http://www.w3.org/2000/svg">
<g clip-path="url(#clip0_5_3199)">
<path d="M70 34.1798C70 44.4337 70 54.6876 70 64.9415C69.9466 65.1351 69.8923 65.3286 69.8401 65.5225C69.3284 67.4237 68.1816 68.7863 66.3672 69.5583C65.9118 69.7521 65.4177 69.8552 64.9413 70.0002C48.8541 70.0002 32.7668 70.0002 16.6796 70.0002C16.642 69.9754 16.6076 69.9384 16.5662 69.9276C13.2016 69.0516 11.6455 67.0312 11.645 63.5329C11.6444 60.1895 11.6568 56.8458 11.6264 53.5025C11.6233 53.166 11.4477 52.7492 11.2109 52.5091C8.41509 49.6761 5.61547 46.8459 2.76607 44.067C1.47237 42.8051 0.343663 41.4842 0 39.6485C0 39.1015 0 38.5548 0 38.0078C0.378303 36.1584 1.55897 34.8507 2.85067 33.5632C13.137 23.3102 23.4037 13.0373 33.6538 2.74821C34.9108 1.48641 36.198 0.349315 38.0078 0C38.5548 0 39.1015 0 39.6485 0C41.1788 0.344574 42.4366 1.11613 43.5254 2.25851C45.2373 4.05467 47.0233 5.78028 48.7779 7.53579C53.6555 12.4156 58.5388 17.2898 63.4081 22.1778C65.2877 24.0648 65.7165 26.279 64.7893 28.767C64.7393 28.9012 64.7136 29.0447 64.6737 29.1949C67.1437 29.5606 68.8255 30.842 69.6862 33.1466C69.812 33.483 69.8964 33.8348 70 34.1798ZM40.8195 67.6709C48.4738 67.6709 56.1281 67.6718 63.7823 67.6704C66.2536 67.6698 67.67 66.2456 67.6704 63.7608C67.6717 54.3069 67.6718 44.8528 67.6704 35.3989C67.67 32.9185 66.2543 31.4928 63.7761 31.4923C48.4904 31.4895 33.2044 31.4897 17.9186 31.4921C15.399 31.4925 13.9926 32.9072 13.9919 35.4394C13.9894 44.8705 13.9894 54.3018 13.9919 63.7329C13.9926 66.2613 15.4036 67.67 17.9248 67.6704C25.5565 67.6717 33.188 67.6709 40.8195 67.6709ZM48.0634 10.1595C41.6953 16.5195 35.3488 22.8579 29.0434 29.1554C31.5355 29.1554 34.1515 29.1554 36.7674 29.1554C44.8741 29.1554 52.9809 29.1501 61.0876 29.1676C61.6046 29.1687 61.9364 28.9984 62.2325 28.6037C63.2617 27.2321 63.1951 25.2825 61.9541 24.0349C57.2971 19.3534 52.6127 14.6993 48.0634 10.1595ZM41.4149 3.41329C41.1912 3.24374 41.1019 3.17646 41.0129 3.10864C39.5012 1.95824 37.5805 2.13982 36.1349 3.5854C25.2779 14.4426 14.4225 25.302 3.56899 36.1628C3.3606 36.3714 3.15878 36.5923 2.98868 36.8323C1.99215 38.2366 2.14712 40.0961 3.36188 41.2698C6.34345 38.2939 9.33304 35.3252 12.3008 32.3349C12.9048 31.7264 13.3968 31.0073 13.9957 30.3933C14.4038 29.975 14.9491 29.6917 15.3633 29.2782C23.8276 20.8285 32.2815 12.3684 40.7416 3.91447C40.9177 3.73836 41.144 3.61256 41.4149 3.41329ZM42.991 5.18685C35.0317 13.1438 27.0387 21.1344 19.0435 29.1273C19.2046 29.1349 19.4216 29.1535 19.6387 29.1539C21.3013 29.1565 22.9643 29.134 24.6263 29.1674C25.1718 29.1783 25.5514 29.015 25.9375 28.6272C32.5267 22.0108 39.1311 15.4096 45.7314 8.80415C45.8907 8.64462 46.0417 8.47689 46.1569 8.35511C45.0625 7.25976 43.9907 6.18721 42.991 5.18685ZM11.6541 36.4999C9.44188 38.7072 7.27398 40.8702 5.17299 42.9664C6.20489 43.9967 7.27836 45.0685 8.37935 46.1677C9.36239 45.1848 10.3976 44.1606 11.4151 43.119C11.5429 42.9883 11.6424 42.7662 11.6439 42.5857C11.6599 40.5599 11.6541 38.534 11.6541 36.4999ZM11.5875 49.5341C11.5875 48.4059 11.5875 47.3917 11.5875 46.381C11.0271 46.909 10.5015 47.4045 9.97315 47.9022C10.5022 48.4371 11.0094 48.9496 11.5875 49.5341Z" fill="#19305D" fill-opacity="0.85"/>
<path d="M64.9414 70.0001C65.4178 69.8551 65.9117 69.752 66.3673 69.5582C68.1817 68.7862 69.3284 67.4236 69.8402 65.5224C69.8923 65.3285 69.9467 65.135 70.0001 64.9414C70.0001 66.6276 70.0001 68.3139 70.0001 70.0001C68.3137 70.0001 66.6274 70.0001 64.9414 70.0001Z" fill="white"/>
<path d="M22.121 44.3211C21.0053 44.3213 19.8895 44.332 18.7739 44.3185C17.3141 44.3008 16.3723 43.4024 16.3396 41.9413C16.3056 40.4166 16.3026 38.8896 16.3417 37.365C16.3787 35.9153 17.3431 35.0094 18.7974 35.003C21.0516 34.993 23.3059 34.9919 25.56 35.0035C26.9919 35.0108 27.9773 35.9632 28.0027 37.3889C28.0298 38.914 28.0318 40.4403 28.0021 41.9654C27.975 43.3585 27.0023 44.2976 25.6049 44.3176C24.4437 44.334 23.2822 44.3209 22.121 44.3211ZM18.7119 41.9368C21.0144 41.9368 23.3166 41.9368 25.6211 41.9368C25.6211 40.3813 25.6211 38.8719 25.6211 37.3649C23.2935 37.3649 21.0231 37.3649 18.7119 37.3649C18.7119 38.8945 18.7119 40.3889 18.7119 41.9368Z" fill="#19305D" fill-opacity="0.85"/>
<path d="M38.5013 53.6742C39.2532 53.6742 40.0056 53.6548 40.7567 53.6796C41.511 53.7044 41.9587 54.13 41.9824 54.7848C42.007 55.4654 41.5472 55.9784 40.7852 55.9941C39.2594 56.0255 37.7321 56.0242 36.2062 55.9943C35.4806 55.9801 35.0144 55.4869 35.0053 54.8483C34.9956 54.1795 35.4782 53.7228 36.2457 53.6749C36.2911 53.672 36.3369 53.6722 36.3825 53.6722C37.0888 53.672 37.795 53.672 38.5013 53.672C38.5013 53.6727 38.5013 53.6734 38.5013 53.6742Z" fill="#19305D" fill-opacity="0.85"/>
<path d="M29.1229 56.0071C28.4166 56.0077 27.71 56.0233 27.0043 56.0036C26.1676 55.9803 25.6901 55.5435 25.6863 54.8394C25.6825 54.1293 26.153 53.687 26.9924 53.6771C28.4502 53.6602 29.9085 53.6602 31.3665 53.6782C32.1543 53.6881 32.64 54.1313 32.6638 54.7934C32.6884 55.4746 32.1783 55.9747 31.3782 56.0013C30.6272 56.0261 29.8748 56.0066 29.1229 56.0071Z" fill="#19305D" fill-opacity="0.85"/>
<path d="M29.1804 58.348C29.9294 58.3471 30.6785 58.3333 31.4269 58.3511C32.152 58.3686 32.6309 58.8084 32.6636 59.445C32.6969 60.095 32.2016 60.6499 31.4701 60.6641C29.9276 60.6939 28.3837 60.6949 26.8412 60.6623C26.1276 60.6472 25.6813 60.14 25.6866 59.488C25.6919 58.8255 26.1369 58.3759 26.866 58.3542C27.6368 58.3311 28.4089 58.3489 29.1804 58.348Z" fill="#19305D" fill-opacity="0.85"/>
<path d="M19.8229 58.3474C20.5748 58.3471 21.3268 58.3334 22.0783 58.3511C22.8346 58.3689 23.3369 58.8484 23.3312 59.5084C23.3259 60.1421 22.8475 60.6519 22.1339 60.6656C20.6081 60.6947 19.0809 60.6942 17.5549 60.6667C16.7998 60.653 16.3259 60.1369 16.3476 59.4616C16.3684 58.8131 16.8359 58.3706 17.5675 58.352C18.319 58.3328 19.0712 58.3478 19.8229 58.3474Z" fill="#19305D" fill-opacity="0.85"/>
<path d="M19.8477 53.6759C20.5994 53.6759 21.3516 53.6565 22.1024 53.6813C22.8305 53.7056 23.3084 54.1619 23.3306 54.7962C23.3538 55.4553 22.8657 55.9811 22.11 55.9957C20.5846 56.0248 19.0577 56.0252 17.5325 55.9938C16.8067 55.9789 16.3524 55.4854 16.3489 54.8379C16.3453 54.1639 16.8196 53.7202 17.593 53.6746C17.6384 53.6719 17.6842 53.6719 17.7296 53.6719C18.4357 53.6717 19.1418 53.6717 19.8479 53.6717C19.8477 53.673 19.8477 53.6744 19.8477 53.6759Z" fill="#19305D" fill-opacity="0.85"/>
<path d="M16.3452 48.9963C16.3452 48.5872 16.3149 48.1754 16.3519 47.7697C16.413 47.1025 16.9078 46.6569 17.5176 46.6682C18.1059 46.6791 18.6028 47.1025 18.6381 47.7389C18.6846 48.577 18.6848 49.4217 18.637 50.2596C18.6002 50.9077 18.1229 51.3055 17.5151 51.313C16.8802 51.3208 16.4139 50.9052 16.3517 50.2229C16.3151 49.8173 16.3453 49.4054 16.3452 48.9963Z" fill="#19305D" fill-opacity="0.85"/>
<path d="M35.0058 48.9339C35.0058 48.547 34.9819 48.1585 35.0111 47.7738C35.0601 47.1275 35.572 46.6589 36.1786 46.6666C36.7885 46.6744 37.2935 47.1459 37.3175 47.7995C37.3467 48.5948 37.3467 49.3928 37.3181 50.1882C37.2938 50.8626 36.8218 51.3029 36.1872 51.3138C35.5301 51.3251 35.0461 50.8655 35.0069 50.1623C34.9843 49.7539 35.0027 49.3433 35.0027 48.9339C35.0038 48.9339 35.0049 48.9339 35.0058 48.9339Z" fill="#19305D" fill-opacity="0.85"/>
<path d="M25.6871 48.9238C25.6871 48.5371 25.6658 48.1491 25.6921 47.7643C25.7345 47.1424 26.1992 46.6955 26.7901 46.67C27.3436 46.6461 27.9114 47.0273 27.954 47.6093C28.022 48.5349 28.0273 49.4736 27.9517 50.398C27.901 51.0171 27.3245 51.3644 26.7105 51.3048C26.1285 51.2485 25.7427 50.8401 25.6864 50.2199C25.6822 50.1746 25.6806 50.1291 25.6806 50.0835C25.6802 49.6968 25.6804 49.3101 25.6804 48.9234C25.6826 48.9238 25.6849 48.9238 25.6871 48.9238Z" fill="#19305D" fill-opacity="0.85"/>
<path d="M30.3473 49.0158C30.3464 48.6063 30.3261 48.1955 30.3509 47.7875C30.3907 47.1385 30.8897 46.6666 31.5 46.6663C32.0782 46.6659 32.6156 47.1067 32.6475 47.7184C32.6926 48.5802 32.696 49.4488 32.6422 50.3098C32.6032 50.9319 32.0747 51.3284 31.4674 51.3128C30.8576 51.2971 30.3998 50.8758 30.354 50.244C30.3243 49.8366 30.3484 49.4252 30.3473 49.0158Z" fill="#19305D" fill-opacity="0.85"/>
<path d="M46.6424 49.0353C46.6418 49.4446 46.6674 49.8558 46.6358 50.2625C46.5888 50.8707 46.1618 51.2836 45.5795 51.3075C44.9496 51.3332 44.4508 51.0328 44.395 50.4202C44.3089 49.4764 44.3195 48.5143 44.3961 47.5686C44.4433 46.9865 45.0331 46.6062 45.5853 46.6791C46.1941 46.7595 46.5919 47.1006 46.6371 47.7398C46.6674 48.1697 46.6429 48.6034 46.6424 49.0353Z" fill="#19305D" fill-opacity="0.85"/>
<path d="M21.0254 49.0173C21.0254 48.5854 20.9973 48.1513 21.0321 47.7223C21.0804 47.1285 21.5306 46.7087 22.097 46.6706C22.6525 46.6332 23.2246 47.0013 23.272 47.5856C23.3471 48.5094 23.3526 49.4472 23.2851 50.3716C23.2392 50.9995 22.6837 51.355 22.0689 51.3083C21.4925 51.2646 21.0923 50.8578 21.0232 50.2447C21.0181 50.1995 21.0139 50.1541 21.0139 50.1087C21.0132 49.745 21.0135 49.3811 21.0135 49.0173C21.0173 49.0173 21.0214 49.0173 21.0254 49.0173Z" fill="#19305D" fill-opacity="0.85"/>
<path d="M60.6728 48.9942C60.6728 49.3807 60.6971 49.7692 60.6675 50.1536C60.6125 50.8732 60.1436 51.3187 59.4887 51.3131C58.8313 51.3076 58.3744 50.8524 58.354 50.1273C58.3323 49.3548 58.3301 48.5804 58.3583 47.8082C58.3828 47.1437 58.8674 46.6803 59.481 46.6691C60.0621 46.6586 60.5702 47.0759 60.6458 47.7003C60.6972 48.1258 60.6557 48.5625 60.6557 48.9942C60.6615 48.9942 60.6672 48.9942 60.6728 48.9942Z" fill="#19305D" fill-opacity="0.85"/>
<path d="M51.3067 49.056C51.3067 49.4649 51.3381 49.8768 51.2994 50.2821C51.2411 50.8936 50.8061 51.2865 50.2263 51.3127C49.6426 51.3391 49.1011 50.9889 49.0573 50.4004C48.9888 49.4757 48.9893 48.539 49.0533 47.6139C49.0938 47.0274 49.6473 46.6471 50.2063 46.6686C50.7722 46.6905 51.2393 47.0992 51.2961 47.6939C51.3392 48.1441 51.3047 48.6019 51.3047 49.056C51.3053 49.056 51.306 49.056 51.3067 49.056Z" fill="#19305D" fill-opacity="0.85"/>
<path d="M53.6913 48.9471C53.6913 48.5381 53.6629 48.1266 53.6979 47.7208C53.7528 47.0836 54.1571 46.7465 54.7661 46.6758C55.3183 46.6116 55.8966 47.007 55.9374 47.587C56.0042 48.5337 56.0054 49.4933 55.9291 50.4389C55.8818 51.0253 55.3229 51.3653 54.7334 51.3055C54.1374 51.2451 53.7644 50.9053 53.7046 50.3093C53.6594 49.8595 53.6957 49.4016 53.6957 48.9472C53.6941 48.947 53.6926 48.9471 53.6913 48.9471Z" fill="#19305D" fill-opacity="0.85"/>
</g>
<defs>
<clipPath id="clip0_5_3199">
<rect width="70" height="70" fill="white"/>
</clipPath>
</defs>
</svg>
