<svg width="40" height="40" viewBox="0 0 40 40" fill="none" xmlns="http://www.w3.org/2000/svg">
<g clip-path="url(#clip0_0_654)">
<path d="M12.3438 0C13.134 0.338888 13.3586 0.960682 13.3504 1.78386C13.3226 4.55544 13.3398 7.32741 13.3398 10.099C13.3398 10.2515 13.3398 10.4044 13.3398 10.5743C13.4837 10.5743 13.5841 10.578 13.684 10.5739C18.4585 10.3601 23.0812 11.0221 27.4334 13.0806C33.0964 15.759 36.7362 20.1946 38.5934 26.1379C39.3771 28.6458 39.7851 31.2209 39.9335 33.8407C39.9421 33.9936 39.9775 34.145 40.0004 34.2971C40.0004 34.792 40.0004 35.2868 40.0004 35.7816C39.9778 35.8417 39.9455 35.8999 39.9339 35.9619C39.5912 37.7954 37.7837 38.9176 36.167 38.6249C36.0893 38.6106 35.9672 38.6242 35.9225 38.6749C35.2774 39.406 34.4433 39.7862 33.5157 40.0004C33.1772 40.0004 32.8386 40.0004 32.5001 40.0004C31.9189 39.7595 31.3238 39.5465 30.7625 39.2659C30.4841 39.1265 30.2677 38.8631 30.0235 38.6561C28.6732 39.5277 27.33 39.5172 25.9989 38.6809C25.27 39.4594 25.2077 39.4969 23.8281 40C23.4896 40 23.1511 40 22.8125 40C22.0123 39.7765 21.2699 39.4473 20.7589 38.7575C20.5891 38.5284 20.4471 38.4709 20.1552 38.5453C18.2207 39.0389 16.2553 37.7262 16.0694 35.7598C16.0089 35.1188 16.1655 34.4425 16.3057 33.8005C16.5623 32.6245 16.7693 31.4534 16.5623 30.2482C16.264 28.5109 15.4874 27.111 13.8016 26.3592C13.6675 26.2995 13.5236 26.2615 13.3398 26.198C13.3398 26.3494 13.3417 26.4385 13.3395 26.5275C13.315 27.4814 12.8037 27.9879 11.8505 27.9939C11.2261 27.998 10.6017 28.0037 9.97727 27.9909C9.2112 27.9755 8.62886 27.6197 8.26405 26.9536C8.13818 26.724 8.00744 26.653 7.75534 26.6541C5.72615 26.6643 3.6962 26.6376 1.66739 26.6707C0.847219 26.6842 0.285537 26.4051 0 25.6251C0 17.8645 0 10.1043 0 2.34366C0.317097 1.56745 0.903199 1.30633 1.72449 1.31986C3.7488 1.3533 5.77424 1.33301 7.79892 1.32549C7.92366 1.32512 8.12428 1.28492 8.1611 1.20452C8.4534 0.563936 8.98653 0.232563 9.60945 0C10.5209 0 11.4324 0 12.3438 0ZM13.3586 13.9631C13.4631 13.9718 13.551 13.9846 13.6389 13.9861C15.8075 14.0221 17.9438 14.3024 20.0436 14.8438C23.7759 15.8056 27.1257 17.479 29.9025 20.1984C30.3297 20.6165 30.7283 21.0655 31.1217 21.5164C31.414 21.8519 31.3948 22.2306 31.1089 22.4894C30.8155 22.7551 30.4255 22.7119 30.111 22.3771C30.0396 22.3012 29.9739 22.2204 29.9055 22.1419C28.5672 20.6049 26.9964 19.3545 25.2238 18.3548C22.0739 16.5788 18.6591 15.7079 15.082 15.4006C14.5166 15.3521 13.9477 15.342 13.3639 15.3131C13.3639 17.3663 13.3639 19.3643 13.3639 21.3717C13.4338 21.3864 13.4822 21.3991 13.5315 21.4066C16.2215 21.8282 18.448 23.0748 20.1011 25.2407C20.6703 25.9865 21.082 26.8582 21.5227 27.6948C21.7252 28.0792 21.5494 28.4549 21.1955 28.6086C20.8405 28.763 20.4993 28.6123 20.3066 28.2145C20.2728 28.1442 20.245 28.0713 20.2142 27.9995C19.6525 26.6977 18.83 25.589 17.7397 24.6836C16.4714 23.6301 15.0204 22.9839 13.3417 22.7284C13.3417 23.3817 13.3327 24.0039 13.353 24.6253C13.3556 24.7061 13.4961 24.8222 13.5946 24.8538C16.1595 25.6754 17.4636 27.5292 17.8912 30.0967C18.1271 31.5128 17.8897 32.8928 17.5628 34.269C17.4557 34.7198 17.3453 35.2015 17.393 35.6523C17.5365 37.0173 19.0829 37.7296 20.3434 37.0537C20.9036 36.7535 21.2436 36.8474 21.4792 37.3877C21.8316 38.1959 22.4443 38.6531 23.3205 38.6587C24.2154 38.6647 24.8342 38.1996 25.1938 37.3772C25.456 36.7772 25.9865 36.7122 26.4186 37.2134C27.33 38.2706 28.6939 38.2676 29.5903 37.2062C30.0156 36.7028 30.513 36.7592 30.8275 37.3456C31.7168 39.0055 33.9425 39.1486 35.0283 37.6161C35.369 37.1349 35.5107 37.0841 36.0787 37.2374C37.4429 37.606 38.6989 36.6517 38.6621 35.2327C38.5813 32.1229 38.1684 29.0628 37.1803 26.1C35.4776 20.996 32.3521 17.0725 27.5138 14.6225C23.1571 12.416 18.4919 11.707 13.6543 11.9313C13.5559 11.9358 13.4582 11.9614 13.3586 11.9775C13.3586 12.6497 13.3586 13.2959 13.3586 13.9631ZM7.97175 3.99414C7.97175 3.52676 7.97175 3.11611 7.97175 2.68367C5.75658 2.68367 3.56395 2.68367 1.35442 2.68367C1.35442 10.2335 1.35442 17.763 1.35442 25.302C3.57109 25.302 5.76372 25.302 7.95822 25.302C7.95822 18.6362 7.95822 11.9948 7.95822 5.32677C7.78051 5.32677 7.63925 5.32677 7.4976 5.32677C6.13078 5.3264 4.76359 5.33015 3.39677 5.32377C2.95982 5.32189 2.67353 5.05589 2.66639 4.67755C2.65963 4.30485 2.94892 4.00992 3.37422 3.9994C3.98587 3.98399 4.5979 3.99451 5.20993 3.99414C6.11914 3.99414 7.02797 3.99414 7.97175 3.99414ZM11.9749 26.6523C11.9749 18.1793 11.9749 9.7665 11.9749 1.33113C11.4252 1.33113 10.9053 1.33113 10.3857 1.33113C9.49599 1.33113 9.33143 1.49231 9.33143 2.37033C9.33105 10.1268 9.33105 17.8833 9.33218 25.6397C9.33218 25.7957 9.32955 25.9538 9.3551 26.1064C9.40807 26.4261 9.60457 26.6372 9.9288 26.6466C10.6032 26.6658 11.2783 26.6523 11.9749 26.6523Z" fill="white"/>
<path d="M18.2192 18.6797C18.6482 18.7902 19.2374 18.9055 19.8028 19.0922C25.6266 21.0151 29.3074 24.898 30.607 30.9473C30.6288 31.0487 30.6468 31.152 30.6543 31.2557C30.6818 31.6363 30.4597 31.926 30.1017 31.985C29.765 32.0406 29.463 31.8557 29.3657 31.4977C29.2364 31.0217 29.156 30.5321 29.0151 30.0599C27.3549 24.4923 23.5512 21.2725 17.9742 20.0052C17.5129 19.9004 17.2829 19.6404 17.3374 19.2305C17.384 18.8811 17.6778 18.6549 18.2192 18.6797Z" fill="white"/>
<path d="M36.0069 34.3302C35.9971 34.5335 36.0073 34.6661 35.9814 34.7916C35.9134 35.1248 35.6406 35.3326 35.3089 35.3221C34.9741 35.3115 34.725 35.091 34.6822 34.7446C34.601 34.0867 34.5251 33.4281 34.4564 32.7688C34.4128 32.351 34.657 32.0312 35.0368 31.9839C35.3915 31.9396 35.7086 32.1815 35.7717 32.5843C35.8668 33.1877 35.9363 33.7948 36.0069 34.3302Z" fill="white"/>
<path d="M22.66 31.8457C22.6522 32.3274 22.4162 32.6046 22.0822 32.6493C21.7535 32.6933 21.4296 32.4855 21.3552 32.1395C21.2545 31.671 21.173 31.1972 21.1114 30.722C21.0678 30.3865 21.3222 30.0776 21.6486 30.0126C21.9582 29.951 22.3084 30.1246 22.3877 30.4432C22.5124 30.9451 22.5872 31.4595 22.66 31.8457Z" fill="white"/>
</g>
<defs>
<clipPath id="clip0_0_654">
<rect width="40" height="40" fill="white"/>
</clipPath>
</defs>
</svg>
