<svg width="50" height="36" viewBox="0 0 50 36" fill="none" xmlns="http://www.w3.org/2000/svg">
<g clip-path="url(#clip0_6_22166)">
<path d="M50.0001 29.2436C49.8012 29.6154 49.647 30.0231 49.3936 30.3513C48.9393 30.9395 48.3106 31.2342 47.5665 31.2467C47.3904 31.2496 47.2144 31.2471 47.055 31.2471C46.115 34.4831 44.2477 36.0842 41.5431 35.9944C39.5434 35.928 37.0515 34.5765 36.4703 31.2499C36.2933 31.2499 36.1037 31.2499 35.9141 31.2499C32.8875 31.2499 29.8606 31.2501 26.834 31.2493C26.6714 31.2493 26.5058 31.2597 26.3469 31.2328C26.0022 31.1744 25.7984 30.9574 25.7587 30.6019C25.7194 30.2496 25.8554 29.9706 26.1826 29.8468C26.3739 29.7744 26.5955 29.7628 26.8036 29.7622C28.6261 29.7561 30.4487 29.7586 32.2712 29.7586C32.4481 29.7586 32.6249 29.7586 32.8322 29.7586C32.8322 27.189 32.8322 24.6616 32.8322 22.0974C22.3839 22.0974 11.9494 22.0974 1.49003 22.0974C1.49003 22.5182 1.49003 22.9237 1.49003 23.3881C2.11902 23.3881 2.73289 23.3686 3.34495 23.3923C4.48246 23.4363 5.30848 24.3517 5.28621 25.5133C5.26524 26.6056 4.4167 27.4471 3.29716 27.4757C2.85804 27.487 2.41853 27.4784 1.97915 27.4787C1.82002 27.4788 1.66089 27.4787 1.50553 27.4787C1.43065 28.6225 2.28388 29.6802 3.37438 29.7318C4.60852 29.7901 5.84722 29.763 7.08331 29.7411C7.19856 29.7391 7.37697 29.525 7.41291 29.3801C7.96232 27.1702 9.31367 25.7921 11.5136 25.3642C14.4878 24.7855 17.0213 26.4723 17.7412 29.4497C17.7606 29.53 17.7776 29.6109 17.8108 29.7583C17.9724 29.7583 18.1459 29.7583 18.3194 29.7583C19.9792 29.7583 21.6392 29.748 23.2986 29.7695C23.5546 29.7728 23.8854 29.8514 24.0419 30.0253C24.1927 30.193 24.2805 30.5967 24.1823 30.7746C24.0594 30.9976 23.7238 31.2167 23.4712 31.2276C22.3503 31.276 21.2264 31.2492 20.1036 31.2495C19.4853 31.2496 18.8663 31.2658 18.2486 31.243C17.9237 31.2309 17.8175 31.3412 17.7527 31.6726C17.2848 34.0675 15.2808 35.8371 12.9051 35.989C10.5391 36.1402 8.3599 34.6633 7.5822 32.3696C7.46161 32.0139 7.38582 31.6424 7.28177 31.2496C6.18267 31.2496 5.094 31.25 4.00532 31.2495C1.85544 31.2485 0.659458 30.3313 0.0587313 28.2257C0.0505272 28.1969 0.0200546 28.1749 0 28.1496C0.000130225 19.2027 0.000130225 10.2553 0.000130225 1.30806C0.437815 0.297481 1.2094 -0.0506475 2.26929 0.00582723C3.3891 0.0654836 4.51437 0.0161677 5.63729 0.0206751C6.20585 0.0229287 6.54053 0.30517 6.54144 0.764922C6.54236 1.22401 6.20716 1.50718 5.63951 1.50904C4.40276 1.51315 3.16589 1.51699 1.92915 1.50625C1.60228 1.50347 1.46034 1.61098 1.46073 1.96362C1.46789 8.09338 1.46685 14.2231 1.46893 20.3528C1.46893 20.4005 1.48638 20.4484 1.50201 20.5282C11.9255 20.5282 22.3503 20.5282 32.8352 20.5282C32.8443 20.3579 32.8617 20.1833 32.8617 20.0086C32.8631 14.0611 32.8631 8.11353 32.8623 2.16605C32.8622 1.51182 32.8588 1.51036 32.2026 1.51036C24.5376 1.5101 16.8727 1.51023 9.20766 1.5101C9.04488 1.5101 8.88119 1.51885 8.71971 1.5044C8.30221 1.46688 8.0109 1.15534 8.01298 0.762403C8.01493 0.369201 8.30495 0.0649534 8.72648 0.0239893C8.85554 0.0113952 8.98667 0.0192168 9.1169 0.0192168C16.847 0.0190842 24.577 0.0189516 32.3072 0.0192168C33.6886 0.0193494 34.3246 0.671327 34.3272 2.09407C34.3299 3.58256 34.3279 5.07119 34.3279 6.6017C34.6382 6.6017 34.9085 6.6017 35.179 6.6017C36.6031 6.60144 36.9689 6.75058 36.9826 7.33694C36.9966 7.93522 36.6285 8.09219 35.2096 8.09298C35.0794 8.09311 34.9492 8.09245 34.8191 8.09484C34.5043 8.10067 34.3374 8.26095 34.3315 8.58521C34.329 8.71765 34.3283 8.85022 34.3283 8.98279C34.3281 15.6924 34.3281 22.402 34.3281 29.1115C34.3281 29.3064 34.3281 29.5013 34.3281 29.727C35.0705 29.727 35.7636 29.727 36.4794 29.727C37.2179 26.8915 38.9654 25.2425 41.9293 25.2508C44.3936 25.2577 45.9261 26.6733 47.0137 29.7178C48.108 29.8567 48.5334 29.483 48.5337 28.3781C48.5343 24.9985 48.5339 21.6188 48.5339 18.2392C48.5339 18.0759 48.5339 17.9126 48.5339 17.6951C48.3166 17.6851 48.1293 17.6692 47.9421 17.669C45.0942 17.6674 42.2462 17.669 39.3983 17.6673C37.856 17.6664 37.1156 16.9172 37.114 15.3611C37.1128 14.102 37.1096 12.843 37.1149 11.5838C37.1207 10.2215 37.8995 9.4391 39.2453 9.43525C40.2705 9.43233 41.2958 9.4326 42.3209 9.42982C42.3505 9.42968 42.3802 9.41205 42.4096 9.40211C42.1257 8.62989 41.4534 8.12122 40.6574 8.0963C40.1859 8.08158 39.7133 8.10239 39.2418 8.08808C38.7563 8.07336 38.4776 7.80902 38.4633 7.38174C38.4482 6.93498 38.7362 6.62464 39.2324 6.60847C39.7849 6.59057 40.3402 6.5846 40.8914 6.61987C41.7965 6.67767 42.5436 7.08108 43.1232 7.79311C45.1581 10.2928 47.2041 12.7833 49.2124 15.3049C49.5587 15.7397 49.7418 16.3091 50.0003 16.8165C50.0001 20.959 50.0001 25.1013 50.0001 29.2436ZM47.9563 16.1504C47.901 16.0482 47.8798 15.9888 47.8426 15.9428C46.5392 14.3352 45.2398 12.724 43.9192 11.1311C43.8097 10.999 43.5555 10.9375 43.3674 10.9353C42.0184 10.919 40.6693 10.9253 39.3202 10.9271C38.6827 10.9279 38.581 11.0282 38.5793 11.6716C38.5761 12.8961 38.5774 14.1205 38.5788 15.3451C38.5796 16.0769 38.6759 16.1762 39.3949 16.1764C42.0769 16.1776 44.759 16.1774 47.441 16.1759C47.5979 16.1758 47.7548 16.1608 47.9563 16.1504ZM8.75956 30.5121C8.72713 32.705 10.3934 34.4757 12.5171 34.5053C14.6216 34.5346 16.3712 32.8138 16.403 30.6833C16.4362 28.4602 14.8455 26.7796 12.6781 26.7482C10.4152 26.7153 8.79264 28.2738 8.75956 30.5121ZM41.7272 34.5123C43.8507 34.5116 45.5851 32.7539 45.5834 30.6043C45.5816 28.4186 43.9082 26.7417 41.7214 26.7341C39.6108 26.7269 37.9046 28.4615 37.9088 30.6108C37.9129 32.7272 39.6604 34.513 41.7272 34.5123ZM1.49719 24.8787C1.49719 25.2788 1.49719 25.6163 1.49719 25.9846C2.09492 25.9846 2.66088 25.9851 3.22671 25.9845C3.56737 25.9841 3.79969 25.8345 3.81311 25.4685C3.82717 25.081 3.59628 24.891 3.23686 24.8824C2.67065 24.8688 2.10391 24.8787 1.49719 24.8787Z" fill="white"/>
<path d="M39.1251 20.395C38.7364 20.3945 38.3473 20.406 37.9591 20.3916C37.5059 20.3746 37.2076 20.0726 37.2051 19.6574C37.2026 19.2438 37.4984 18.9223 37.9492 18.9121C38.7424 18.8941 39.5366 18.8946 40.33 18.9112C40.7785 18.9206 41.0893 19.2446 41.0922 19.6476C41.0952 20.0712 40.7718 20.373 40.2913 20.3952C40.2751 20.396 40.2589 20.3956 40.2427 20.3956C39.8703 20.3956 39.4977 20.3956 39.1251 20.395Z" fill="white"/>
<path d="M12.572 27.6395C14.2295 27.6401 15.5174 28.9445 15.5131 30.6179C15.5089 32.2554 14.1564 33.6194 12.5517 33.6044C10.95 33.5895 9.65 32.2541 9.64844 30.6224C9.64688 28.9251 10.9076 27.6388 12.572 27.6395ZM12.5687 29.1254C11.7559 29.1266 11.1188 29.7685 11.1126 30.5929C11.1062 31.4352 11.7642 32.1166 12.5802 32.1125C13.3825 32.1085 14.0671 31.3949 14.05 30.5805C14.0331 29.7679 13.3778 29.1242 12.5687 29.1254Z" fill="white"/>
<path d="M44.6866 30.6002C44.6856 32.2503 43.3481 33.6144 41.7406 33.6046C40.1412 33.5948 38.8293 32.2624 38.8146 30.6329C38.7994 28.9396 40.0719 27.6367 41.7351 27.6428C43.4312 27.649 44.6875 28.9079 44.6866 30.6002ZM41.7696 29.126C40.9556 29.1174 40.2959 29.7597 40.2779 30.5783C40.2597 31.4071 40.9406 32.1162 41.7517 32.1128C42.5451 32.1095 43.2159 31.4286 43.221 30.6214C43.2262 29.8053 42.5751 29.1345 41.7696 29.126Z" fill="white"/>
</g>
<defs>
<clipPath id="clip0_6_22166">
<rect width="50" height="36" fill="white"/>
</clipPath>
</defs>
</svg>
