<svg width="40" height="46" viewBox="0 0 40 46" fill="none" xmlns="http://www.w3.org/2000/svg">
<g clip-path="url(#clip0_6_21392)">
<path d="M3.36016 46C3.11135 45.9189 2.86064 45.8422 2.61385 45.7558C1.11215 45.2302 0.0635551 43.9273 0.0437561 42.4149C0.0156339 40.2653 -0.167854 38.0959 0.506701 35.9945C2.22064 30.6548 5.97742 27.4422 11.7294 26.3278C12.3459 26.2083 12.966 26.105 13.5815 25.9814C14.6991 25.757 15.2962 24.8161 14.9778 23.7743C14.9483 23.6777 14.8315 23.5904 14.734 23.5294C12.3164 22.0169 10.8989 19.912 10.5302 17.1743C10.5163 17.0711 10.3698 16.9272 10.2592 16.9011C8.91272 16.584 8.2707 15.8183 8.26982 14.4942C8.26944 13.9854 8.23968 13.4737 8.28583 12.9685C8.31774 12.6194 8.38483 12.2388 8.5663 11.945C8.78762 11.5865 8.84361 11.2376 8.83958 10.8438C8.82797 9.70638 8.82823 8.56881 8.83718 7.43137C8.86127 4.33448 10.8939 1.89918 14.0668 1.16392C15.7612 0.771315 17.4578 0.387694 19.1534 0C19.7207 0 20.2882 0 20.8556 0C22.6733 0.418125 24.5091 0.776587 26.3044 1.26863C28.8096 1.95524 30.3669 3.56856 31.008 5.97104C31.1327 6.43865 30.9377 6.79747 30.5297 6.90158C30.1217 7.00569 29.7606 6.78261 29.6331 6.3192C29.0403 4.16424 27.5763 2.89525 25.3046 2.41075C24.1382 2.16203 22.9833 1.86479 21.8243 1.5854C20.7056 1.31572 19.5795 1.27235 18.4562 1.52933C16.9727 1.86874 15.4861 2.20205 14.0189 2.59813C11.8127 3.19381 10.3071 5.08723 10.2708 7.25777C10.2509 8.45344 10.2673 9.64971 10.2673 10.9055C16.7669 9.16245 23.2332 9.16078 29.7442 10.9023C29.7442 10.4192 29.7393 9.98888 29.7455 9.55865C29.7527 9.07104 30.0204 8.7726 30.4451 8.76445C30.8918 8.75583 31.1638 9.05606 31.1716 9.57471C31.1766 9.90406 31.1769 10.2335 31.1718 10.5628C31.1636 11.0837 31.1508 11.5861 31.5038 12.0554C31.6718 12.2787 31.7071 12.6206 31.7234 12.9125C31.7565 13.5098 31.7459 14.1099 31.736 14.7085C31.7178 15.7941 30.9662 16.6681 29.8488 16.8718C29.5858 16.9197 29.4896 16.9918 29.4537 17.2523C29.1057 19.7734 27.8497 21.7855 25.6676 23.2682C24.9985 23.723 24.859 24.0706 25.0608 24.8398C25.226 25.4692 25.6623 25.8262 26.3244 25.9699C27.8257 26.2956 29.3905 26.4722 30.8112 26.9978C36.0182 28.9242 39.0892 32.5699 39.8489 37.8415C40.0758 39.4157 39.9929 41.0392 39.9454 42.6371C39.9019 44.0989 38.6694 45.4176 37.128 45.8434C36.966 45.8882 36.8083 45.9474 36.6487 45.9999C25.5525 46 14.4563 46 3.36016 46ZM32.2051 44.6168C32.2294 44.5537 32.2588 44.5127 32.2591 44.4715C32.264 43.7233 32.2402 42.974 32.275 42.2273C32.3065 41.5518 32.1412 40.9675 31.6753 40.4425C31.2503 39.9637 31.0126 39.3946 30.9796 38.76C30.9197 37.6104 30.3759 37.1126 29.174 37.1125C23.1252 37.1121 17.0765 37.1124 11.0277 37.1125C10.8859 37.1125 10.7433 37.106 10.6026 37.1183C9.86181 37.1825 9.24943 37.7327 9.22572 38.4288C9.19621 39.2961 8.85799 40.016 8.26553 40.6612C8.06527 40.8791 7.83096 41.1629 7.81822 41.4257C7.76728 42.48 7.79716 43.5377 7.79716 44.6167C15.938 44.6168 24.0724 44.6168 32.2051 44.6168ZM9.8574 12.912C9.80721 12.9475 9.75714 12.9831 9.70695 13.0185C9.70695 13.6108 9.6811 14.2044 9.71553 14.7949C9.74075 15.2289 10.0737 15.4868 10.5694 15.548C11.4412 15.6555 11.8481 16.0501 11.9553 16.8752C11.9977 17.201 12.0403 17.529 12.1202 17.8477C12.9331 21.0952 15.8597 23.383 19.5259 23.6603C22.9737 23.921 27.5733 21.5527 28.0511 16.9326C28.1425 16.048 28.5326 15.6658 29.4736 15.5481C29.8992 15.495 30.2278 15.28 30.2652 14.8935C30.3255 14.2679 30.2814 13.6332 30.2814 13.0023C30.2411 12.9806 30.2007 12.959 30.1605 12.9373C29.9663 13.1521 29.7834 13.3776 29.5759 13.5802C28.3566 14.77 26.919 15.2292 25.1595 14.9382C21.7824 14.3796 18.3821 14.3444 15.0064 14.9259C13.097 15.2547 11.5655 14.7513 10.2796 13.4308C10.1239 13.2709 9.99738 13.0855 9.8574 12.912ZM27.4579 35.7297C27.4579 35.5408 27.4579 35.3794 27.4579 35.2179C27.4579 32.8374 27.4618 30.457 27.4502 28.0766C27.4493 27.8964 27.3823 27.5976 27.2701 27.5602C26.9853 27.4656 26.6725 27.3214 26.3506 27.5948C25.823 28.043 25.2564 28.4508 24.6963 28.8637C21.8903 30.932 18.3653 30.8902 15.6047 28.7601C15.0788 28.3543 14.5421 27.9604 14.0323 27.537C13.6369 27.2084 13.2501 27.4658 12.8754 27.5366C12.7938 27.5521 12.742 27.8919 12.7412 28.0826C12.7323 30.463 12.7354 32.8434 12.7354 35.2239C12.7354 35.3844 12.7354 35.545 12.7354 35.7297C17.6499 35.7297 22.5137 35.7297 27.4579 35.7297ZM11.2881 27.7744C10.6321 27.9739 10.0529 28.1574 9.46835 28.3247C9.16708 28.4109 9.05548 28.5665 9.06682 28.8778C9.09369 29.6106 9.08725 30.3452 9.06884 31.0784C9.0556 31.6057 8.64865 31.9219 8.17398 31.793C7.78392 31.6871 7.63713 31.4024 7.63524 31.0387C7.63234 30.4468 7.63448 29.8551 7.63448 29.2356C4.04619 31.0378 1.57421 35.2283 1.55075 38.5478C3.56042 38.5478 5.56983 38.5478 7.6336 38.5478C7.6336 37.6748 7.63347 36.8257 7.6336 35.9766C7.63373 35.4526 7.62238 34.9282 7.63827 34.4045C7.65226 33.9447 7.9321 33.6677 8.34712 33.6622C8.77249 33.6566 9.04236 33.9203 9.07048 34.3833C9.08322 34.5923 9.07502 34.8024 9.07527 35.0121C9.07578 35.39 9.0754 35.768 9.0754 36.1493C9.49912 36.0142 9.83369 35.8714 10.1843 35.8059C10.5451 35.7384 10.9214 35.7462 11.2878 35.7213C11.2881 33.0778 11.2881 30.4746 11.2881 27.7744ZM38.5023 38.5477C38.2258 34.1856 35.0815 30.5265 32.5928 29.3997C32.5928 32.4434 32.5928 35.4892 32.5928 38.5477C34.5738 38.5477 36.5207 38.5477 38.5023 38.5477ZM29.0134 12.1298C22.9931 10.5693 17.018 10.5686 10.9462 12.1455C11.3088 12.4724 11.5939 12.7489 11.9007 13.0017C12.5993 13.5771 13.42 13.7797 14.3223 13.6306C17.9867 13.0253 21.6605 12.9718 25.3201 13.5891C26.9165 13.8584 28.0324 13.2919 29.0134 12.1298ZM23.5675 24.382C21.179 25.277 18.8156 25.2688 16.4348 24.3836C16.4115 25.3621 16.0667 26.1361 15.3303 26.7289C18.6077 29.9597 22.2314 29.5456 24.9043 26.8768C24.0054 26.2922 23.6124 25.449 23.5675 24.382ZM1.48556 39.9733C1.48556 40.871 1.40043 41.7582 1.508 42.6239C1.63058 43.6112 2.29328 44.3396 3.32157 44.5219C4.27836 44.6917 5.27953 44.6355 6.24691 44.6783C6.49963 43.0597 5.86606 41.4289 6.95299 39.9734C5.10058 39.9732 3.3053 39.9733 1.48556 39.9733ZM38.5052 39.988C36.7188 39.988 34.9449 39.988 33.1285 39.988C34.1299 41.4704 33.4943 43.0992 33.7613 44.6331C34.5877 44.6331 35.391 44.67 36.1891 44.6244C37.3539 44.5578 38.3397 43.7836 38.4814 42.7026C38.5983 41.81 38.5052 40.8926 38.5052 39.988ZM28.9255 27.8075C28.9255 30.5164 28.9255 33.1241 28.9255 35.651C29.674 35.7946 30.3717 35.9286 31.0936 36.0671C31.071 36.1041 31.0994 36.0793 31.0995 36.0544C31.1049 33.6328 31.1114 31.2113 31.1013 28.7899C31.1008 28.6787 30.9748 28.508 30.8652 28.4673C30.2398 28.2348 29.6016 28.0334 28.9255 27.8075Z" fill="white"/>
<path d="M20.0042 8.11508C19.1536 8.11532 18.303 8.12275 17.4525 8.1134C16.3312 8.10118 15.6608 7.4601 15.6509 6.4052C15.6479 6.07597 15.6473 5.74674 15.6511 5.41763C15.6629 4.39413 16.3342 3.74166 17.4278 3.72704C18.6247 3.71099 19.8218 3.72285 21.019 3.72285C21.5546 3.72285 22.0905 3.70991 22.6255 3.72692C23.6847 3.76047 24.3452 4.41174 24.3568 5.41691C24.3611 5.79095 24.3659 6.16535 24.3542 6.53914C24.3267 7.41097 23.6617 8.05541 22.7447 8.11017C22.6975 8.11292 22.6502 8.11472 22.603 8.11484C21.7368 8.11496 20.8704 8.11496 20.0042 8.11508ZM19.9738 6.74952C20.5553 6.74952 21.1368 6.75647 21.7181 6.74809C23.1168 6.72808 22.9012 6.9641 22.9355 5.58357C22.9448 5.21001 22.8022 5.08817 22.4149 5.0926C21.0479 5.10829 19.6805 5.08769 18.3135 5.10158C16.8705 5.1162 17.1056 4.86173 17.0761 6.33236C17.0699 6.64062 17.1992 6.75803 17.5225 6.75324C18.3393 6.74114 19.1566 6.74928 19.9738 6.74952Z" fill="white"/>
</g>
<defs>
<clipPath id="clip0_6_21392">
<rect width="40" height="46" fill="white"/>
</clipPath>
</defs>
</svg>
