<svg width="30" height="32" viewBox="0 0 30 32" fill="none" xmlns="http://www.w3.org/2000/svg">
<g clip-path="url(#clip0_5_1968)">
<path d="M29.8365 30.162L21.0959 21.072C23.3249 18.8355 24.7065 15.753 24.7065 12.354C24.7065 5.54249 19.1654 0.00146484 12.3539 0.00146484C5.54244 0.00146484 0.00146484 5.54249 0.00146484 12.354C0.00146484 19.1655 5.54244 24.7065 12.3539 24.7065C15.3434 24.7065 18.0885 23.637 20.2275 21.864L28.989 30.9765C29.1045 31.0965 29.259 31.1565 29.4135 31.1565C29.5605 31.1565 29.7075 31.1025 29.8215 30.993C30.054 30.768 30.0615 30.396 29.8365 30.162ZM12.3525 23.5305C6.18898 23.5305 1.17599 18.5175 1.17599 12.354C1.17599 6.19049 6.18898 1.17746 12.3525 1.17746C18.516 1.17746 23.529 6.19049 23.529 12.354C23.529 18.516 18.516 23.5305 12.3525 23.5305Z" fill="#19305D"/>
</g>
<defs>
<clipPath id="clip0_5_1968">
<rect width="30" height="31.1565" fill="white"/>
</clipPath>
</defs>
</svg>
