<svg width="53" height="70" viewBox="0 0 53 70" fill="none" xmlns="http://www.w3.org/2000/svg">
<g clip-path="url(#clip0_5_3228)">
<path d="M9.01466 0C9.5616 0 10.1084 0 10.6553 0C10.8015 0.0514127 10.9456 0.110665 11.0945 0.152962C12.9798 0.686961 14.3021 1.84575 14.9102 3.72013C15.0821 4.25011 15.3063 4.39651 15.8498 4.39378C20.6777 4.37008 25.5057 4.38448 30.3338 4.37518C31.0525 4.37391 31.7181 4.51611 32.1744 5.08694C32.4417 5.4213 32.7227 5.48055 33.1059 5.47964C37.2962 5.47016 41.4867 5.47107 45.677 5.47509C47.2322 5.47654 48.0885 6.33142 48.0991 7.87781C48.1036 8.52721 48.0998 9.17662 48.0998 9.85428C48.6867 9.85428 49.1632 9.85428 49.64 9.85428C51.7661 9.85464 52.481 10.5602 52.481 12.6601C52.481 30.8564 52.4731 49.0526 52.4976 67.2487C52.4994 68.5637 52.0876 69.4939 50.8505 70C36.2672 70 21.6839 70 7.10054 70C4.97257 69.1774 5.57439 67.2831 5.45935 65.6201C4.86974 65.6201 4.32936 65.6203 3.7888 65.6201C1.85699 65.6197 1.09656 64.8646 1.09656 62.9437C1.0962 54.4734 1.0951 46.0029 1.10075 37.5325C1.10094 37.1344 1.0652 36.819 0.700208 36.5345C0.169126 36.1205 -0.000426308 35.4983 -0.000243994 34.8277C0.00249072 25.4464 -0.000973252 16.0652 0.00431387 6.68383C0.00504313 5.26652 0.894738 4.39378 2.3126 4.38102C3.03365 4.37464 3.75471 4.37992 4.47558 4.37992C4.83747 2.91029 5.53464 1.71576 6.77876 0.959703C7.4648 0.54275 8.26553 0.313763 9.01466 0ZM46.0491 53.7133C46.0491 53.3046 46.0491 53.0101 46.0491 52.7159C46.0491 41.1644 46.0489 29.6128 46.0497 18.0613C46.0497 17.8108 46.0334 17.5567 46.069 17.3108C46.1443 16.7899 46.5029 16.4234 46.9831 16.477C47.3428 16.5173 47.7414 16.82 47.98 17.1195C48.1455 17.3272 48.0956 17.7281 48.0958 18.0427C48.1005 29.7993 48.0918 41.5558 48.1111 53.3124C48.1131 54.5831 47.695 55.5864 46.7911 56.4743C44.1417 59.0766 41.516 61.7034 38.9115 64.3506C38.0391 65.2372 37.0501 65.6348 35.8049 65.6317C26.6685 65.6099 17.532 65.6199 8.39552 65.6199C8.12934 65.6199 7.86298 65.6199 7.58057 65.6199C7.58057 66.4337 7.58057 67.1692 7.58057 67.8986C21.8819 67.8986 36.1314 67.8986 50.3853 67.8986C50.3853 49.2231 50.3853 30.5978 50.3853 11.9573C49.6046 11.9573 48.8693 11.9573 48.093 11.9573C48.093 12.373 48.1193 12.7387 48.0872 13.0993C48.0311 13.7308 47.5849 14.1208 47.003 14.0887C46.4529 14.0584 46.0807 13.6601 46.0548 13.0428C46.0367 12.6107 46.0489 12.1771 46.0487 11.7443C46.0484 10.3615 46.0486 8.9788 46.0486 7.5666C41.5826 7.5666 37.1994 7.5666 32.7538 7.5666C32.7538 7.85484 32.7538 8.10133 32.7538 8.34763C32.7538 10.9679 32.7538 13.5879 32.7538 16.2081C32.7538 22.337 32.7549 28.466 32.7529 34.5949C32.7526 35.8428 32.3245 36.6323 31.3865 36.9531C30.9681 37.0963 30.4933 37.1205 30.0441 37.121C21.3862 37.1302 12.7282 37.1278 4.07029 37.1278C3.78351 37.1278 3.49691 37.1278 3.19099 37.1278C3.19099 45.9874 3.19099 54.7456 3.19099 63.5189C14.1999 63.5189 25.1652 63.5189 36.1864 63.5189C36.1864 63.2223 36.1864 62.9756 36.1864 62.7288C36.1868 60.4504 36.1746 58.1718 36.1925 55.8936C36.2029 54.5747 37.0716 53.7248 38.3892 53.7166C40.2118 53.7053 42.0345 53.7135 43.8573 53.7133C44.5591 53.7133 45.2601 53.7133 46.0491 53.7133ZM12.9649 4.3801C12.3574 2.74584 10.8781 1.84338 9.33025 2.07984C7.72989 2.32433 6.47848 3.61165 6.45661 5.25448C6.40647 9.01326 6.3979 12.7739 6.45952 16.5323C6.48997 18.3908 8.04566 19.7427 9.88868 19.71C11.6847 19.6783 13.097 18.2716 13.1377 16.4233C13.1692 14.9884 13.1556 13.5523 13.1434 12.1172C13.1366 11.3385 12.6934 10.8437 12.0311 10.8191C11.3572 10.7939 10.8467 11.3208 10.8216 12.1068C10.8002 12.7669 10.8278 13.4286 10.8108 14.0889C10.7937 14.7604 10.4249 15.162 9.84291 15.1842C9.23581 15.2074 8.79953 14.7954 8.77455 14.1068C8.74739 13.356 8.7339 12.601 8.7802 11.8519C8.89032 10.0645 10.3368 8.72265 12.0631 8.76349C13.8148 8.80506 15.1643 10.1761 15.192 11.9926C15.2155 13.5416 15.248 15.094 15.1725 16.6398C15.0635 18.8712 13.9213 20.4748 11.8777 21.3425C8.30856 22.8579 4.44477 20.2701 4.39226 16.3377C4.35142 13.2851 4.38333 10.2315 4.38278 7.17827C4.38278 6.93998 4.38278 6.7017 4.38278 6.47545C3.55161 6.47545 2.83329 6.47545 2.08707 6.47545C2.08707 16.0098 2.08707 25.4996 2.08707 35.0202C11.6289 35.0202 21.136 35.0202 30.6565 35.0202C30.6565 25.4724 30.6565 15.9819 30.6565 6.43078C30.3414 6.43078 30.0727 6.43078 29.8038 6.43078C23.219 6.43078 16.6339 6.43187 10.0491 6.42895C9.25313 6.42859 8.77601 6.03698 8.774 5.41128C8.772 4.78703 9.25532 4.38776 10.0435 4.38175C10.9968 4.37464 11.9507 4.3801 12.9649 4.3801ZM38.2575 61.7278C40.2326 59.753 42.25 57.7355 44.164 55.8218C42.3264 55.8218 40.2976 55.8218 38.2575 55.8218C38.2575 57.8755 38.2575 59.8721 38.2575 61.7278Z" fill="#19305D" fill-opacity="0.85"/>
<path d="M28.4054 46.0399C32.2329 46.0399 36.0603 46.0396 39.8878 46.0408C40.1381 46.0408 40.3912 46.0323 40.6384 46.064C41.1662 46.1316 41.4573 46.478 41.4985 46.9774C41.5403 47.4813 41.2898 47.864 40.7873 48.0098C40.5523 48.078 40.294 48.0875 40.0464 48.0877C32.3004 48.0915 24.5544 48.0915 16.8084 48.0875C16.5608 48.0873 16.3021 48.0767 16.0679 48.0064C15.5659 47.8558 15.3246 47.4709 15.3718 46.9654C15.4188 46.4631 15.7134 46.1264 16.2409 46.0616C16.4658 46.0339 16.6956 46.0408 16.9233 46.0408C20.7506 46.0396 24.5779 46.0399 28.4054 46.0399Z" fill="#19305D" fill-opacity="0.85"/>
<path d="M28.4993 40.5607C32.3039 40.5601 36.1082 40.5598 39.9128 40.5609C40.1405 40.5609 40.3696 40.5548 40.5953 40.5789C41.1565 40.6385 41.4694 40.9935 41.4993 41.5235C41.5293 42.0577 41.2422 42.44 40.6982 42.5574C40.4568 42.6095 40.201 42.609 39.9518 42.609C32.2745 42.6114 24.5972 42.611 16.92 42.6108C16.7832 42.6108 16.6461 42.6157 16.51 42.6074C15.8113 42.5651 15.3696 42.1758 15.3563 41.5955C15.3422 40.9873 15.7978 40.5665 16.5391 40.5651C20.526 40.557 24.5127 40.5612 28.4993 40.5607Z" fill="#19305D" fill-opacity="0.85"/>
<path d="M24.051 51.5181C26.4406 51.5181 28.8304 51.5175 31.22 51.519C31.4474 51.5192 31.6791 51.5071 31.901 51.5452C32.3839 51.6284 32.7495 51.9505 32.6937 52.4147C32.6495 52.7819 32.3819 53.1786 32.1002 53.4401C31.9265 53.6014 31.5402 53.564 31.2494 53.5644C26.4472 53.5708 21.6452 53.5699 16.8431 53.5662C16.5951 53.566 16.3371 53.5648 16.1016 53.4997C15.6002 53.3615 15.3364 52.989 15.3683 52.4824C15.402 51.9478 15.7122 51.6012 16.2682 51.5349C16.4706 51.5106 16.6773 51.5188 16.8819 51.5186C19.2717 51.5179 21.6614 51.5181 24.051 51.5181Z" fill="#19305D" fill-opacity="0.85"/>
<path d="M9.79854 51.528C10.1849 51.528 10.573 51.5032 10.957 51.5338C11.5369 51.5801 11.8727 51.9152 11.8975 52.5008C11.9229 53.0957 11.5836 53.4875 11.0262 53.5331C10.214 53.5993 9.38906 53.5964 8.5763 53.5335C8.01204 53.4899 7.69427 53.0788 7.68661 52.503C7.6795 51.9645 8.11013 51.5626 8.70794 51.528C9.07038 51.507 9.43501 51.5242 9.79854 51.5242C9.79854 51.5255 9.79854 51.5267 9.79854 51.528Z" fill="#19305D" fill-opacity="0.85"/>
<path d="M39.3688 16.2819C39.0051 16.2826 38.6407 16.2996 38.2782 16.2788C37.699 16.2456 37.3452 15.9342 37.2996 15.3481C37.2538 14.7587 37.5667 14.335 38.1275 14.2848C38.9606 14.2101 39.8097 14.2112 40.6436 14.2797C41.2055 14.326 41.5373 14.7568 41.4985 15.3302C41.4605 15.8926 41.1198 16.2476 40.5278 16.2777C40.1422 16.297 39.7552 16.2812 39.3688 16.2819Z" fill="#19305D" fill-opacity="0.85"/>
<path d="M39.3638 21.7582C39.0003 21.7586 38.636 21.773 38.2734 21.7553C37.7253 21.7287 37.3755 21.4397 37.3057 20.8897C37.232 20.3101 37.5004 19.8397 38.0672 19.7854C38.9421 19.7015 39.8356 19.7094 40.7124 19.7828C41.248 19.8279 41.5395 20.278 41.4982 20.8138C41.4548 21.3748 41.1169 21.7296 40.5224 21.7547C40.1368 21.771 39.7501 21.7577 39.3638 21.7582Z" fill="#19305D" fill-opacity="0.85"/>
<path d="M9.83057 46.0482C10.1941 46.0478 10.5586 46.0307 10.9208 46.0517C11.5006 46.0852 11.8548 46.3979 11.8958 46.9844C11.937 47.5714 11.6284 47.9926 11.061 48.0396C10.2275 48.1087 9.38007 48.1094 8.54635 48.0427C7.97898 47.9973 7.65392 47.5614 7.69457 46.9919C7.73468 46.4318 8.07889 46.0777 8.67214 46.0517C9.05756 46.0349 9.44425 46.0486 9.83057 46.0482Z" fill="#19305D" fill-opacity="0.85"/>
<path d="M39.3361 27.2384C38.9729 27.2384 38.6079 27.2609 38.2467 27.2333C37.6675 27.189 37.3244 26.8643 37.2982 26.2758C37.2717 25.6858 37.5893 25.2853 38.1591 25.2419C38.9713 25.1801 39.7942 25.1827 40.6074 25.2363C41.1807 25.274 41.516 25.6849 41.4992 26.2543C41.4826 26.816 41.1539 27.1898 40.5618 27.2306C40.155 27.2587 39.7448 27.2359 39.3363 27.2359C39.3361 27.2368 39.3361 27.2375 39.3361 27.2384Z" fill="#19305D" fill-opacity="0.85"/>
<path d="M9.80042 40.5718C10.1864 40.572 10.574 40.551 10.9581 40.5769C11.5071 40.6141 11.8447 40.9233 11.8934 41.475C11.9444 42.0547 11.666 42.5009 11.0898 42.5483C10.2347 42.6186 9.36615 42.6132 8.51 42.5499C7.96543 42.5096 7.66935 42.0744 7.69324 41.5423C7.71839 40.9815 8.04966 40.6136 8.64236 40.5762C9.02705 40.5519 9.41428 40.5716 9.80042 40.5718Z" fill="#19305D" fill-opacity="0.85"/>
<path d="M39.3772 32.7068C38.969 32.7068 38.5562 32.7443 38.1535 32.6976C37.6062 32.634 37.3063 32.2836 37.2966 31.729C37.287 31.1744 37.5743 30.7722 38.1187 30.7359C38.9757 30.6789 39.8434 30.6776 40.6997 30.7438C41.2485 30.7861 41.5241 31.2307 41.5001 31.7616C41.4774 32.2575 41.1941 32.6338 40.6689 32.6916C40.2432 32.7385 39.8084 32.7011 39.3776 32.7011C39.3772 32.7029 39.3772 32.7049 39.3772 32.7068Z" fill="#19305D" fill-opacity="0.85"/>
<path d="M16.3175 27.2524C13.6087 27.2524 10.9 27.2532 8.19119 27.2512C7.94123 27.251 7.68818 27.2553 7.44206 27.2196C6.91626 27.143 6.63148 26.7881 6.59666 26.2922C6.56148 25.789 6.82146 25.4132 7.32483 25.2718C7.53923 25.2116 7.77369 25.2045 7.99921 25.2043C13.576 25.2008 19.1528 25.2008 24.7297 25.2039C24.9555 25.2041 25.1896 25.2069 25.4055 25.2636C25.9114 25.3965 26.1656 25.7533 26.1446 26.2712C26.1236 26.7877 25.8474 27.1261 25.3289 27.2156C25.0846 27.2579 24.8301 27.2508 24.5802 27.251C21.8261 27.2532 19.0717 27.2524 16.3175 27.2524Z" fill="#19305D" fill-opacity="0.85"/>
<path d="M22.4125 16.2861C21.5476 16.286 20.6825 16.294 19.8178 16.2836C19.1044 16.275 18.6754 15.9088 18.6495 15.3148C18.6229 14.7046 19.0811 14.249 19.8005 14.2422C21.5301 14.226 23.2603 14.2267 24.9899 14.2415C25.7264 14.2477 26.1655 14.6727 26.1505 15.2969C26.1356 15.9277 25.7151 16.2774 24.9388 16.2845C24.0969 16.2923 23.2548 16.2863 22.4125 16.2861Z" fill="#19305D" fill-opacity="0.85"/>
<path d="M22.3459 21.7619C21.4812 21.7615 20.6161 21.7728 19.7518 21.7577C19.0892 21.7462 18.6756 21.3683 18.65 20.7954C18.624 20.2082 19.0562 19.7338 19.731 19.7245C21.5056 19.7001 23.281 19.7008 25.0558 19.7231C25.7468 19.7318 26.1638 20.1739 26.1505 20.7739C26.1368 21.3863 25.7306 21.7495 25.0086 21.7593C24.1211 21.7716 23.2334 21.7624 22.3459 21.7619Z" fill="#19305D" fill-opacity="0.85"/>
</g>
<defs>
<clipPath id="clip0_5_3228">
<rect width="52.4976" height="70" fill="white"/>
</clipPath>
</defs>
</svg>
