<svg width="68" height="70" viewBox="0 0 68 70" fill="none" xmlns="http://www.w3.org/2000/svg">
<g clip-path="url(#clip0_5_3221)">
<path d="M60.8414 70C41.7919 70 22.7425 70 3.69295 70C3.56898 69.9517 3.4481 69.8924 3.32067 69.8565C1.31958 69.293 0.0080112 67.6153 0.00637036 65.524C-0.00238073 54.2017 -0.00310999 42.8793 0.00819351 31.5568C0.00983434 29.9322 0.746567 28.6626 2.12231 27.8046C2.4802 27.5814 2.60326 27.3599 2.60381 26.9466C2.60709 24.6352 3.99013 23.2796 6.31974 23.2677C7.04043 23.2641 7.76112 23.2672 8.4778 23.2672C8.52502 23.0456 8.56658 22.9146 8.57971 22.7807C9.04771 18.0453 9.53249 13.3113 9.97022 8.57315C10.1879 6.21565 11.6585 4.98667 14.0161 5.22987C18.9078 5.73452 23.8026 6.21091 28.6965 6.69459C29.5016 6.77408 29.9588 7.1728 29.9111 7.78428C29.8604 8.43478 29.3187 8.76094 28.4936 8.67926C23.5317 8.18811 18.5693 7.70042 13.6061 7.22257C12.5569 7.12157 12.1071 7.4769 12.0019 8.5077C11.5469 12.9699 11.1084 17.4335 10.6654 21.8969C10.4953 23.6106 10.3294 25.3249 10.1622 27.0319C11.3733 27.2739 11.3981 27.2527 11.5088 26.1306C11.8681 22.4827 12.2296 18.8349 12.5928 15.1873C12.6907 14.2036 13.145 13.4606 14.0869 13.0785C15.24 12.6107 16.156 11.8645 16.8544 10.8335C17.4019 10.0257 18.1822 9.69785 19.153 9.79503C21.5771 10.0375 24.0021 10.2707 26.4263 10.5119C27.2276 10.5916 27.6704 11.0258 27.592 11.6369C27.5122 12.2597 27.0245 12.558 26.1979 12.4772C23.8865 12.2512 21.5745 12.0309 19.2653 11.7846C18.8269 11.7378 18.553 11.8452 18.2985 12.22C17.5263 13.358 16.49 14.2114 15.2229 14.7378C14.7418 14.9376 14.585 15.2293 14.5414 15.7013C14.3593 17.6737 14.1538 19.6438 13.9613 21.6154C13.785 23.421 13.6143 25.2272 13.4318 27.13C14.8515 27.13 16.2121 27.1038 17.5707 27.143C18.1148 27.1587 18.4272 26.9712 18.7304 26.5247C24.2555 18.3877 29.806 10.268 35.3256 2.12725C35.9856 1.15423 36.7185 0.344574 37.8727 0C38.2829 0 38.693 0 39.1032 0C39.5128 0.190883 39.9579 0.329807 40.327 0.580489C47.088 5.1719 53.8455 9.76859 60.5897 14.3848C62.1444 15.449 62.4883 17.3208 61.46 18.8984C60.6398 20.1569 59.7725 21.3848 58.9288 22.6281C58.8066 22.8081 58.6991 22.9981 58.5299 23.2721C58.8681 23.2721 59.0941 23.2608 59.3189 23.2739C60.9747 23.3711 62.2728 24.4352 62.5676 25.9926C62.6597 26.4788 62.5922 26.9931 62.6453 27.4894C62.6691 27.7129 62.7492 27.9922 62.9058 28.13C64.0644 29.1497 64.5464 30.4281 64.534 31.9519C64.5118 34.7081 64.5278 37.4645 64.5278 40.2209C64.5278 40.4634 64.5278 40.7059 64.5278 41.0051C64.8573 41.0051 65.1029 41.0029 65.3486 41.0054C66.9127 41.0209 67.8097 41.9079 67.8124 43.4654C67.8181 46.8823 67.8194 50.2995 67.8117 53.7164C67.8084 55.1921 66.9131 56.0887 65.4321 56.1295C65.1472 56.1374 64.8618 56.1306 64.528 56.1306C64.528 56.4788 64.528 56.7261 64.528 56.9734C64.5278 59.821 64.5406 62.6686 64.5231 65.516C64.5102 67.6095 63.2134 69.2817 61.2125 69.8547C61.0852 69.8912 60.9649 69.9511 60.8414 70ZM2.076 62.788C2.076 63.9692 1.97993 65.0883 2.11958 66.1772C2.18248 66.6673 2.62258 67.2529 3.05959 67.5138C3.5883 67.8297 4.29477 67.9752 4.92467 67.9761C23.1521 67.9991 41.3796 67.9949 59.607 67.9934C59.8801 67.9934 60.1552 67.9944 60.4258 67.9635C61.4112 67.8516 62.3483 67.0826 62.4429 66.1074C62.5472 65.0334 62.4666 63.9413 62.4666 62.7878C62.1326 62.7878 61.8416 62.7878 61.5507 62.7878C45.8523 62.7878 30.1539 62.7878 14.4555 62.7871C14.1822 62.7871 13.9062 62.7995 13.6366 62.7656C13.0734 62.6948 12.7766 62.326 12.7824 61.7891C12.7884 61.2518 13.0951 60.8919 13.6586 60.831C13.9292 60.8019 14.2048 60.8152 14.4781 60.8152C30.1765 60.8146 45.8749 60.8146 61.5733 60.8146C61.8628 60.8146 62.1521 60.8146 62.4701 60.8146C62.4701 59.2207 62.4701 57.7089 62.4701 56.1315C62.1561 56.1315 61.8872 56.1315 61.6185 56.1315C58.8387 56.1315 56.059 56.1496 53.2794 56.1273C48.1981 56.0867 44.6485 51.8028 45.6587 46.9564C46.3584 43.5998 49.387 41.0632 52.8269 41.0191C55.7884 40.981 58.7507 41.0073 61.7125 41.0051C61.9563 41.0049 62.2002 41.0051 62.5167 41.0051C62.5167 40.1821 62.5167 39.4361 62.5167 38.6902C62.5167 37.9252 62.5167 37.1601 62.5167 36.3991C42.2931 36.3991 22.1678 36.3991 2.06014 36.3991C2.06014 44.5551 2.06014 52.6542 2.06014 60.815C2.35969 60.815 2.60581 60.815 2.85194 60.815C4.31009 60.8154 5.76842 60.8075 7.22639 60.8192C7.95692 60.825 8.35966 61.1962 8.35401 61.8101C8.34835 62.4247 7.95346 62.7639 7.20779 62.7856C6.9119 62.7942 6.61545 62.7878 6.31919 62.788C4.91227 62.7882 3.50499 62.788 2.076 62.788ZM62.5169 34.2952C62.5169 33.5001 62.5176 32.7732 62.5167 32.0461C62.514 30.0106 61.6343 29.1262 59.6108 29.1262C41.3823 29.126 23.1538 29.126 4.92522 29.1264C4.69732 29.1264 4.46834 29.116 4.2419 29.1348C3.19232 29.2223 2.18576 30.0095 2.08658 31.0146C1.98047 32.0881 2.0627 33.1801 2.0627 34.2954C22.2035 34.2952 42.3134 34.2952 62.5169 34.2952ZM46.1325 27.1277C47.1994 27.1277 48.2009 27.1488 49.1998 27.1094C49.3963 27.1018 49.6411 26.9001 49.766 26.7202C50.9217 25.0555 52.0701 23.3851 53.1799 21.6896C53.329 21.4617 53.3733 21.0276 53.2588 20.7879C52.6448 19.5007 52.3547 18.1625 52.4898 16.7467C52.5328 16.2958 52.3784 16.0411 52.0152 15.7955C48.7141 13.5633 45.4211 11.3184 42.1349 9.06413C41.7925 8.82912 41.5174 8.79831 41.1387 8.99138C39.9143 9.61618 38.6002 9.86303 37.233 9.72757C36.7427 9.67907 36.4507 9.80906 36.1659 10.2295C32.4748 15.6779 28.7625 21.1124 25.0577 26.5517C24.9512 26.708 24.8675 26.8797 24.7242 27.1295C26.2704 27.1295 27.7041 27.1122 29.1371 27.1393C29.6137 27.1484 29.7446 26.9634 29.8042 26.5185C30.6086 20.5107 37.6926 17.4453 42.6206 20.9663C44.7044 22.4551 45.8371 24.5054 46.1325 27.1277ZM58.9282 54.1366C58.9282 54.1379 58.9282 54.1394 58.9282 54.1407C60.9541 54.1407 62.9804 54.1171 65.0055 54.1547C65.6268 54.1662 65.829 53.9999 65.8232 53.36C65.7935 50.1735 65.7898 46.9864 65.8252 43.8001C65.8328 43.1128 65.592 42.9726 64.9614 42.9768C61.1375 43.002 57.3133 42.9832 53.4892 42.9961C52.9239 42.9981 52.3438 43.026 51.7961 43.1531C49.0893 43.7814 47.2103 46.3533 47.4871 48.997C47.7952 51.9396 50.0781 54.0889 52.9872 54.131C54.9673 54.1598 56.9479 54.1366 58.9282 54.1366ZM20.7782 27.0416C21.7164 27.2664 22.3226 27.1189 22.8575 26.2885C24.4843 23.763 26.2161 21.3051 27.9081 18.8218C30.1515 15.5295 32.4007 12.2411 34.6368 8.94398C35.1918 8.12557 35.9209 7.62002 36.9216 7.73177C38.212 7.87598 39.4075 7.65411 40.5573 7.07161C41.3507 6.66961 42.1597 6.69586 42.895 7.1934C46.4397 9.59156 49.9764 12.0019 53.5066 14.4218C54.2407 14.925 54.5771 15.6708 54.4779 16.5512C54.3379 17.7939 54.5636 18.9503 55.1374 20.0504C55.6019 20.9412 55.5397 21.8008 54.9773 22.6287C54.3248 23.5889 53.6714 24.5486 53.0202 25.5098C52.6812 26.0103 52.3461 26.5134 51.9903 27.044C52.921 27.2666 53.5195 27.1144 54.0577 26.2828C55.8262 23.5507 57.7005 20.887 59.5335 18.1968C60.3076 17.0606 60.2157 16.5341 59.0983 15.7724C52.6087 11.3487 46.1183 6.92631 39.627 2.50537C38.4658 1.71449 37.9679 1.8164 37.165 2.9947C32.332 10.0871 27.4994 17.1799 22.6666 24.2724C22.0533 25.1722 21.4394 26.0721 20.7782 27.0416ZM31.7603 27.0752C35.8955 27.0752 39.9732 27.0752 44.0526 27.0752C43.9256 24.0655 41.1407 21.5049 38.0146 21.4704C34.7823 21.4347 31.9739 23.9306 31.7603 27.0752ZM60.6001 27.1072C60.6852 26.2121 60.4717 25.5705 59.834 25.4465C58.9804 25.2806 58.0836 25.3339 57.205 25.3063C57.1383 25.3043 57.0504 25.3964 57.0025 25.4657C56.6477 25.9791 56.3005 26.4976 55.8881 27.1072C57.5339 27.1072 59.0457 27.1072 60.6001 27.1072ZM8.30205 25.2868C7.48856 25.2868 6.72065 25.2629 5.95475 25.2928C4.97007 25.3313 4.45813 26.0739 4.71027 27.1298C5.30206 27.1298 5.91063 27.1298 6.51919 27.1298C8.19539 27.1298 8.19539 27.1299 8.30205 25.2868Z" fill="#19305D" fill-opacity="0.85"/>
<path d="M57.3092 48.5706C57.3061 50.8032 55.4919 52.6225 53.2731 52.6178C51.0582 52.613 49.2283 50.7777 49.2297 48.5622C49.2312 46.3372 51.0454 44.5352 53.2822 44.5369C55.5336 44.5383 57.3123 46.3201 57.3092 48.5706ZM53.2758 50.6019C54.402 50.603 55.3334 49.6831 55.3358 48.5677C55.338 47.4707 54.3829 46.5121 53.2829 46.5079C52.1663 46.5035 51.245 47.4309 51.2436 48.5607C51.2421 49.6991 52.14 50.6008 53.2758 50.6019Z" fill="#19305D" fill-opacity="0.85"/>
</g>
<defs>
<clipPath id="clip0_5_3221">
<rect width="67.817" height="70" fill="white"/>
</clipPath>
</defs>
</svg>
