<svg width="52" height="40" viewBox="0 0 52 40" fill="none" xmlns="http://www.w3.org/2000/svg">
<g clip-path="url(#clip0_6_21383)">
<path d="M0.000270867 13.0461C0.0517356 12.7072 0.0895216 12.3654 0.156832 12.0298C0.782535 8.90921 3.25081 6.83668 6.37459 6.83016C10.8424 6.82086 15.3104 6.82516 19.7782 6.83266C20.1304 6.83321 20.4082 6.76688 20.685 6.5032C21.2855 5.93115 22.0337 5.63846 22.8482 5.59433C23.2033 5.57504 23.4365 5.4339 23.6734 5.18854C25.1013 3.70888 26.5268 2.22616 27.9808 0.773561C29.4233 -0.667521 31.7578 0.000978067 32.2363 1.98316C32.4759 2.97529 32.1787 3.82615 31.4779 4.54225C30.0518 5.99943 28.6233 7.45425 27.2135 8.92781C27.0434 9.10558 26.9062 9.38453 26.8818 9.62989C26.7216 11.2418 25.9615 12.4263 24.4892 13.0172C23.044 13.5972 21.702 13.3063 20.5225 12.2524C20.3953 12.1387 20.2019 12.0417 20.0389 12.0409C17.5342 12.0283 15.0295 12.0327 12.5248 12.0353C12.4602 12.0353 12.3956 12.0607 12.3494 12.0703C12.3494 12.8102 12.3494 13.5315 12.3494 14.3208C12.5239 14.3208 12.7218 14.3208 12.9195 14.3208C15.8981 14.3208 18.8767 14.3098 21.8553 14.3244C24.2545 14.3362 26.1331 15.7602 26.644 18.0152C26.8095 18.746 26.784 19.5271 26.8046 20.2863C26.8295 21.2002 26.8104 22.1153 26.8104 23.0554C27.4359 23.0554 28.0051 23.0554 28.6404 23.0554C28.6404 22.8419 28.6404 22.6396 28.6404 22.4371C28.6404 18.5352 28.64 14.6333 28.6407 10.7314C28.6408 9.89177 28.8353 9.6904 29.6547 9.69012C33.5302 9.68887 37.4058 9.68193 41.2814 9.69206C44.3158 9.70011 46.6342 11.4451 47.5477 14.4078C48.4638 17.3789 49.363 20.3554 50.2593 23.3329C50.3373 23.5923 50.3692 23.876 50.3702 24.1484C50.3786 26.4885 50.3751 28.8285 50.3751 31.222C50.9375 31.322 51.5994 31.0643 52.0001 31.6744C52.0001 32.958 52.0001 34.2415 52.0001 35.5251C51.7785 35.9424 51.4268 36.049 50.981 36.0443C49.3227 36.0271 47.6642 36.0476 46.006 36.029C45.6683 36.0253 45.5229 36.1414 45.3652 36.4487C44.1853 38.7476 42.3231 40.0075 39.7752 39.9996C37.2306 39.9917 35.3701 38.7342 34.1994 36.4259C34.0552 36.1416 33.9122 36.0291 33.5929 36.0297C27.5687 36.0401 21.5444 36.0391 15.52 36.0322C15.2349 36.0319 15.0784 36.1062 14.9378 36.388C13.7729 38.7249 11.9041 39.9984 9.33625 39.9982C6.7691 39.9981 4.89958 38.7253 3.7316 36.3909C3.59197 36.1119 3.43988 36.0243 3.15154 36.0314C2.42426 36.0491 1.6959 36.0201 0.968892 36.0437C0.53415 36.0579 0.212902 35.9141 0 35.525C0 31.5356 0 27.5461 0 23.5568C0.249333 23.1195 0.652654 23.0779 1.09417 23.0783C6.28466 23.0838 11.4752 23.0822 16.6656 23.0805C16.8781 23.0805 17.0906 23.0616 17.3011 23.0515C17.3011 21.8495 17.3011 20.7028 17.3011 19.5239C17.0531 19.5239 16.8517 19.5239 16.6503 19.5239C13.1843 19.5239 9.71844 19.5323 6.25243 19.521C3.53346 19.5119 1.22473 17.8127 0.37962 15.1766C0.182158 14.5602 0.123109 13.8964 0.000270867 13.2542C0.000270867 13.1849 0.000270867 13.1155 0.000270867 13.0461ZM49.0012 24.3978C48.9372 24.0545 48.9133 23.7959 48.8399 23.5529C47.9758 20.6918 47.1065 17.8326 46.2343 14.9741C45.4705 12.4708 43.73 11.1502 41.1872 11.1476C37.6668 11.144 34.1465 11.1466 30.626 11.1466C30.4484 11.1466 30.2709 11.1466 30.1027 11.1466C30.1027 17.8924 30.1027 24.5579 30.1027 31.25C31.3426 31.25 32.5429 31.2615 33.7425 31.2347C33.8852 31.2316 34.0804 31.0478 34.1544 30.8977C34.621 29.9519 35.2447 29.1467 36.0775 28.5158C39.2083 26.1436 43.6276 27.2387 45.3803 30.8137C45.4615 30.9793 45.6175 31.2254 45.745 31.2295C46.8033 31.2631 47.8629 31.2485 48.9534 31.2485C48.9534 30.7815 48.9534 30.3847 48.9534 29.988C48.9534 29.577 48.9534 29.1662 48.9534 28.7763C48.8578 28.746 48.8262 28.7273 48.7944 28.7271C47.8129 28.722 46.8313 28.7242 45.8499 28.7133C45.1376 28.7054 44.9049 28.4633 44.9007 27.7425C44.8962 26.9795 44.8983 26.2164 44.9 25.4532C44.9019 24.6276 45.121 24.4002 45.9198 24.3983C46.915 24.3961 47.9103 24.3978 49.0012 24.3978ZM1.4486 31.1871C1.50358 31.213 1.5327 31.2385 1.56223 31.2388C2.06956 31.2445 2.57852 31.2242 3.08396 31.2583C3.44245 31.2825 3.60077 31.139 3.76627 30.8154C4.93466 28.5304 6.79267 27.2874 9.31268 27.2777C11.8565 27.2679 13.7269 28.5205 14.9074 30.8202C15.0762 31.1488 15.2424 31.259 15.593 31.2581C19.7722 31.2463 23.9513 31.2504 28.1305 31.2504C28.2918 31.2504 28.453 31.2504 28.6114 31.2504C28.6114 28.9785 28.6114 26.7845 28.6114 24.5753C19.539 24.5753 10.4961 24.5753 1.4486 24.5753C1.4486 26.8069 1.4486 29.0022 1.4486 31.1871ZM39.7774 28.7167C37.1245 28.7203 34.9624 30.9378 34.9714 33.6456C34.9803 36.3457 37.1225 38.5519 39.7399 38.5566C42.4399 38.5615 44.5835 36.3839 44.5895 33.6304C44.5953 30.9193 42.4349 28.7131 39.7774 28.7167ZM4.53391 33.6516C4.54393 36.3847 6.69272 38.5749 9.34573 38.5565C12.0421 38.5377 14.1515 36.3418 14.1332 33.5728C14.1154 30.8828 11.9619 28.7098 9.32121 28.7172C6.66089 28.7246 4.52375 30.9275 4.53391 33.6516ZM6.1778 18.0661C8.79004 18.0908 10.9478 15.9189 10.9686 13.244C10.9899 10.5145 8.84638 8.29039 6.19107 8.28679C3.61174 8.28332 1.44982 10.4655 1.42381 13.0985C1.39673 15.8439 3.49906 18.0409 6.1778 18.0661ZM25.3884 23.0564C25.3884 21.7715 25.3991 20.5117 25.3859 19.2521C25.3658 17.322 23.9277 15.8437 22.0841 15.8386C20.2307 15.8336 18.8008 17.2897 18.7737 19.2309C18.7577 20.374 18.7689 21.5174 18.7718 22.6608C18.7722 22.7925 18.7979 22.9241 18.812 23.0564C21.0121 23.0564 23.1712 23.0564 25.3884 23.0564ZM33.5807 34.5517C33.5807 33.9279 33.5807 33.3447 33.5807 32.7422C27.5699 32.7422 21.5614 32.7422 15.5491 32.7422C15.5491 33.3589 15.5491 33.9409 15.5491 34.5517C21.5641 34.5517 27.559 34.5517 33.5807 34.5517ZM19.399 8.32606C16.3911 8.32606 13.344 8.32606 10.329 8.32606C10.7725 8.94918 11.2381 9.54038 11.6282 10.1799C11.8047 10.4694 11.9618 10.5844 12.293 10.5822C14.525 10.5672 16.7571 10.5748 18.9891 10.5732C19.1469 10.573 19.3047 10.5568 19.399 10.5515C19.399 9.76534 19.399 9.04674 19.399 8.32606ZM25.4061 9.42241C25.4073 8.10526 24.3885 7.04513 23.1033 7.02653C21.827 7.00821 20.7422 8.12469 20.7565 9.44184C20.7709 10.7533 21.8144 11.8051 23.0963 11.8004C24.3833 11.7958 25.4049 10.7439 25.4061 9.42241ZM18.5148 15.7779C18.4004 15.7779 18.238 15.7779 18.0756 15.7779C16.3356 15.7779 14.5946 15.8118 12.8559 15.7613C12.1621 15.7412 11.7173 15.8887 11.3929 16.5794C11.1418 17.1144 10.6803 17.5456 10.2787 18.0663C12.6258 18.0663 14.9215 18.0681 17.2174 18.0599C17.3131 18.0596 17.457 17.9904 17.4965 17.9106C17.8427 17.2133 18.1702 16.5065 18.5148 15.7779ZM26.6715 7.39444C27.8344 6.20538 29.1989 4.83327 30.5354 3.43299C31.1382 2.80126 30.9364 1.84188 30.1711 1.55211C29.6739 1.36393 29.2524 1.51728 28.8828 1.8992C27.6079 3.21677 26.3245 4.52573 25.0456 5.83928C24.9928 5.89354 24.953 5.96126 24.907 6.02274C24.9897 5.95446 25.0723 5.88618 25.1549 5.8179C25.6488 6.33139 26.1426 6.84473 26.6715 7.39444ZM45.9988 34.5419C47.5315 34.5419 49.0412 34.5419 50.5515 34.5419C50.5515 33.9203 50.5515 33.3378 50.5515 32.7409C49.0131 32.7409 47.5017 32.7409 45.9988 32.7409C45.9988 33.3579 45.9988 33.9411 45.9988 34.5419ZM48.9312 25.8874C48.0361 25.8874 47.2008 25.8874 46.3432 25.8874C46.3432 26.344 46.3432 26.7681 46.3432 27.2253C47.2159 27.2253 48.0665 27.2253 48.9312 27.2253C48.9312 26.7669 48.9312 26.3411 48.9312 25.8874ZM3.11578 34.555C3.11578 33.9233 3.11578 33.3304 3.11578 32.7474C2.53708 32.7474 1.99114 32.7474 1.44941 32.7474C1.44941 33.3685 1.44941 33.9493 1.44941 34.555C2.00916 34.555 2.54236 34.555 3.11578 34.555Z" fill="white"/>
<path d="M38.9006 21.2639C36.9054 21.2639 34.9102 21.2651 32.9148 21.2633C32.1093 21.2626 31.892 21.04 31.8916 20.2191C31.8906 18.14 31.8899 16.0608 31.892 13.9816C31.8929 13.2502 32.1131 13.0219 32.8301 13.0212C35.6708 13.0183 38.5114 13.0133 41.3521 13.023C42.8562 13.0282 43.9665 13.8617 44.4271 15.3316C44.9174 16.8959 45.3849 18.4676 45.8579 20.0375C46.1118 20.8795 45.8408 21.2615 44.9878 21.2628C42.9587 21.2661 40.9297 21.2639 38.9006 21.2639ZM33.3371 19.767C36.9991 19.767 40.6222 19.767 44.285 19.767C43.8942 18.468 43.5209 17.2115 43.1375 15.9584C42.8051 14.8721 42.2788 14.4792 41.1614 14.4779C38.7075 14.4751 36.2537 14.4765 33.7998 14.4781C33.6527 14.4783 33.5056 14.4947 33.3371 14.5048C33.3371 16.2659 33.3371 17.9945 33.3371 19.767Z" fill="white"/>
<path d="M39.7721 36.6829C38.1305 36.6781 36.799 35.3135 36.8008 33.6377C36.8025 31.9615 38.1394 30.5925 39.7748 30.5919C41.4479 30.5914 42.7692 31.9515 42.762 33.6673C42.7551 35.3479 41.4265 36.6878 39.7721 36.6829ZM39.8111 35.2252C40.6642 35.2152 41.3457 34.5019 41.3392 33.6258C41.3327 32.7469 40.6474 32.0516 39.7867 32.0508C38.9127 32.0499 38.202 32.7917 38.228 33.6777C38.2539 34.5539 38.9508 35.2352 39.8111 35.2252Z" fill="white"/>
<path d="M12.3058 33.6356C12.3112 35.3275 11.0039 36.6761 9.35216 36.6826C7.69581 36.6892 6.37966 35.3635 6.36152 33.67C6.3431 31.9625 7.68226 30.5798 9.34336 30.5915C10.9994 30.6032 12.3004 31.94 12.3058 33.6356ZM10.8828 33.6562C10.8892 32.7688 10.2262 32.0676 9.36543 32.0512C8.4824 32.0342 7.78357 32.7413 7.78777 33.6474C7.79196 34.5338 8.4652 35.2224 9.33008 35.225C10.1917 35.2275 10.8765 34.5357 10.8828 33.6562Z" fill="white"/>
<path d="M6.17172 16.1929C4.54827 16.1869 3.24622 14.8417 3.25001 13.1744C3.2538 11.5251 4.5866 10.1597 6.19298 10.1596C7.80342 10.1595 9.13758 11.5221 9.13961 13.1692C9.14191 14.8621 7.82969 16.199 6.17172 16.1929ZM6.21885 14.7343C7.05854 14.7239 7.72148 14.034 7.71674 13.1757C7.712 12.3301 7.02089 11.6223 6.19921 11.6218C5.35505 11.6212 4.65513 12.3544 4.67314 13.2204C4.69089 14.0719 5.37794 14.7447 6.21885 14.7343Z" fill="white"/>
<path d="M22.765 18.858C22.7643 19.0821 22.7843 19.3086 22.7599 19.5299C22.7184 19.9059 22.4929 20.1191 22.1259 20.1452C21.7609 20.1712 21.459 19.9993 21.4164 19.6319C21.3575 19.1242 21.3581 18.6005 21.4062 18.0909C21.441 17.7218 21.7387 17.5242 22.0954 17.541C22.4721 17.5587 22.7244 17.7809 22.7622 18.1857C22.7828 18.4079 22.7658 18.6339 22.765 18.858Z" fill="white"/>
</g>
<defs>
<clipPath id="clip0_6_21383">
<rect width="52" height="40" fill="white"/>
</clipPath>
</defs>
</svg>
