<svg width="28" height="36" viewBox="0 0 28 36" fill="none" xmlns="http://www.w3.org/2000/svg">
<g clip-path="url(#clip0_5_3119)">
<path d="M14.751 0C15.152 0.065 15.554 0.128 15.955 0.195C19.87 0.843 22.933 2.847 25.18 6.085C26.389 7.828 27.12 9.782 27.398 11.896C27.894 15.68 26.956 19.091 24.694 22.139C21.347 26.65 17.974 31.141 14.622 35.648C14.442 35.89 14.255 35.956 13.963 35.989C13.366 36.057 13.027 35.813 12.678 35.342C9.45498 30.987 6.20898 26.649 2.95898 22.314C1.53098 20.409 0.553977 18.31 0.180977 15.951C-0.329023 12.724 0.237977 9.687 1.87498 6.861C3.39798 4.235 5.57998 2.334 8.35198 1.116C9.66698 0.537997 11.052 0.210004 12.48 0.0630035C12.582 0.0530035 12.682 0.022 12.782 0C13.439 0 14.095 0 14.751 0Z" fill="#032D6E"/>
<circle cx="14" cy="13" r="5" fill="white"/>
</g>
<defs>
<clipPath id="clip0_5_3119">
<rect width="27.527" height="36" fill="white"/>
</clipPath>
</defs>
</svg>
