<svg width="46" height="46" viewBox="0 0 46 46" fill="none" xmlns="http://www.w3.org/2000/svg">
<g clip-path="url(#clip0_6_22153)">
<path d="M23.4502 -1.95564e-05C24.3605 0.216704 25.1832 0.575702 25.7933 1.32559C27.0534 2.87421 26.8656 5.06997 25.326 6.35234C25.076 6.56053 24.9878 6.76255 24.9986 7.07247C25.0204 7.69974 25.0052 8.32824 25.0052 9.01322C25.2164 9.02243 25.4053 9.03781 25.5941 9.03781C30.2286 9.03916 34.8632 9.0377 39.4976 9.04174C39.7977 9.04197 40.1076 9.0432 40.3963 9.11237C41.2351 9.31315 41.7886 10.0758 41.7646 10.9432C41.7408 11.8031 41.1331 12.5266 40.2775 12.6784C39.983 12.7306 39.6776 12.7287 39.3767 12.7382C39.0766 12.7476 38.7759 12.7402 38.4091 12.7402C38.4821 12.92 38.5307 13.0538 38.5897 13.1828C40.6449 17.6752 42.7023 22.1667 44.7544 26.6605C44.8596 26.8908 44.9664 27.0277 45.261 27.0688C45.8468 27.1506 46.1682 27.759 45.9102 28.2991C45.4911 29.1766 45.0637 30.0551 44.5645 30.8888C44.0333 31.7763 43.1711 32.1074 42.1438 32.1042C38.7925 32.0937 35.4411 32.1005 32.0898 32.0999C31.9692 32.0999 31.8484 32.0958 31.7278 32.0894C30.7992 32.0398 30.0667 31.6266 29.607 30.8345C29.1414 30.0322 28.727 29.1986 28.3249 28.3624C28.0278 27.7448 28.3502 27.1883 29.0159 27.0363C29.1609 27.0032 29.3412 26.8818 29.4003 26.7536C31.5029 22.1841 33.5933 17.609 35.684 13.0339C35.7193 12.9568 35.7372 12.8718 35.7725 12.7612C32.1821 12.7612 28.6254 12.7612 25.005 12.7612C25.005 13.4128 25.005 14.0514 25.005 14.69C25.005 14.7649 25.0053 14.8397 25.0049 14.9146C25.002 15.5622 24.7743 15.8888 24.3279 15.8862C23.8809 15.8836 23.6433 15.5485 23.6419 14.9097C23.6399 14.0561 23.6395 13.2027 23.642 12.3492C23.6442 11.6021 23.858 11.3871 24.6111 11.3868C29.5626 11.3853 34.5142 11.3865 39.4657 11.3842C39.6604 11.384 39.893 11.4177 40.0396 11.327C40.1998 11.2278 40.368 11.0025 40.3684 10.8318C40.3688 10.6921 40.1497 10.5109 39.9868 10.4247C39.8553 10.3552 39.6622 10.3954 39.4965 10.3954C34.5902 10.3945 29.684 10.3949 24.7777 10.3945C23.8143 10.3945 23.6431 10.2227 23.641 9.26801C23.6395 8.60942 23.6346 7.95071 23.629 7.29212C23.6287 7.26674 23.6036 7.2417 23.5819 7.20105C23.2012 7.20105 22.813 7.20105 22.3507 7.20105C22.3507 7.42664 22.3507 7.65875 22.3507 7.89097C22.3506 8.44502 22.3587 8.99918 22.348 9.55301C22.3369 10.1245 22.0919 10.3648 21.5171 10.3928C21.3816 10.3995 21.2454 10.3946 21.1095 10.3946C16.2788 10.3946 11.4479 10.3946 6.61719 10.3947C6.48134 10.3947 6.34549 10.3954 6.20963 10.3955C5.86841 10.3955 5.5984 10.4995 5.60078 10.893C5.60304 11.2601 5.86886 11.3621 6.18257 11.383C6.31786 11.392 6.45417 11.386 6.59002 11.386C11.4812 11.3861 16.3723 11.3858 21.2635 11.3862C22.175 11.3863 22.3503 11.5591 22.3505 12.456C22.3507 20.7364 22.3506 29.0167 22.3506 37.2971C22.3506 37.4893 22.3506 37.6814 22.3506 37.9063C22.7828 37.9063 23.1809 37.9063 23.6413 37.9063C23.6413 37.7169 23.6413 37.5279 23.6413 37.3389C23.6413 31.1698 23.6408 25.0007 23.6432 18.8316C23.6433 18.6386 23.6441 18.4385 23.6925 18.254C23.7844 17.9027 24.0381 17.7351 24.4032 17.7709C24.7485 17.8048 24.9482 18.0106 24.99 18.3493C25.0118 18.5267 25.0045 18.708 25.0045 18.8875C25.005 25.0417 25.0049 31.1957 25.0049 37.3499C25.0049 37.5264 25.0049 37.703 25.0049 37.9393C25.211 37.9393 25.3714 37.9393 25.5318 37.9393C26.9055 37.9393 28.2794 37.9353 29.6531 37.9406C31.2349 37.9466 32.116 38.8248 32.1247 40.3938C32.1263 40.6767 32.1249 40.9595 32.1249 41.3037C32.4749 41.3037 32.787 41.2979 33.099 41.3047C34.4933 41.3354 35.3754 42.2149 35.3964 43.5995C35.4046 44.1384 35.4086 44.6779 35.3939 45.2165C35.3798 45.7368 35.1256 45.9761 34.6037 45.9973C34.4982 46.0016 34.3923 45.9983 34.2867 45.9983C26.7537 45.9983 19.2207 45.9984 11.6877 45.9983C10.7792 45.9983 10.5969 45.8192 10.5964 44.9275C10.596 44.4633 10.5864 43.9988 10.5991 43.535C10.635 42.2235 11.5082 41.3505 12.8245 41.3063C13.1529 41.2953 13.482 41.3046 13.8693 41.3046C13.8693 40.9479 13.8661 40.6384 13.8699 40.3291C13.8879 38.8417 14.7713 37.9547 16.2704 37.942C17.6592 37.9303 19.0481 37.9393 20.437 37.9393C20.6005 37.9393 20.7641 37.9393 20.9584 37.9393C20.9584 29.5357 20.9584 21.1736 20.9584 12.7756C17.3879 12.7756 13.8219 12.7756 10.2084 12.7756C10.273 12.9303 10.3248 13.0653 10.3849 13.1965C12.4331 17.6757 14.4835 22.1539 16.5275 26.635C16.6394 26.8802 16.7538 27.0255 17.0631 27.0723C17.6466 27.1604 17.9504 27.7677 17.6866 28.3203C17.2676 29.1981 16.8434 30.0793 16.338 30.9091C15.8119 31.7728 14.9611 32.1082 13.9499 32.1035C11.5497 32.0923 9.1494 32.1 6.74909 32.1C5.76788 32.1 4.78656 32.0922 3.80535 32.1017C2.59286 32.1135 1.73358 31.5712 1.19322 30.5064C0.847583 29.8252 0.492212 29.1489 0.154048 28.4641C-0.203588 27.7398 0.0732149 27.2237 0.862527 27.0261C1.01808 26.9871 1.17194 26.7799 1.24801 26.6147C3.13129 22.5209 5.00415 18.4225 6.8786 14.3249C7.10797 13.8235 7.33632 13.3216 7.6035 12.736C7.07978 12.736 6.62184 12.7499 6.16491 12.7335C4.7578 12.6828 3.8683 11.4714 4.34311 10.2394C4.60655 9.5557 5.12087 9.15111 5.86422 9.06588C6.08827 9.04017 6.31616 9.03972 6.54225 9.03961C11.1466 9.03826 15.7509 9.0386 20.3552 9.0386C20.5478 9.0386 20.7402 9.0386 20.9875 9.0386C20.9875 8.24379 20.9942 7.50042 20.9794 6.75738C20.9774 6.66047 20.8849 6.54212 20.8013 6.47362C19.6071 5.49589 19.1114 4.249 19.4868 2.75787C19.87 1.23531 20.9119 0.34191 22.4684 0.0456833C22.4956 0.0405179 22.519 0.0154768 22.5442 -0.000244141C22.8463 -1.95564e-05 23.1483 -1.95564e-05 23.4502 -1.95564e-05ZM8.88992 13.1895C6.75701 17.8496 4.66916 22.4112 2.56036 27.0187C6.81237 27.0187 10.9834 27.0187 15.2166 27.0187C13.1117 22.4175 11.0228 17.8516 8.88992 13.1895ZM30.7793 27.0157C35.013 27.0157 39.1841 27.0157 43.4333 27.0157C41.3209 22.4017 39.2302 17.835 37.104 13.1906C34.9694 17.8568 32.8807 22.4224 30.7793 27.0157ZM30.7596 41.3034C30.7596 41.0292 30.7596 40.8361 30.7596 40.6432C30.7596 39.4828 30.5651 39.2917 29.3828 39.2916C25.2465 39.2914 21.1101 39.313 16.974 39.2813C15.236 39.2681 15.1917 39.5587 15.2436 41.1371C15.2449 41.1776 15.2757 41.2173 15.3129 41.3046C15.8841 41.3046 16.4693 41.2964 17.0542 41.3072C17.5259 41.3158 17.8155 41.5659 17.8306 41.947C17.8464 42.3489 17.5536 42.6208 17.0621 42.6545C16.9419 42.6628 16.8206 42.6572 16.6999 42.6572C15.4319 42.6576 14.1638 42.6517 12.8958 42.661C12.3373 42.6651 12.0219 42.9264 11.9743 43.4441C11.9391 43.8261 11.9674 44.214 11.9674 44.6084C19.3429 44.6084 26.6807 44.6084 34.0374 44.6084C34.0374 44.3446 34.0375 44.1206 34.0374 43.8965C34.0369 42.883 33.8098 42.6575 32.7864 42.6574C28.7709 42.6571 24.7554 42.658 20.7398 42.6553C20.5453 42.6551 20.3455 42.648 20.1577 42.6039C19.8214 42.5251 19.6403 42.2863 19.6566 41.9494C19.6737 41.5944 19.8811 41.3687 20.2464 41.3212C20.4101 41.3 20.5777 41.3041 20.7435 41.3039C23.8835 41.303 27.0235 41.3033 30.1634 41.3033C30.3405 41.3034 30.5177 41.3034 30.7596 41.3034ZM1.65263 28.4017C1.90792 28.9037 2.14725 29.3338 2.34877 29.7805C2.66395 30.4793 3.18405 30.7678 3.95796 30.7577C5.97823 30.7315 7.99906 30.7489 10.0197 30.7489C11.3316 30.7489 12.6435 30.7452 13.9552 30.7506C14.4319 30.7525 14.883 30.6586 15.1417 30.238C15.4981 29.6585 15.7973 29.0443 16.1444 28.4017C11.2836 28.4017 6.50693 28.4017 1.65263 28.4017ZM44.3401 28.4223C39.4832 28.4223 34.7015 28.4223 29.8768 28.4223C30.1227 28.9041 30.3651 29.3335 30.5652 29.7815C30.879 30.4838 31.4015 30.767 32.1741 30.7576C34.2547 30.7323 36.3358 30.749 38.4167 30.7489C39.6833 30.7489 40.95 30.745 42.2166 30.7501C42.7371 30.7522 43.1766 30.5873 43.4398 30.1295C43.7513 29.5878 44.0248 29.0246 44.3401 28.4223ZM22.9834 5.84883C24.2032 5.85343 25.2521 4.84224 25.2619 3.65217C25.2725 2.38383 24.2475 1.34782 22.9886 1.35445C21.7444 1.36096 20.7348 2.37687 20.7324 3.62466C20.7301 4.81967 21.767 5.84411 22.9834 5.84883Z" fill="white"/>
</g>
<defs>
<clipPath id="clip0_6_22153">
<rect width="46" height="46" fill="white"/>
</clipPath>
</defs>
</svg>
