<svg width="200" height="200" viewBox="0 0 200 200" fill="none" xmlns="http://www.w3.org/2000/svg">
<path fill-rule="evenodd" clip-rule="evenodd" d="M31.7105 8.82358H168.244L168.347 156.482L168.311 157.772L168.218 159.072L168.067 160.347L167.861 161.593L167.597 162.811L167.271 164L166.887 165.159L166.436 166.288L165.924 167.385L165.348 168.444L164.708 169.467L164.002 170.45L163.236 171.39L162.407 172.283L161.52 173.132L160.578 173.931L159.581 174.681L158.533 175.378L157.436 176.027L156.293 176.624L155.107 177.171L153.878 177.669L152.609 178.122L151.3 178.527L149.952 178.888L148.564 179.205L147.137 179.479L145.674 179.712L144.171 179.905L142.629 180.059L141.047 180.174L139.365 180.253H120.747L120.063 180.291L119.276 180.348L118.498 180.417L117.726 180.498L116.964 180.591L116.214 180.697L115.474 180.812L114.751 180.942L114.039 181.084L113.346 181.237L112.674 181.401L112.017 181.578L111.383 181.767L110.773 181.965L110.186 182.173L109.622 182.392L109.087 182.622L108.579 182.859L108.1 183.102L107.65 183.353L107.178 183.71C104.588 185.589 101.895 189.111 99.9761 191.175C98.0482 189.058 95.7479 185.685 93.4196 183.704L93.0886 183.444L92.74 183.195L92.3727 182.955L91.9857 182.723L91.581 182.5L91.1566 182.287L90.7125 182.083L90.2488 181.888L89.7652 181.701L89.263 181.525L88.7411 181.359L88.2006 181.203L87.6413 181.059L87.0644 180.923L86.4699 180.8L85.8587 180.686L85.23 180.585L84.5856 180.493L83.9257 180.415L83.2513 180.348L82.5623 180.291L81.9813 180.253H61.543L60.0292 180.227L58.4967 180.148L56.9891 180.014L55.5095 179.831L54.0569 179.594L52.6344 179.306L51.243 178.968L49.8837 178.579L48.5587 178.141L47.269 177.653L46.0156 177.113L44.8017 176.528L43.6282 175.894L42.4982 175.211L41.4119 174.484L40.3722 173.71L39.3813 172.889L38.4413 172.026L37.5542 171.12L36.721 170.174L35.9459 169.187L35.23 168.162L34.5742 167.1L33.9807 166.004L33.4526 164.873L32.9898 163.714L32.5935 162.526L32.2656 161.31L32.0062 160.07L31.8163 158.809L31.6514 156.276L31.7105 8.82358Z" fill="white"/>
<path fill-rule="evenodd" clip-rule="evenodd" d="M103.766 180.163L103.438 180.418L103.115 180.679L102.803 180.945L102.497 181.213L102.197 181.484L101.904 181.758L101.616 182.034L101.333 182.314L101.055 182.593L100.781 182.873L100.511 183.154L100.247 183.434L100.113 183.578L99.9446 183.38L99.7101 183.106L99.4715 182.83L99.2287 182.556L98.9817 182.282L98.7296 182.008L98.4723 181.737L98.2108 181.465L97.9421 181.197L97.6681 180.929L97.387 180.666L97.0985 180.404L96.7416 180.092L96.2207 179.686L95.7019 179.316L95.1655 178.965L94.6114 178.633L94.0397 178.319L93.4535 178.023L92.8496 177.743L92.2312 177.484L91.5972 177.239L90.9488 177.011L90.2847 176.801L89.6082 176.606L88.9182 176.425L88.2147 176.261L87.4988 176.113L86.7704 175.979L86.0306 175.86L85.2794 175.752L84.5178 175.66L83.7448 175.584L82.9615 175.519L82.1615 175.466H61.5883L60.2125 175.443L58.8678 175.374L57.5521 175.259L56.2666 175.099L55.0132 174.895L53.792 174.648L52.6039 174.36L51.4512 174.03L50.3337 173.66L49.2536 173.25L48.2108 172.802L47.2064 172.317L46.2425 171.797L45.3201 171.239L44.4392 170.65L43.6008 170.025L42.8061 169.369L42.0569 168.68L41.3534 167.963L40.6956 167.212L40.0855 166.436L39.5231 165.632L39.0085 164.799L38.5447 163.942L38.1307 163.056L37.7676 162.146L37.4552 161.212L37.1959 160.253L36.9904 159.271L36.8483 158.325L36.7051 156.132L36.7621 53.8287H163.189L163.193 156.447L163.177 158.649L163.053 159.715L162.883 160.742L162.668 161.731L162.407 162.683L162.103 163.598L161.752 164.477L161.359 165.32L160.919 166.128L160.435 166.902L159.903 167.644L159.325 168.35L158.703 169.024L158.033 169.664L157.313 170.272L156.548 170.848L155.733 171.391L154.872 171.901L153.96 172.378L152.999 172.822L151.99 173.231L150.931 173.608L149.825 173.951L148.67 174.259L147.467 174.535L146.217 174.775L144.915 174.982L143.568 175.154L142.171 175.292L140.726 175.398L139.236 175.469H120.591L119.714 175.517L118.844 175.582L117.981 175.656L117.122 175.748L116.269 175.851L115.422 175.969L114.585 176.102L113.758 176.251L112.941 176.413L112.137 176.591L111.344 176.784L110.566 176.995L109.805 177.22L109.059 177.463L108.329 177.722L107.618 177.998L106.929 178.294L106.258 178.606L105.61 178.936L104.772 179.404L104.039 179.957L103.766 180.163ZM128.517 126.83L144.249 149.298C145.255 150.735 144.832 152.783 143.309 153.849L121.155 169.362C119.633 170.428 117.562 170.124 116.556 168.688L100.824 146.222C99.818 144.783 100.24 142.735 101.762 141.668L123.917 126.157C125.441 125.09 127.511 125.394 128.517 126.83ZM55.7229 149.299L71.4547 126.831C72.4611 125.394 74.5301 125.09 76.0543 126.158L98.2087 141.669C99.7319 142.735 100.154 144.784 99.1477 146.223L83.4159 168.689C82.4095 170.126 80.3405 170.43 78.8163 169.363L56.6619 153.849C55.1387 152.784 54.7164 150.735 55.7229 149.299ZM56.4565 83.9393L82.2289 93.3201C83.8776 93.9198 84.7067 95.8404 84.0706 97.5876L74.8206 123.001C74.1846 124.748 72.3148 125.686 70.6661 125.087L44.8937 115.706C43.245 115.106 42.4159 113.187 43.052 111.438L52.302 86.0248C52.938 84.2786 54.8077 83.3396 56.4565 83.9393ZM117.771 93.3201L143.543 83.9393C145.192 83.3385 147.061 84.2775 147.697 86.0248L156.948 111.438C157.582 113.188 156.753 115.106 155.107 115.706L129.333 125.087C127.683 125.686 125.815 124.748 125.179 123.001L115.93 97.5876C115.292 95.8414 116.122 93.9208 117.771 93.3201ZM86.3097 60.8261H113.737C115.492 60.8261 116.927 62.3472 116.927 64.2076V91.2522C116.927 93.1115 115.492 94.6326 113.737 94.6326H86.3097C84.5552 94.6326 83.1192 93.1115 83.1192 91.2522V64.2066C83.1192 62.3472 84.5552 60.8261 86.3097 60.8261Z" fill="#19305D"/>
<path fill-rule="evenodd" clip-rule="evenodd" d="M163.243 48.898H36.8291V13.6763H163.243V48.898ZM142.604 39.9582L143.875 39.9894C145.13 40.0205 145.231 39.7404 145.215 38.5409L145.198 34.291C145.198 33.7296 145.215 33.0915 145.13 32.8114C145.042 32.5312 144.734 32.2511 144.356 31.8464L142.57 29.8999L142.604 39.9582ZM150.143 18.2386H156.05V43.7786H150.143V18.2386ZM133.435 18.2386L133.418 40.2228L135.959 40.2073L135.941 43.7786H120.298V18.2386H125.312L125.295 40.2228H128.404L128.385 18.2386H133.435ZM111.508 30.4758L112.726 28.4836C113.362 27.471 114.272 28.2025 114.564 27.4398L114.495 21.399L111.524 21.4146C111.456 21.4146 111.508 24.1393 111.508 26.5994V30.4758ZM97.65 31.2083C96.2783 31.2083 95.1857 32.1598 95.2801 33.5284C95.4202 34.6085 95.6485 35.6066 96.0874 36.611C96.4308 37.4359 96.7576 37.7316 97.5296 38.3085C98.3711 38.931 98.783 39.1022 99.3672 38.5575C100.072 37.9184 100.5 37.9661 100.656 36.4242C100.57 34.9602 100.243 34.6023 99.7448 33.6996L105.807 32.5478C105.943 34.0264 106.15 34.6334 105.739 37.109C104.725 39.7404 104.089 39.9582 102.527 41.7491C101.359 43.0876 101.274 43.7786 100.088 43.7786C99.6556 43.7786 98.8349 43.542 98.176 43.3688C97.7994 43.2702 97.3293 43.2692 97.0139 43.181C97.0139 42.7919 96.4132 41.3434 96.327 41.1577C95.9494 40.3629 94.9357 39.7559 94.4729 39.3046C94.0433 38.8688 93.4592 38.2462 93.0296 37.3736C92.0678 35.396 91.7939 34.1509 91.5189 33.1548C91.2616 32.1588 91.1931 30.4457 91.2958 29.045C91.5013 26.1335 93.8369 23.6423 95.193 21.2756C95.5022 20.7308 95.7087 18.2396 96.1714 18.2396H102.129C102.216 18.2396 101.959 18.831 102.216 19.7182C102.646 21.2133 103.813 23.4389 105.1 24.6228C105.582 25.0586 105.77 25.5732 105.787 25.9302V27.4097L101.683 27.9856L101.768 26.506C101.89 25.4166 101.357 23.3611 101.014 22.6919C100.497 21.7269 100.36 21.7414 100.051 21.7736C99.5529 21.8203 99.776 22.5207 99.2437 24.2026C98.8318 25.5888 98.0764 26.4448 97.0969 28.0489C96.9081 28.3757 96.7711 28.6714 96.8915 29.2006C97.5089 28.8738 97.733 28.7493 98.3846 28.6559C99.2084 28.5469 99.5695 28.5469 100.429 28.9672L100.17 31.7541C99.3734 31.0766 98.6108 31.2083 97.65 31.2083ZM83.019 40.4563C83.294 40.503 83.4662 40.4563 83.8097 40.4874C84.2901 40.5185 85.1316 40.6275 85.6815 40.2851C86.3165 39.9116 86.3518 39.7238 86.3518 39.0078V35.038C86.3518 34.5244 86.3175 34.1509 86.2138 33.9164C86.1287 33.683 85.8703 33.3551 85.4418 32.966C84.6854 32.2812 84.1884 31.8143 83.9653 31.5653C83.5534 31.0973 83.3635 30.5225 83.0201 29.8678V40.4563H83.019ZM72.3558 22.364C72.2189 23.2356 72.442 24.2472 71.4635 25.6334C70.7932 26.5683 69.1456 27.5799 68.6133 28.2491C67.806 29.2618 67.6691 29.6976 67.5487 30.9738C67.4284 32.1878 67.8403 33.2005 68.6309 35.2404C68.992 36.2209 69.1632 36.61 69.5232 37.0613C70.1416 37.8094 71.4116 38.5098 72.1162 37.6693C72.8549 36.7967 73.8168 35.7384 74.1426 34.5711C74.2629 34.1353 74.3656 33.6674 74.486 33.0915C74.6748 32.1255 74.8979 30.9583 74.7942 29.433C74.7599 28.8727 74.708 27.8922 74.4165 26.6461C74.1073 25.3232 73.7296 24.684 73.6788 24.5751C73.2492 23.828 73.1807 23.5935 72.8892 23.2044L72.3558 22.364ZM62.1045 28.6382C62.5683 27.8445 62.7914 27.6422 64.0625 27.611C64.354 25.8669 64.5429 25.54 65.3677 23.7346C66.0204 22.3329 66.9698 21.4966 67.9606 20.1851C68.052 20.0637 67.8745 18.2396 68.0976 18.2396H74.073C74.1415 18.2396 74.2048 20.6551 74.348 20.9643C74.4798 21.2465 74.6738 21.7114 74.9664 22.116C76.1337 23.8135 76.8216 25.6656 77.3196 27.5343C77.5593 28.3903 77.8519 29.4341 77.9899 30.9749C78.1103 32.3289 78.1103 34.898 77.6288 36.4709C77.2854 37.5604 76.2208 39.2423 75.3617 40.4096C74.6914 41.3434 74.211 41.7792 73.3187 42.574C72.305 43.4767 71.8931 43.7786 71.4293 43.7786C70.9323 43.7786 69.7432 43.0606 69.2836 42.5584C68.9879 42.2347 68.7336 42.1693 67.8932 40.9699C66.8286 39.428 66.3306 38.6032 65.8149 37.357C65.0077 35.4583 64.0293 33.5273 64.0293 31.3318C64.0293 30.9116 63.9089 30.288 64.0469 29.8678C63.2397 29.8678 62.3297 30.6159 62.1066 31.5653L62.1243 43.7776H57.6585V18.2386H62.1222L62.1045 28.6382ZM144.562 22.8153C146.348 22.8153 147.809 24.1549 147.809 25.8202C147.809 27.471 146.348 28.825 144.562 28.825H144.339C144.615 29.0429 144.904 29.2297 145.198 29.3853C146.4 30.0545 147.255 30.4333 148.596 30.5692C148.975 30.5847 149.094 30.8026 149.215 31.2229C149.318 31.6431 149.37 32.2511 149.353 33.0448L149.318 40.4096C149.302 41.469 149.233 42.1538 149.044 42.4183C148.872 42.6985 148.528 43.7786 148.047 43.7786H137.625V18.2386H142.604L142.638 23.3922C143.206 23.009 143.877 22.8077 144.562 22.8153ZM116.694 30.8805C117.293 31.3629 117.689 32.0799 117.689 32.8892C117.689 34.3532 116.402 35.5516 114.821 35.5516C113.431 35.5516 112.263 34.6323 112.006 33.4028L111.576 33.4495L111.593 43.7786H106.905L106.922 18.2386H118.899L118.856 26.4593C118.875 28.4058 118.222 28.3591 117.551 29.6665C117.293 30.1645 117.002 30.5692 116.694 30.8805ZM85.3546 25.4933C86.9338 25.4933 88.2225 26.645 88.2225 28.0468C88.2225 29.4642 86.9349 30.6003 85.3546 30.6003H85.2862C86.2812 31.005 88.4114 31.2384 89.3898 31.7053C90.2831 32.1255 90.6266 33.7297 90.6266 36.1898V40.5964C90.6266 41.359 90.4886 41.9514 90.2313 42.3561C89.9729 42.7607 89.6305 43.7786 89.2175 43.7786H78.8127V18.2386H90.0258V24.8718C90.0258 25.0742 89.2186 24.545 88.4809 24.2181C87.657 23.8747 86.5406 23.331 86.2822 23.0965C86.0073 22.8786 86.2646 22.3183 85.9907 21.6802C85.7676 21.1656 84.9946 20.9788 84.1189 20.9788H83.0201V26.5838C83.5347 25.9291 84.3928 25.4933 85.3546 25.4933ZM51.9051 25.9768C50.411 28.3436 48.3338 27.6577 48.3338 28.686V43.7786H43.9033V27.2531C43.9033 26.5527 45.552 27.3465 46.3416 26.4438C46.822 25.8669 47.0285 25.3221 47.1146 24.8708C45.6029 24.5751 44.4532 23.3601 44.4532 21.9116C44.4532 20.2619 45.964 18.9068 47.8181 18.9068C49.1919 18.9068 50.3944 19.6694 50.9091 20.7443C51.3729 20.3241 51.7505 19.6694 51.7671 18.2375H56.2775L56.2827 43.7776H51.9228L51.9051 25.9768ZM56.788 150.043L72.5198 127.576C73.1164 126.725 74.3708 126.564 75.3088 127.221L97.4632 142.734C98.4001 143.39 98.6792 144.622 98.0837 145.476L82.3519 167.942C81.7553 168.793 80.5008 168.953 79.5639 168.297L57.4095 152.786C56.4705 152.129 56.1924 150.895 56.788 150.043ZM66.0183 140.156L66.6315 139.285L71.1771 142.476L73.1869 141.8L67.942 138.118L68.5552 137.248L73.824 140.946L73.8593 139.902L69.545 136.872L70.1572 136.003L73.9018 138.633V138.631L73.963 138.674L74.6717 139.172L74.6696 139.176L77.0862 140.89L76.8205 144.8L77.607 144.476L77.799 145.4L77.9339 141.463L81.1172 143.72L80.8464 147.705L81.7625 147.395L82.0064 148.981L82.162 144.431L85.3453 146.691L85.0901 150.44L85.7728 150.211L85.8859 150.944C87.3177 147.217 86.0685 142.816 82.6196 140.394C80.3981 138.836 77.7118 138.41 75.1708 138.836C74.5358 137.779 74.4694 137.562 74.1944 136.971C75.0643 136.717 75.9611 136.568 76.8662 136.525L77.1962 134.237L83.1114 135.177L82.7265 137.852C83.4872 138.26 84.1999 138.752 84.8514 139.319L86.9691 138.012L90.1918 143.057L88.1551 144.314C88.4798 145.307 88.6656 146.34 88.705 147.382L91.1931 147.99L89.864 153.741L87.3489 153.127C86.8791 153.982 86.2959 154.769 85.6151 155.467L86.993 157.431L82.1101 160.756L80.4915 158.45C79.4954 158.713 78.463 158.839 77.4265 158.825L76.9648 161.138L71.1035 159.886L71.6513 157.141C70.8878 156.666 70.1772 156.111 69.5315 155.486L67.4906 156.821L64.1392 151.856L66.5672 150.27C66.4157 149.604 66.3281 148.926 66.3057 148.243C66.2953 147.954 67.309 148.171 68.3975 148.135C68.7627 150.897 69.9518 153.255 72.3631 154.946C75.8795 157.417 80.5621 157.04 83.5887 154.295L82.9516 154.436L82.9059 153.666L79.3263 155.23L76.1202 153.004L80.4189 151.294L78.9403 151.62L78.8801 150.608L75.0971 152.26L71.891 150.034L75.5205 148.589L74.8128 148.58L74.7848 147.804L71.0661 149.429L68.632 147.737L68.6288 147.743L64.1143 144.573L64.7265 143.704L69.0397 146.732L70.263 146.245L64.933 142.504L65.5462 141.635L70.8036 145.326L70.6905 143.433L66.0183 140.156ZM127.452 127.576L143.184 150.043C143.78 150.894 143.503 152.129 142.564 152.786L120.409 168.297C119.473 168.953 118.217 168.794 117.62 167.942L101.888 145.476C101.293 144.623 101.572 143.39 102.509 142.734L124.663 127.221C125.602 126.564 126.857 126.725 127.452 127.576ZM129.011 138.053C128.545 138.098 127.442 138.886 126.923 138.942C126.402 138.997 125.679 138.928 125.152 138.951C124.623 138.993 124.066 139.391 123.27 139.52C122.475 139.65 121.952 140.011 121.652 140.148C121.352 140.285 120.917 140.548 120.058 140.631C119.198 140.711 119.628 141.232 119.3 141.433C118.974 141.633 118.005 142.857 117.355 143.378C116.706 143.897 116.528 144.067 116.485 144.28C116.441 144.49 116.524 144.669 116.702 145.007C116.88 145.343 116.923 145.462 116.989 146.657C117.056 147.852 116.789 148.288 116.217 149.759C116.187 150.102 115.841 150.561 115.581 151.037C115.656 151.282 115.697 151.512 115.76 151.678C115.797 151.693 115.833 151.713 115.866 151.737C115.963 151.818 116 151.943 116.026 152.111C116.036 152.146 116.049 152.304 116.078 152.367C116.111 152.395 116.317 152.433 116.34 152.45C116.467 152.512 116.565 152.622 116.612 152.756C116.626 152.79 116.632 152.832 116.636 152.879C116.776 152.988 116.98 153.096 117.187 153.242C117.729 153.151 118.285 152.968 118.626 153.051C120.22 152.981 120.723 152.869 121.852 153.309C122.98 153.751 123.082 153.828 123.349 154.101C123.615 154.375 123.76 154.509 123.976 154.535C124.195 154.561 124.416 154.45 125.122 154.006C125.828 153.562 127.31 153.043 127.607 152.802C127.905 152.56 128.27 153.126 128.621 152.348C128.971 151.568 129.36 151.244 129.588 151.006C129.817 150.769 130.328 150.394 130.704 149.691C131.081 148.987 131.64 148.592 131.85 148.11C132.036 147.624 132.2 146.927 132.417 146.457C132.636 145.987 133.742 145.206 133.933 144.785C135.058 142.729 135.117 145.553 135.169 145.782C135.222 146.013 135.449 146.101 135.554 145.995C135.658 145.891 135.841 145.545 135.935 145.495C136.392 145.257 136.267 147.393 136.16 148.01C136.004 148.849 135.988 149.844 135.209 150.587C134.869 150.913 134.488 151.087 134.352 151.219C133.904 151.649 133.927 151.712 134.112 151.732C134.215 151.744 134.637 151.589 134.843 151.711C135.005 151.806 134.985 152.145 134.928 152.361C134.28 154.877 131.845 156.51 131.027 156.727L131.014 156.743C131.348 156.634 131.6 156.585 131.733 156.601C132.231 156.662 132.501 156.854 132.011 157.27C130.149 158.808 128.331 159.458 126.246 159.228C126.139 159.268 126.032 159.304 125.923 159.337C126.112 159.4 126.079 159.445 126.142 159.503C126.507 159.852 125.394 160.145 124.101 160.522C122.806 160.899 120.703 159.965 119.712 159.296C119.733 159.322 119.748 159.344 119.761 159.366C120.004 159.806 120.128 160.308 119.51 160.159C116.81 159.521 115.597 156.929 115.463 156.406C115.329 155.883 115.321 154.93 114.74 155.342C114.549 155.476 114.746 156.869 114.282 157.209C113.873 157.511 113.415 156.899 113.156 156.139C113.089 155.948 113.291 155.485 113.61 155.098C113.92 154.721 114.256 154.577 114.226 154.402C114.206 154.289 114.033 154.094 113.922 153.907C113.772 153.746 113.635 153.506 113.527 153.448C113.367 153.363 113.123 153.635 112.664 153.805C112.187 153.979 111.679 154.022 111.517 153.9C110.869 153.418 110.425 152.794 110.847 152.506C111.321 152.18 112.596 152.805 112.786 152.67C113.366 152.255 112.452 151.946 111.991 151.654C111.531 151.361 109.423 149.408 109.663 146.679C109.716 146.052 110.16 146.328 110.505 146.695C110.525 146.716 110.543 146.738 110.56 146.762C110.23 145.622 109.998 143.357 110.77 142.267C111.542 141.176 112.176 140.228 112.395 140.68C112.433 140.757 112.486 140.742 112.486 140.938C112.551 140.846 112.62 140.757 112.693 140.67C113.133 138.646 114.332 137.149 116.399 135.893C116.954 135.567 117.056 135.878 116.956 136.365C116.93 136.495 116.803 136.716 116.591 136.993C116.598 136.99 116.605 136.988 116.612 136.987C117.078 136.289 119.418 134.531 122.042 134.718C122.27 134.733 122.602 134.822 122.64 135.002C122.691 135.235 122.411 135.582 122.389 135.682C122.351 135.861 122.406 135.901 122.959 135.618C123.129 135.533 123.418 135.231 123.841 135.016C124.801 134.523 125.764 134.821 126.619 134.944C127.246 135.037 129.339 135.596 128.966 135.951C128.887 136.022 128.498 136.085 128.364 136.147C128.231 136.211 128.241 136.453 128.445 136.575C128.65 136.696 131.343 137.652 129.011 138.053ZM118.07 148.37C118.248 149.401 118.931 150.322 119.53 150.883C120.132 151.442 120.335 151.612 120.851 151.908C121.37 152.206 122.556 152.582 123.475 152.591C124.485 152.599 125.402 152.222 125.52 152.174C125.746 152.082 126.102 151.844 126.286 151.732C126.47 151.62 126.75 151.408 126.911 151.221C127.071 151.032 127.326 150.605 127.448 150.279C127.572 149.953 127.71 149.582 127.833 149.454C127.931 149.352 128.237 149.131 128.364 149.084C129.387 148.676 129.364 148.527 129.5 148.123C129.1 148.362 129.015 148.308 128.768 148.291C128.592 148.283 128.413 148.238 128.19 148.244C127.21 148.274 127.059 148.599 126.67 148.797C126.281 148.998 125.964 149.499 125.692 149.442C125.416 149.387 125.43 149.038 125.592 148.817C125.754 148.598 126.115 148.043 126.808 147.89C127.031 147.84 127.293 147.759 127.556 147.704C128.022 147.604 128.476 147.517 128.61 147.472C128.819 147.404 129.148 147.313 129.474 147.232C129.718 147.17 129.887 147.083 130.052 146.958C130.345 146.737 130.627 146.405 130.791 146.024C130.968 145.618 131.025 145.189 130.984 145.025C130.882 145.141 130.754 145.23 130.61 145.286C130.45 145.318 130.296 145.374 130.154 145.454C130.003 145.546 129.939 145.624 129.666 145.769C129.392 145.913 129.121 146.014 128.932 145.998C128.62 145.974 128.502 145.702 128.694 145.465C128.777 145.359 128.976 145.354 129.15 145.27C129.275 145.198 129.381 145.097 129.458 144.976C129.777 144.521 129.713 144.098 129.8 143.839C129.888 143.579 129.928 143.384 130.009 143.227C130.09 143.067 130.511 142.678 130.66 142.629C130.808 142.58 131.034 142.518 131.276 142.444C131.539 142.363 131.769 142.199 132.018 141.99C132.126 141.903 132.33 141.69 132.466 141.463C132.532 141.352 132.541 141.22 132.6 141.017C132.657 140.814 132.651 140.406 132.551 140.123C132.152 140.557 131.767 140.802 131.43 140.908C131.092 141.015 130.806 141.017 130.484 141.011C130.227 141.101 129.908 140.865 129.412 140.916C128.902 140.969 128.472 141.199 128.349 141.319C128.225 141.44 128.166 141.652 128 141.873C127.836 142.094 127.467 142.312 127.273 142.478C127.079 142.644 126.612 142.77 126.426 142.802C126.242 142.832 125.833 142.871 125.67 142.823C125.508 142.772 125.347 142.623 125.82 142.238C126.29 141.851 126.426 141.747 126.633 141.434C126.839 141.12 126.9 140.909 126.896 140.717C126.894 140.522 126.924 140.372 126.771 140.085C126.677 140.253 126.371 140.401 126.258 140.47C126.095 140.559 125.944 140.668 125.806 140.792C125.605 140.973 125.332 141.26 124.975 141.396C124.807 141.461 124.399 141.592 123.994 141.682C123.589 141.771 123.28 141.896 122.797 142.32C122.191 142.849 121.905 143.562 121.581 144.223C121.483 144.32 121.394 144.367 121.232 144.312C121.181 144.278 121.117 144.178 121.13 144.099C121.152 143.941 121.187 143.876 121.226 143.74C121.262 143.615 121.323 143.513 121.422 143.347C121.633 142.998 122.024 142.796 122.147 142.664C122.275 142.528 122.409 142.281 122.305 141.608C122.151 141.952 121.725 142.218 121.591 142.284C120.256 142.955 118.472 143.488 118.128 145.995C117.933 146.772 117.913 147.584 118.07 148.37ZM134.987 147.515C134.63 148.818 133.911 150.398 132.584 151.317C133.001 150.038 134.084 148.601 134.987 147.515ZM132.152 153.536C131.748 154.393 131.061 155.4 130.038 155.875C130.48 155.041 131.4 154.178 132.152 153.536ZM128.849 156.547C127.977 157.125 126.757 157.684 125.53 157.542C126.423 157.009 127.776 156.721 128.849 156.547ZM124.274 158.886C122.963 159.062 121.267 159.02 119.956 158.171C121.269 158.059 122.964 158.484 124.274 158.886ZM118.909 157.866C117.703 157.341 116.287 156.429 115.616 155.021C116.787 155.601 118.003 156.845 118.909 157.866ZM130.004 152.342C129.689 153.233 129.473 154.427 129.878 155.467C130.148 154.565 130.095 153.317 130.004 152.342ZM127.544 154.182C126.735 154.845 125.843 155.848 125.617 157.064C126.389 156.366 127.063 155.155 127.544 154.182ZM124.129 155.439C122.84 155.749 121.265 156.402 120.325 157.67C121.592 157.301 123.036 156.288 124.129 155.439ZM120.574 154.818C119.32 154.419 117.644 154.17 116.186 154.78C117.453 155.114 119.207 154.986 120.574 154.818ZM127.227 136.652C125.892 136.486 124.159 136.547 122.805 137.426C124.142 137.528 125.881 137.074 127.227 136.652ZM120.595 136.979C119.651 137.026 118.461 137.277 117.633 138.045C118.568 137.954 119.715 137.433 120.595 136.979ZM116.558 138.889C115.692 139.477 114.712 140.395 114.374 141.585C115.206 140.96 115.988 139.816 116.558 138.889ZM112.656 142.236C111.991 143.384 111.383 144.972 111.666 146.509C112.269 145.336 112.523 143.603 112.656 142.236ZM111.544 147.598C111.568 148.916 111.868 150.575 112.91 151.734C112.822 150.427 112.142 148.826 111.544 147.598ZM120.876 139.425C119.934 139.376 118.75 139.121 117.946 138.351C118.88 138.444 120.011 138.971 120.876 139.425ZM118.24 141.003C117.319 141.498 116.054 141.941 114.847 141.688C115.786 141.239 117.158 141.077 118.24 141.003ZM115.775 143.686C114.999 144.762 113.796 145.972 112.267 146.359C113.09 145.326 114.576 144.375 115.775 143.686ZM114.991 147.217C114.88 148.533 114.468 150.179 113.352 151.299C113.526 149.995 114.315 148.423 114.991 147.217ZM124.692 145.16C122.305 147.148 122.617 146.136 125.02 142.914C122.951 143.429 121.731 146.293 121.131 147.207C119.792 149.322 120.304 145.774 119.892 145.057C118.623 146.847 117.837 149.059 120.121 149.258C120.366 151.457 122.868 152.365 125.264 151.068C124.727 150.438 120.042 149.633 122.479 149.075C123.549 148.299 126.65 148.314 127.821 146.843C124.325 147.772 122.884 147.763 125.822 146.425C127.024 145.226 128.021 143.937 128.323 143.635C128.826 143.127 127.278 143.924 124.692 145.16ZM118.216 94.5422L143.989 85.1615C144.966 84.8056 146.085 85.3949 146.475 86.4699L155.726 111.884C156.118 112.958 155.637 114.13 154.661 114.485L128.889 123.867C127.913 124.222 126.792 123.632 126.401 122.558L117.152 97.1435C116.758 96.0685 117.238 94.8971 118.216 94.5422ZM136.351 114.012L142.612 111.735C145.891 109.717 146.773 106.288 144.813 103.241C143.648 101.43 142.079 100.664 140.325 99.5921C139.083 98.8347 137.905 98.0617 137.145 97.0781L136.031 97.4848L140.974 111.065C141.036 111.092 141.093 111.132 141.139 111.182C141.186 111.232 141.222 111.29 141.246 111.354C141.274 111.432 141.282 111.516 141.27 111.599C141.258 111.681 141.225 111.759 141.176 111.826C141.126 111.892 141.06 111.946 140.985 111.981C140.91 112.016 140.827 112.032 140.744 112.027C140.661 112.022 140.58 111.997 140.509 111.953C140.438 111.91 140.379 111.849 140.337 111.778C140.296 111.706 140.272 111.625 140.27 111.541C140.267 111.458 140.285 111.376 140.321 111.301L135.378 97.7224L134.418 98.0721L139.361 111.652C139.454 111.692 139.532 111.758 139.587 111.843C139.641 111.929 139.668 112.028 139.665 112.129C139.662 112.23 139.628 112.328 139.569 112.409C139.509 112.491 139.426 112.552 139.331 112.586C139.236 112.619 139.134 112.624 139.037 112.599C138.94 112.574 138.852 112.52 138.786 112.446C138.719 112.371 138.676 112.278 138.662 112.179C138.648 112.08 138.664 111.979 138.708 111.889L133.765 98.3087L132.804 98.6573L137.747 112.236C137.839 112.276 137.917 112.343 137.97 112.428C138.024 112.513 138.051 112.612 138.047 112.712C138.044 112.812 138.011 112.909 137.952 112.99C137.894 113.071 137.812 113.133 137.718 113.168C137.624 113.202 137.521 113.207 137.424 113.183C137.327 113.159 137.239 113.106 137.172 113.032C137.105 112.957 137.062 112.864 137.048 112.765C137.034 112.666 137.05 112.565 137.095 112.475L132.152 98.8939L131.118 99.2705C131.169 100.512 130.763 101.862 130.299 103.24C129.643 105.19 128.936 106.785 129.205 108.921C129.663 112.514 132.543 114.576 136.351 114.012ZM134.671 116.957L146.899 112.507C146.991 112.474 147.092 112.479 147.18 112.521C147.268 112.563 147.336 112.638 147.369 112.73L147.622 113.427C147.656 113.519 147.653 113.62 147.613 113.709C147.572 113.798 147.498 113.867 147.407 113.901L135.177 118.352C135.086 118.384 134.985 118.379 134.897 118.337C134.809 118.295 134.742 118.22 134.709 118.129L134.456 117.431C134.422 117.34 134.425 117.239 134.465 117.15C134.506 117.061 134.579 116.992 134.671 116.957ZM136.756 96.4815C136.744 96.4604 136.733 96.4389 136.722 96.4172C135.202 93.4912 137.608 89.4218 141.423 89.843C144.003 90.4013 143.531 94.509 141.468 94.343C141.112 94.3705 140.756 94.2807 140.455 94.0874C140.155 93.8941 139.926 93.6079 139.803 93.2722C139.659 92.8746 139.674 92.4367 139.845 92.05C139.799 91.7335 139.424 91.7729 139.048 92.1506C137.966 93.2785 137.555 95.1389 138.834 96.4348C139.667 97.408 141.276 98.0928 143.805 98.7901C144.798 99.064 145.487 99.3255 146.362 99.9065C148.15 101.095 148.801 102.415 149.277 104.535C149.743 106.61 149.741 109.279 148.154 110.899C147.612 111.454 146.836 112.011 145.73 112.572L145.737 112.587L145.617 112.629L134.625 116.629L134.516 116.67L134.51 116.657C133.298 116.938 132.346 117.01 131.569 116.935C129.314 116.714 127.598 114.671 126.619 112.781C125.622 110.852 125.271 109.421 125.877 107.362C126.175 106.354 126.534 105.712 127.119 104.863C128.609 102.705 129.401 101.144 129.413 99.864C129.562 98.0493 128.05 96.8882 126.496 96.7212C125.964 96.6734 125.653 96.883 125.821 97.1559C126.189 97.3354 126.488 97.6519 126.638 98.0638C126.76 98.3996 126.768 98.766 126.663 99.1073C126.557 99.4485 126.343 99.7459 126.053 99.9543C124.577 101.407 121.577 98.5649 123.193 96.4784C125.846 93.7028 130.305 95.2737 131.022 98.4913L131.036 98.5629L131.918 98.2422L131.572 97.2887C131.479 97.2487 131.401 97.1819 131.347 97.097C131.293 97.012 131.266 96.9128 131.269 96.8122C131.272 96.7116 131.305 96.6142 131.363 96.5325C131.422 96.4509 131.504 96.3888 131.599 96.3543C131.693 96.3197 131.796 96.3143 131.894 96.3388C131.992 96.3633 132.08 96.4165 132.147 96.4915C132.214 96.5665 132.257 96.66 132.27 96.7597C132.284 96.8595 132.267 96.961 132.222 97.0511L132.571 98.0057L133.532 97.656L133.183 96.7014C133.121 96.6741 133.064 96.6345 133.018 96.5849C132.971 96.5354 132.935 96.4769 132.911 96.413C132.883 96.3348 132.874 96.2508 132.886 96.1685C132.898 96.0862 132.931 96.0081 132.98 95.9413C133.03 95.8746 133.095 95.8211 133.171 95.7858C133.246 95.7505 133.329 95.7344 133.412 95.739C133.495 95.7435 133.575 95.7686 133.646 95.812C133.717 95.8553 133.777 95.9156 133.819 95.9874C133.861 96.0593 133.884 96.1404 133.887 96.2235C133.89 96.3066 133.872 96.3892 133.836 96.4638L134.184 97.4184L135.145 97.0687L134.796 96.1142C134.704 96.0738 134.626 96.0067 134.572 95.9215C134.518 95.8362 134.491 95.7368 134.494 95.6359C134.497 95.5351 134.531 95.4376 134.59 95.3559C134.649 95.2743 134.731 95.2123 134.826 95.1779C134.921 95.1435 135.024 95.1384 135.122 95.1631C135.22 95.1879 135.308 95.2414 135.375 95.3167C135.442 95.3921 135.485 95.4858 135.498 95.5858C135.511 95.6857 135.494 95.7874 135.449 95.8776L135.798 96.8311L136.756 96.4815ZM134.703 94.8546C134.906 94.7799 135.071 94.6281 135.163 94.4322C135.254 94.2363 135.265 94.0122 135.192 93.8087C135.11 93.6159 134.957 93.462 134.765 93.3785C134.573 93.295 134.356 93.2883 134.16 93.3599C133.963 93.4315 133.801 93.5758 133.708 93.7632C133.614 93.9505 133.596 94.1666 133.657 94.3669C133.731 94.57 133.883 94.7353 134.079 94.8267C134.275 94.9181 134.5 94.9281 134.703 94.8546ZM133.091 95.4418C133.294 95.3676 133.459 95.2159 133.551 95.0199C133.643 94.8238 133.653 94.5995 133.579 94.3959C133.426 93.9736 132.955 93.7547 132.533 93.9083C132.112 94.0618 131.893 94.5319 132.045 94.9542C132.119 95.1572 132.271 95.3226 132.467 95.414C132.663 95.5054 132.887 95.5154 133.091 95.4418ZM131.477 96.0291C131.9 95.8755 132.119 95.4055 131.966 94.9832C131.812 94.5609 131.341 94.342 130.92 94.4956C130.717 94.5704 130.552 94.7222 130.461 94.918C130.369 95.1139 130.359 95.3379 130.431 95.5414C130.506 95.7445 130.657 95.9099 130.853 96.0013C131.049 96.0927 131.274 96.1027 131.477 96.0291ZM86.3102 62.1262H113.738C114.777 62.1262 115.628 63.062 115.628 64.2065V91.251C115.628 92.3955 114.777 93.3314 113.738 93.3314H86.3102C85.2716 93.3314 84.4198 92.3955 84.4198 91.251V64.2065C84.4198 63.062 85.2706 62.1262 86.3102 62.1262ZM109.256 74.6757C109.548 74.6695 110.124 74.767 110.624 74.7722C111.013 74.7753 111.351 74.6944 111.511 74.6466C111.879 74.5387 112.279 74.3354 112.836 73.8404C112.966 73.7242 113.618 73.0695 113.199 72.9554C112.97 72.8942 112.61 73.1152 112.269 73.082C111.961 73.0529 111.736 73.0664 111.427 72.9201C111.115 72.7738 110.604 72.3142 110.313 72.227C110.021 72.1398 108.967 71.9188 108.258 72.2104C107.551 72.502 106.889 73.1629 106.661 73.5541C106.436 73.9442 106.147 74.5709 106.019 75.236C105.946 75.622 105.902 76.1594 106.536 75.5296C106.712 75.3626 106.91 75.2266 107.251 75.0824C108.281 74.6446 108.162 74.7006 109.256 74.6757ZM109.72 78.4411C109.994 78.5469 110.486 78.8571 110.949 79.0532C111.308 79.2058 111.65 79.2597 111.818 79.2774C112.201 79.3189 112.645 79.2836 113.351 79.0387C113.515 78.9817 114.367 78.6258 114.023 78.3601C113.836 78.2159 113.419 78.2823 113.115 78.1215C112.843 77.9773 112.631 77.9036 112.4 77.6494C112.167 77.3952 111.871 76.7747 111.637 76.5828C111.399 76.3908 110.51 75.7828 109.744 75.7807C108.978 75.7797 108.113 76.1366 107.754 76.4105C107.275 76.7778 106.858 77.2191 106.518 77.7179C106.301 78.0457 106.056 78.5251 106.883 78.1879C107.109 78.1007 107.345 78.0509 107.714 78.0478C108.833 78.0395 108.701 78.0457 109.72 78.4411ZM108.711 82.0985C108.921 82.3009 109.257 82.7771 109.608 83.134C109.882 83.4121 110.18 83.5937 110.325 83.6746C110.663 83.8583 111.089 83.9973 111.833 84.0409C112.007 84.0513 112.931 84.0492 112.715 83.6715C112.597 83.4671 112.185 83.3685 111.966 83.1029C111.77 82.8653 111.601 82.7159 111.486 82.3932C111.369 82.0695 111.333 81.3836 111.188 81.1149C111.042 80.8472 110.455 79.9445 109.747 79.6498C109.039 79.3552 108.104 79.3541 107.668 79.4714C107.084 79.6271 106.529 79.8751 106.024 80.206C105.701 80.426 105.289 80.7756 106.182 80.7798C106.423 80.785 106.66 80.8296 107.003 80.9686C108.042 81.3868 107.919 81.3421 108.711 82.0985ZM106.376 85.0899C106.495 85.3576 106.623 85.9262 106.812 86.391C106.958 86.7521 107.162 87.0333 107.267 87.165C107.508 87.4649 107.847 87.7544 108.52 88.0792C108.675 88.1549 109.531 88.5077 109.474 88.076C109.444 87.8415 109.104 87.5936 109.002 87.2646C108.911 86.971 108.813 86.7676 108.83 86.4242C108.846 86.0808 109.075 85.4323 109.043 85.1293C109.013 84.8263 108.813 83.768 108.273 83.2243C107.732 82.6817 106.868 82.3237 106.421 82.2635C105.973 82.2033 105.283 82.1764 104.621 82.3133C104.237 82.3922 103.724 82.5572 104.547 82.9027C104.768 83.0002 104.97 83.133 105.236 83.3924C106.032 84.1778 105.935 84.0897 106.376 85.0899ZM103.078 86.9617C103.084 87.2532 102.986 87.8291 102.98 88.3292C102.98 88.6301 103.022 88.9295 103.106 89.2184C103.215 89.5868 103.418 89.9852 103.912 90.5424C104.027 90.6721 104.684 91.3247 104.798 90.9045C104.859 90.6762 104.638 90.3162 104.67 89.9738C104.7 89.6677 104.687 89.4425 104.832 89.1313C104.977 88.82 105.438 88.3095 105.525 88.0169C105.612 87.7243 105.833 86.6712 105.542 85.9614C105.25 85.2528 104.589 84.5918 104.198 84.3646C103.676 84.0621 103.109 83.8449 102.518 83.7213C102.131 83.6477 101.594 83.603 102.225 84.238C102.391 84.4123 102.527 84.6116 102.671 84.9529C103.108 85.9874 103.051 85.867 103.078 86.9617ZM99.3111 87.4276C99.2053 87.7004 98.8951 88.1943 98.699 88.655C98.5832 88.9327 98.5077 89.2255 98.4748 89.5245C98.4333 89.9063 98.4686 90.3525 98.7135 91.057C98.7705 91.222 99.1264 92.0749 99.3921 91.7304C99.5363 91.5436 99.4699 91.1255 99.6307 90.8225C99.7749 90.5507 99.8486 90.338 100.103 90.1066C100.357 89.8752 100.979 89.5795 101.168 89.3429C101.361 89.1064 101.968 88.2171 101.97 87.4504C101.973 86.6836 101.614 85.8193 101.341 85.4613C100.974 84.9816 100.532 84.5636 100.033 84.2235C99.7054 84.0077 99.225 83.7607 99.5633 84.5887C99.6504 84.8139 99.7002 85.0505 99.7033 85.4209C99.7127 86.5394 99.7064 86.4076 99.3111 87.4276ZM95.6547 86.417C95.4534 86.6286 94.9772 86.9648 94.6192 87.3165C94.4061 87.5288 94.2241 87.7702 94.0786 88.0335C93.8939 88.3717 93.7559 88.7961 93.7123 89.5401C93.702 89.7144 93.704 90.6389 94.0807 90.422C94.2861 90.3048 94.3847 89.8939 94.6493 89.6749C94.8869 89.4789 95.0363 89.3097 95.359 89.1935C95.6817 89.0773 96.3686 89.041 96.6362 88.8957C96.9039 88.7515 97.8056 88.1622 98.1013 87.4545C98.396 86.7469 98.396 85.812 98.2798 85.3763C98.1245 84.7926 97.8765 84.2377 97.5452 83.7327C97.3252 83.408 96.9766 82.9971 96.9724 83.8894C96.9672 84.1312 96.9226 84.3677 96.7836 84.7112C96.3654 85.7487 96.4101 85.6253 95.6547 86.417ZM92.6623 84.0834C92.3957 84.2017 91.826 84.3304 91.3622 84.5182C91.0012 84.6634 90.7189 84.8689 90.5882 84.9737C90.2894 85.2154 89.9988 85.5547 89.6741 86.226C89.5983 86.3827 89.2456 87.2377 89.6772 87.1816C89.9117 87.1516 90.1597 86.8092 90.4886 86.7085C90.7822 86.6182 90.9856 86.5197 91.329 86.5352C91.6725 86.5508 92.3199 86.7801 92.6239 86.749C92.9269 86.7178 93.9852 86.5186 94.5279 85.9781C95.0705 85.4375 95.4285 84.5732 95.4887 84.1249C95.5679 83.5264 95.5514 82.9191 95.4399 82.3258C95.36 81.9408 95.195 81.4272 94.8495 82.2511C94.752 82.4721 94.6202 82.6744 94.3608 82.9379C93.5754 83.739 93.6636 83.6414 92.6623 84.0834ZM90.7916 80.7819C90.5 80.7881 89.9241 80.6905 89.424 80.6854C89.1232 80.6849 88.8238 80.7271 88.5348 80.8109C88.1654 80.9188 87.7681 81.1222 87.2109 81.6181C87.0812 81.7344 86.4285 82.3891 86.8488 82.5032C87.077 82.5644 87.436 82.3444 87.7784 82.3766C88.0845 82.4057 88.3097 82.3922 88.6209 82.5385C88.9312 82.6858 89.4427 83.1444 89.7353 83.2316C90.0269 83.3177 91.081 83.5397 91.7897 83.2482C92.4984 82.9566 93.1593 82.2957 93.3865 81.9045C93.6127 81.5144 93.9022 80.8877 94.0298 80.2226C94.1035 79.8366 94.1481 79.3002 93.5131 79.929C93.3388 80.096 93.1396 80.2319 92.7982 80.3772C91.7658 80.813 91.8862 80.757 90.7916 80.7819ZM90.3267 77.0165C90.0538 76.9106 89.56 76.6004 89.0993 76.4043C88.8216 76.2884 88.5288 76.213 88.2298 76.1802C87.8469 76.1387 87.4018 76.174 86.6973 76.4188C86.5323 76.4759 85.6794 76.8318 86.0239 77.0974C86.2106 77.2416 86.6288 77.1752 86.9318 77.336C87.2036 77.4803 87.4173 77.5539 87.6477 77.8081C87.8791 78.0623 88.1748 78.6828 88.4114 78.8748C88.6479 79.0678 89.5371 79.6748 90.3039 79.6768C91.0707 79.6779 91.9339 79.3209 92.2929 79.047C92.6519 78.7731 93.1583 78.3041 93.5297 77.7397C93.7455 77.4118 93.9915 76.9324 93.1645 77.2696C92.9394 77.3568 92.7028 77.4066 92.3324 77.4097C91.2149 77.418 91.3467 77.4118 90.3267 77.0165ZM91.3373 73.36C91.1257 73.1587 90.7884 72.6815 90.4377 72.3245C90.2254 72.1114 89.9841 71.9294 89.7208 71.784C89.3825 71.6003 88.9582 71.4613 88.2142 71.4187C88.0399 71.4083 87.1154 71.4104 87.3323 71.7871C87.4495 71.9915 87.8614 72.09 88.0804 72.3557C88.2754 72.5933 88.4456 72.7427 88.5618 73.0654C88.678 73.3891 88.7133 74.076 88.8596 74.3437C89.0048 74.6114 89.5932 75.5141 90.3008 75.8087C91.0084 76.1034 91.9433 76.1034 92.3791 75.9882C92.9626 75.8327 93.5175 75.5847 94.0226 75.2536C94.3473 75.0337 94.7582 74.684 93.8659 74.6798C93.6242 74.6746 93.3865 74.63 93.0441 74.491C92.0045 74.0708 92.128 74.1154 91.3373 73.36ZM93.6698 70.3677C93.5515 70.101 93.4218 69.5314 93.2361 69.0665C93.121 68.7884 92.9673 68.5278 92.7796 68.2925C92.5378 67.9926 92.1985 67.7032 91.5272 67.3784C91.3705 67.3026 90.5156 66.9499 90.5716 67.3815C90.6017 67.616 90.9441 67.864 91.0447 68.1929C91.135 68.4865 91.2346 68.6899 91.218 69.0333C91.2014 69.3768 90.9731 70.0252 91.0032 70.3282C91.0344 70.6312 91.2336 71.6895 91.7752 72.2332C92.3158 72.7759 93.1801 73.1338 93.6273 73.194C94.0745 73.2542 94.7645 73.2812 95.4264 73.1442C95.8114 73.0654 96.3239 72.9004 95.5001 72.5549C95.2791 72.4573 95.0768 72.3256 94.8132 72.0651C94.0143 71.2797 94.1118 71.3689 93.6698 70.3677ZM96.9703 68.4959C96.9641 68.2043 97.0617 67.6284 97.0668 67.1283C97.0673 66.8275 97.0251 66.5281 96.9413 66.2391C96.8334 65.8708 96.63 65.4723 96.1351 64.9152C96.0189 64.7844 95.3642 64.1328 95.25 64.552C95.1878 64.7803 95.4088 65.1403 95.3766 65.4827C95.3476 65.7888 95.3611 66.014 95.2148 66.3252C95.0685 66.6365 94.6088 67.147 94.5217 67.4396C94.4355 67.7312 94.2135 68.7853 94.5051 69.494C94.7966 70.2027 95.4576 70.8636 95.8487 71.0908C96.2388 71.317 96.8656 71.6065 97.5296 71.7341C97.9156 71.8078 98.453 71.8524 97.8232 71.2174C97.6562 71.0431 97.5203 70.8439 97.376 70.5025C96.9403 69.4712 96.9952 69.5905 96.9703 68.4959ZM100.737 68.03C100.843 67.7581 101.152 67.2632 101.349 66.8025C101.464 66.5246 101.54 66.2319 101.574 65.933C101.615 65.5512 101.58 65.105 101.335 64.4005C101.276 64.2356 100.922 63.3827 100.657 63.7271C100.513 63.9139 100.578 64.332 100.418 64.635C100.274 64.9069 100.201 65.1206 99.9461 65.351C99.6909 65.5813 99.0714 65.878 98.8795 66.1146C98.6865 66.3512 98.0795 67.2404 98.0774 68.0061C98.0764 68.7729 98.4344 69.6372 98.7073 69.9952C99.0744 70.4747 99.5157 70.8926 100.015 71.233C100.342 71.4488 100.823 71.6958 100.484 70.8678C100.384 70.6019 100.337 70.3194 100.345 70.0356C100.334 68.9192 100.34 69.051 100.737 68.03ZM104.392 69.0416C104.594 68.831 105.071 68.4938 105.428 68.142C105.706 67.8692 105.887 67.5724 105.967 67.4251C106.152 67.0868 106.291 66.6625 106.335 65.9185C106.345 65.7442 106.343 64.8197 105.966 65.0366C105.762 65.1538 105.662 65.5647 105.397 65.7847C105.159 65.9797 105.012 66.1499 104.687 66.2661C104.364 66.3823 103.677 66.4176 103.411 66.5639C103.141 66.7091 102.239 67.2975 101.946 68.0051C101.65 68.7127 101.65 69.6476 101.767 70.0834C101.882 70.5191 102.122 71.1676 102.501 71.7269C102.722 72.0527 103.07 72.4625 103.074 71.5702C103.081 71.3284 103.123 71.0919 103.263 70.7484C103.681 69.7088 103.637 69.8323 104.392 69.0416ZM107.384 71.3751C107.651 71.2569 108.221 71.1282 108.685 70.9404C108.963 70.826 109.224 70.6726 109.459 70.4849C109.759 70.2442 110.048 69.9039 110.373 69.2325C110.45 69.0759 110.8 68.2209 110.369 68.2769C110.135 68.307 109.886 68.6484 109.558 68.7501C109.265 68.8403 109.061 68.9389 108.717 68.9233C108.374 68.9067 107.726 68.6785 107.424 68.7096C107.12 68.7407 106.063 68.9399 105.519 69.4805C104.976 70.0211 104.617 70.8854 104.558 71.3326C104.478 71.9311 104.494 72.5385 104.607 73.1318C104.686 73.5167 104.852 74.0293 105.196 73.2054C105.296 72.9844 105.428 72.7821 105.687 72.5186C106.471 71.7196 106.382 71.8161 107.384 71.3751ZM99.9658 83.2565C103.056 83.2565 105.574 80.7362 105.574 77.6473C105.574 74.5584 103.055 72.0382 99.9658 72.0382C96.8759 72.0382 94.3567 74.5584 94.3567 77.6473C94.3567 80.7362 96.8759 83.2565 99.9658 83.2565ZM99.9658 72.9813C101.202 72.9838 102.387 73.4761 103.261 74.3504C104.136 75.2248 104.628 76.4099 104.63 77.6463C104.627 78.8826 104.135 80.0675 103.261 80.9418C102.387 81.8161 101.202 82.3085 99.9658 82.3112C98.7293 82.3091 97.544 81.8169 96.6696 80.9425C95.7953 80.0681 95.3031 78.8828 95.3009 77.6463C95.3031 76.4097 95.7953 75.2244 96.6696 74.3501C97.544 73.4757 98.7293 72.9835 99.9658 72.9813ZM56.0119 85.1615L81.7854 94.5422C82.7617 94.8981 83.2411 96.0685 82.8499 97.1435L73.5999 122.558C73.2087 123.632 72.0892 124.222 71.1128 123.867L45.3404 114.485C44.363 114.13 43.8846 112.958 44.2758 111.884L53.5258 86.4699C53.9149 85.3949 55.0355 84.8056 56.0119 85.1615ZM59.4753 97.0802C59.523 96.9121 59.2699 97.3779 59.1941 97.5491C59.026 97.9196 58.859 98.2786 58.6619 98.7185L58.9721 98.8254L59.4753 97.0802ZM57.6845 98.7517L58.6546 99.1045L58.1337 100.819L57.0733 100.434L57.6845 98.7517ZM70.234 105.282C70.2428 105.266 70.2525 105.251 70.263 105.236L71.0713 105.529L71.6835 103.847L71.1595 103.656L71.1865 103.575C71.4407 102.763 72.3309 101.843 71.6451 101.747C71.0111 101.628 70.4778 101.756 70.0545 102.168C69.8428 102.373 69.6011 102.802 69.4828 102.653C69.4776 102.647 69.4475 102.685 69.3977 102.755L69.8708 102.914L69.7059 103.127L69.0262 102.88L68.0208 104.418L68.5521 104.611L68.3477 104.872L67.4387 104.577L67.4284 104.583L67.3371 104.625L67.2437 104.66L67.1482 104.688L67.0517 104.709L66.9552 104.726L66.8577 104.739L66.7602 104.743L66.6647 104.741L66.5693 104.734L66.4759 104.724L66.3835 104.707L66.2943 104.684L66.2061 104.658L66.121 104.625L66.0391 104.587L65.9612 104.54L65.8886 104.49L65.8201 104.432L65.7838 104.394L65.7589 104.437L65.6863 104.52L65.6012 104.588L65.5099 104.647L65.4124 104.694L65.3096 104.732L65.2028 104.76L65.0928 104.784L64.9786 104.801L64.8624 104.811L64.7442 104.815H64.6248L64.5045 104.809L64.3841 104.799L64.2648 104.782L64.1673 104.766C64.0116 104.842 63.8601 104.932 63.7128 105.035C63.5623 105.143 62.1699 105.49 63.6039 104.844C63.7107 104.796 63.8186 104.749 63.9265 104.706L63.9172 104.702L63.8072 104.668L63.7014 104.625L63.6007 104.579L63.5053 104.524L63.416 104.463L63.3341 104.394L63.2604 104.315L63.1992 104.226L63.1535 104.124L63.1349 104.043L63.0373 104.067L62.9242 104.086L62.808 104.094H62.6887L62.5663 104.09L62.4407 104.076L62.3131 104.057L62.1834 104.033L62.0537 104.003L61.924 103.967L61.7953 103.926L61.6688 103.882L61.5443 103.833L61.4249 103.779L61.3087 103.722L61.1967 103.658L61.0898 103.592L60.9902 103.521L60.8978 103.447L60.8138 103.364L60.7401 103.277L60.6768 103.179L60.6291 103.073L60.6001 102.96L60.5938 102.839L60.6094 102.75L60.625 102.592L60.5513 102.632L60.4506 102.675L60.3448 102.707L60.2348 102.731L60.1217 102.747L60.0055 102.76L59.8872 102.764L59.7669 102.762L59.6444 102.756L59.522 102.743L59.3996 102.727L59.2782 102.705L59.1578 102.677L59.0406 102.647L58.9254 102.608L58.8144 102.568L58.7075 102.521L58.6048 102.468L58.5093 102.409L58.4201 102.345L58.3381 102.274L58.2645 102.193L58.2022 102.1L58.1566 101.998L58.1296 101.887L58.1265 101.77L58.14 101.683L58.1534 101.547L57.4946 101.332C57.2893 101.843 57.0703 102.349 56.8378 102.848C56.5141 103.737 55.5647 105.421 56.2391 106.569C56.375 106.843 56.568 107.079 56.6303 107.392C56.6925 107.704 56.4871 107.913 56.2287 108.472C55.9714 109.033 55.7722 109.684 55.4215 110.432L59.9536 111.869L63.7491 113.206C64.1216 111.954 64.2897 111.433 64.5553 110.369C64.6342 110.055 64.6736 109.449 64.9122 109.232C65.1509 109.018 65.4476 109.058 65.7682 109.013C67.9887 108.703 68.468 107.944 68.7471 107.751C68.9858 107.586 69.5959 106.593 70.234 105.282ZM52.6574 93.7319L54.3383 94.3441L51.6769 101.658L49.995 101.046L52.6574 93.7319ZM55.6394 92.7337L57.3213 93.3459L53.3194 104.342L51.6374 103.73L55.6394 92.7337ZM57.9937 93.5897L59.6756 94.2019L58.0881 98.5639L57.6191 98.4135L56.8243 100.597L57.2829 100.775L55.6736 105.199L53.9917 104.587L57.9937 93.5897ZM78.8459 103.263L77.165 102.651L74.5026 109.967L76.1845 110.579L78.8459 103.263ZM77.2044 100.582L75.5225 99.9698L71.5206 110.966L73.2025 111.578L77.2044 100.582ZM74.8502 99.725L73.1683 99.1128L71.5652 103.519L72.0207 103.706L71.2259 105.889L70.759 105.732L69.1653 110.111L70.8472 110.723L74.8502 99.725ZM67.2146 99.6928C68.1069 98.6697 69.1798 99.3597 69.3323 100.433C68.8893 102.169 68.5417 102.727 67.9721 103.527C67.8268 103.729 67.6452 103.934 67.4533 104.186C66.7529 104.855 65.5846 104.439 65.9789 103.62C66.7083 101.762 66.6118 101.555 67.2146 99.6928ZM64.601 98.4186C65.3833 97.3188 66.8328 97.2711 67.0756 98.8648C67.0258 100.862 66.4375 101.859 65.7838 103.637C65.5296 104.328 65.4476 104.738 64.4661 104.565C63.8612 104.459 63.4845 103.641 63.7533 102.686C64.1756 101.188 64.4049 99.7862 64.601 98.4186ZM62.1896 97.5357C62.972 96.4358 64.1475 96.9193 64.409 97.9725C64.2887 100.08 63.8622 101.296 63.2293 103.382C63.2179 103.78 62.6327 103.905 61.9686 103.682C61.3855 103.487 60.82 103.025 60.9871 102.596C61.1168 100.532 62.0599 99.6004 62.1896 97.5357ZM59.6382 97.0086C60.4206 95.9087 61.2693 96.6216 61.9852 97.4506C61.7725 99.5921 61.1593 99.9283 60.6042 102.056C60.3708 102.867 58.2292 102.409 58.5145 101.372C58.6401 99.3846 59.5127 98.9955 59.6382 97.0086Z" fill="#BEAB8E"/>
</svg>
