<svg width="203" height="47" viewBox="0 0 203 47" fill="none" xmlns="http://www.w3.org/2000/svg">
<g clip-path="url(#clip0_0_573)">
<path fill-rule="evenodd" clip-rule="evenodd" d="M92.8637 0.133278L95.208 4.38685L104.796 3.2638L104.654 8.09525L113.531 11.8165L110.941 15.9312L116.728 23.4998L112.384 25.7953L113.531 35.1831L108.596 35.0441L104.796 43.7358L100.594 41.1998L92.864 46.8663L90.5197 42.6128L80.9322 43.7358L81.0741 38.9044L72.1975 35.1831L74.7874 31.0685L69 23.4998L73.3441 21.2043L72.1971 11.8165L77.1314 11.9555L80.9318 3.2638L85.134 5.79979L92.8637 0.133278ZM92.8637 6.40722C83.2229 6.40722 75.4074 14.0598 75.4074 23.4998C75.4074 32.9398 83.2229 40.5924 92.8637 40.5924C102.505 40.5924 110.32 32.9398 110.32 23.4998C110.32 14.0598 102.505 6.40722 92.8637 6.40722Z" fill="#E8AD15"/>
<path fill-rule="evenodd" clip-rule="evenodd" d="M92.9085 -0.065918L95.2838 4.24387L104.936 3.11323L104.793 8.00852L113.729 11.755L111.105 15.9239L116.931 23.5437L112.53 25.8695L113.684 35.3207L108.685 35.1799L104.859 43.9304L100.601 41.3609L92.8192 47.0657L90.444 42.7559L80.7916 43.8865L80.9354 38.9912L71.9988 35.2448L74.623 31.0758L68.7965 23.456L73.198 21.1302L72.0433 11.679L77.0428 11.8198L80.8689 3.06937L85.1266 5.63887L92.9085 -0.065918ZM92.8189 0.33259L85.1414 5.96082L80.9948 3.45835L77.22 12.0913L72.351 11.9542L73.4902 21.2786L69.2035 23.5437L74.9518 31.0612L72.3961 35.1215L81.2128 38.8176L81.0727 43.5852L90.5955 42.4698L92.9088 46.6671L100.586 41.0389L104.733 43.5414L108.508 34.9084L113.377 35.0455L112.238 25.7211L116.524 23.456L110.776 15.9385L113.332 11.8783L104.515 8.1821L104.655 3.41449L95.1322 4.52996L92.8189 0.33259ZM75.2714 23.4999C75.2714 13.9863 83.1477 6.27405 92.8637 6.27405C102.58 6.27405 110.456 13.9863 110.456 23.4999C110.456 33.0134 102.58 40.7257 92.8637 40.7257C83.1477 40.7257 75.2714 33.0134 75.2714 23.4999ZM92.8637 6.5405C83.298 6.5405 75.5435 14.1335 75.5435 23.4999C75.5435 32.8663 83.298 40.4592 92.8637 40.4592C102.429 40.4592 110.184 32.8663 110.184 23.4999C110.184 14.1335 102.429 6.5405 92.8637 6.5405Z" fill="#E8AD15"/>
<path fill-rule="evenodd" clip-rule="evenodd" d="M98.6973 14.8856C99.0584 15.567 98.787 16.4134 98.0911 16.776L87.5292 22.2798L91.982 33.0978C92.2754 33.8106 91.9239 34.6285 91.1968 34.9248C90.4697 35.221 89.6425 34.8834 89.3491 34.1706L84.4133 22.1794C84.1394 21.5141 84.4263 20.7477 85.0758 20.4092L96.7833 14.3085C97.4792 13.9458 98.3361 14.2042 98.6973 14.8856Z" fill="#E8AD15"/>
<path fill-rule="evenodd" clip-rule="evenodd" d="M100.558 19.4735C100.844 19.9764 100.659 20.6165 100.145 20.9033L93.7956 24.4474L96.3171 31.1314C96.5211 31.6722 96.2395 32.278 95.688 32.4845C95.1366 32.6909 94.5242 32.4199 94.3202 31.8791L91.482 24.3558C91.2998 23.8728 91.5039 23.3275 91.9628 23.0714L99.1097 19.0822C99.6235 18.7955 100.272 18.9706 100.558 19.4735Z" fill="#E8AD15"/>
</g>
<path d="M9.268 17.592V34H5.544V17.592H0.336V14.652H14.7L14.308 17.592H9.268ZM21.3695 18.768C23.5535 18.768 25.2521 19.468 26.4655 20.868C27.6975 22.2493 28.3135 24.1533 28.3135 26.58C28.3135 28.1293 28.0335 29.5013 27.4735 30.696C26.9135 31.872 26.1108 32.7867 25.0655 33.44C24.0201 34.0933 22.7788 34.42 21.3415 34.42C19.1575 34.42 17.4495 33.7293 16.2175 32.348C14.9855 30.948 14.3695 29.0253 14.3695 26.58C14.3695 25.0307 14.6495 23.668 15.2095 22.492C15.7695 21.316 16.5721 20.4013 17.6175 19.748C18.6815 19.0947 19.9321 18.768 21.3695 18.768ZM21.3695 21.484C19.2228 21.484 18.1495 23.1827 18.1495 26.58C18.1495 28.3347 18.4108 29.632 18.9335 30.472C19.4748 31.2933 20.2775 31.704 21.3415 31.704C22.4055 31.704 23.1988 31.284 23.7215 30.444C24.2628 29.604 24.5335 28.316 24.5335 26.58C24.5335 24.844 24.2628 23.5653 23.7215 22.744C23.1988 21.904 22.4148 21.484 21.3695 21.484ZM39.849 18.768C41.7344 18.768 43.125 19.4493 44.021 20.812C44.9357 22.1747 45.393 24.088 45.393 26.552C45.393 28.0827 45.1597 29.4453 44.693 30.64C44.245 31.816 43.573 32.74 42.677 33.412C41.7997 34.084 40.7544 34.42 39.541 34.42C37.973 34.42 36.7317 33.8787 35.817 32.796V39.712L32.233 40.104V19.188H35.369L35.565 21.008C36.125 20.2613 36.7784 19.7013 37.525 19.328C38.2904 18.9547 39.065 18.768 39.849 18.768ZM38.533 31.676C40.605 31.676 41.641 29.9773 41.641 26.58C41.641 24.7507 41.3984 23.444 40.913 22.66C40.4464 21.8573 39.737 21.456 38.785 21.456C38.2064 21.456 37.6557 21.6427 37.133 22.016C36.629 22.3707 36.1904 22.856 35.817 23.472V30.136C36.5077 31.1627 37.413 31.676 38.533 31.676ZM49.4727 19.188H59.3847L58.9647 21.988H53.0567V34H49.4727V19.188Z" fill="white"/>
<path d="M131.26 20.708C133.668 20.708 135.525 21.212 136.832 22.22C138.157 23.228 138.82 24.7213 138.82 26.7C138.82 28.828 138.139 30.4147 136.776 31.46C135.413 32.4867 133.575 33 131.26 33H125.268V13.652H136.636L136.244 16.536H128.964V20.708H131.26ZM131.148 30.228C132.361 30.228 133.295 29.9667 133.948 29.444C134.601 28.9027 134.928 28.0067 134.928 26.756C134.928 25.5987 134.601 24.7493 133.948 24.208C133.313 23.6667 132.352 23.396 131.064 23.396H128.964V30.228H131.148ZM154.329 25.244C154.329 25.4307 154.301 25.916 154.245 26.7H144.949C145.08 28.1373 145.453 29.164 146.069 29.78C146.704 30.396 147.544 30.704 148.589 30.704C149.242 30.704 149.858 30.6013 150.437 30.396C151.016 30.172 151.632 29.836 152.285 29.388L153.769 31.432C152.126 32.7573 150.297 33.42 148.281 33.42C146.022 33.42 144.277 32.7293 143.045 31.348C141.832 29.9667 141.225 28.0813 141.225 25.692C141.225 24.18 141.486 22.8267 142.009 21.632C142.532 20.4187 143.288 19.476 144.277 18.804C145.266 18.1133 146.442 17.768 147.805 17.768C149.877 17.768 151.482 18.4307 152.621 19.756C153.76 21.0627 154.329 22.892 154.329 25.244ZM150.773 24.208C150.773 21.6133 149.812 20.316 147.889 20.316C147.012 20.316 146.321 20.6427 145.817 21.296C145.332 21.9307 145.042 22.9573 144.949 24.376H150.773V24.208ZM164.29 20.932V33H160.706V20.932H156.114V18.188H169.078L168.63 20.932H164.29ZM177.482 17.768C179.666 17.768 181.364 18.468 182.578 19.868C183.81 21.2493 184.426 23.1533 184.426 25.58C184.426 27.1293 184.146 28.5013 183.586 29.696C183.026 30.872 182.223 31.7867 181.178 32.44C180.132 33.0933 178.891 33.42 177.454 33.42C175.27 33.42 173.562 32.7293 172.33 31.348C171.098 29.948 170.482 28.0253 170.482 25.58C170.482 24.0307 170.762 22.668 171.322 21.492C171.882 20.316 172.684 19.4013 173.73 18.748C174.794 18.0947 176.044 17.768 177.482 17.768ZM177.482 20.484C175.335 20.484 174.262 22.1827 174.262 25.58C174.262 27.3347 174.523 28.632 175.046 29.472C175.587 30.2933 176.39 30.704 177.454 30.704C178.518 30.704 179.311 30.284 179.834 29.444C180.375 28.604 180.646 27.316 180.646 25.58C180.646 23.844 180.375 22.5653 179.834 21.744C179.311 20.904 178.527 20.484 177.482 20.484ZM191.929 26.812V33H188.345V18.188H191.929V24.096H196.941V18.188H200.525V33H196.941V26.812H191.929Z" fill="white"/>
<defs>
<clipPath id="clip0_0_573">
<rect width="48" height="47" fill="white" transform="translate(69)"/>
</clipPath>
</defs>
</svg>
