<svg width="175" height="35" viewBox="0 0 175 35" fill="none" xmlns="http://www.w3.org/2000/svg">
<path fill-rule="evenodd" clip-rule="evenodd" d="M0 12.3822L3.32329 6.53857H9.67024L6.34894 12.3772L12.4776 22.9457L20.4652 22.8781L26.0534 13.2419L29.258 18.6617L29.2527 18.6704L23.6388 28.3514L12.4646 28.4438L12.4596 28.4359L9.32493 28.4617L0 12.3822Z" fill="white" fill-opacity="0.6"/>
<path fill-rule="evenodd" clip-rule="evenodd" d="M33.5206 0L36.9572 5.74435L33.7699 11.1763L30.3366 5.4359H18.026L14.0738 12.3056L19.6863 21.8708L13.3426 21.9231L13.3376 21.9142L7.69922 12.3046L13.2286 2.69588H13.2383L14.7901 0H33.5206Z" fill="white" fill-opacity="0.6"/>
<path fill-rule="evenodd" clip-rule="evenodd" d="M35.3705 16.1478L35.3752 16.1389L29.7191 6.53857H18.5153H18.5043L15.3989 12.0185H26.5523L30.5968 18.8814L24.4811 29.4645L17.7544 29.5202L20.9213 35.0002L27.6517 34.9434L36.9574 18.8414L35.3705 16.1478Z" fill="white" fill-opacity="0.6"/>
<path d="M46.3299 29.9121C47.0773 29.9121 47.6923 29.6663 48.1464 29.2126L47.8058 28.7494C47.4463 29.1181 46.9165 29.326 46.3961 29.326C45.4121 29.326 44.8066 28.6076 44.7499 27.7475H48.4492V27.5679C48.4492 26.1973 47.6355 25.1197 46.2542 25.1197C44.9486 25.1197 44.0024 26.1878 44.0024 27.5112C44.0024 28.9385 44.9769 29.9121 46.3299 29.9121ZM47.749 27.2276H44.7499C44.7877 26.5281 45.2702 25.7058 46.2447 25.7058C47.2854 25.7058 47.7396 26.547 47.749 27.2276Z" fill="#F1F3F7" fill-opacity="0.5"/>
<path d="M52.1624 29.7986L54.0641 25.2332H53.2883L51.7745 28.9763L50.2513 25.2332H49.4849L51.3866 29.7986H52.1624Z" fill="#F1F3F7" fill-opacity="0.5"/>
<path d="M57.3682 29.9121C58.759 29.9121 59.6294 28.8345 59.6294 27.5112C59.6294 26.1878 58.759 25.1197 57.3682 25.1197C55.9775 25.1197 55.107 26.1878 55.107 27.5112C55.107 28.8345 55.9775 29.9121 57.3682 29.9121ZM57.3682 29.2788C56.3937 29.2788 55.845 28.447 55.845 27.5112C55.845 26.5848 56.3937 25.753 57.3682 25.753C58.3427 25.753 58.882 26.5848 58.882 27.5112C58.882 28.447 58.3427 29.2788 57.3682 29.2788Z" fill="#F1F3F7" fill-opacity="0.5"/>
<path d="M62.0635 29.7986V23.4939H61.3539V29.7986H62.0635Z" fill="#F1F3F7" fill-opacity="0.5"/>
<path d="M67.8405 29.7986V25.2332H67.1309V28.5887C66.866 28.9574 66.3362 29.2788 65.778 29.2788C65.163 29.2788 64.7562 29.0425 64.7562 28.239V25.2332H64.0466V28.4564C64.0466 29.4489 64.548 29.9121 65.5036 29.9121C66.1848 29.9121 66.7809 29.5529 67.1309 29.1559V29.7986H67.8405Z" fill="#F1F3F7" fill-opacity="0.5"/>
<path d="M70.9795 29.9121C71.3958 29.9121 71.6513 29.7892 71.831 29.619L71.6229 29.0897C71.5283 29.1937 71.339 29.2788 71.1404 29.2788C70.8281 29.2788 70.6768 29.033 70.6768 28.6927V25.857H71.6039V25.2332H70.6768V23.9855H69.9672V25.2332H69.2103V25.857H69.9672V28.844C69.9672 29.5245 70.3078 29.9121 70.9795 29.9121Z" fill="#F1F3F7" fill-opacity="0.5"/>
<path d="M73.524 24.581C73.7889 24.581 74.0065 24.373 74.0065 24.1083C74.0065 23.8437 73.7889 23.6263 73.524 23.6263C73.2686 23.6263 73.051 23.8437 73.051 24.1083C73.051 24.373 73.2686 24.581 73.524 24.581ZM73.8836 29.7986V25.2332H73.174V29.7986H73.8836Z" fill="#F1F3F7" fill-opacity="0.5"/>
<path d="M77.863 29.9121C79.2538 29.9121 80.1242 28.8345 80.1242 27.5112C80.1242 26.1878 79.2538 25.1197 77.863 25.1197C76.4722 25.1197 75.6018 26.1878 75.6018 27.5112C75.6018 28.8345 76.4722 29.9121 77.863 29.9121ZM77.863 29.2788C76.8885 29.2788 76.3397 28.447 76.3397 27.5112C76.3397 26.5848 76.8885 25.753 77.863 25.753C78.8375 25.753 79.3768 26.5848 79.3768 27.5112C79.3768 28.447 78.8375 29.2788 77.863 29.2788Z" fill="#F1F3F7" fill-opacity="0.5"/>
<path d="M85.6425 29.7986V26.5943C85.6425 25.6018 85.1411 25.1197 84.1855 25.1197C83.5043 25.1197 82.8799 25.5167 82.5582 25.8948V25.2332H81.8486V29.7986H82.5582V26.462C82.8231 26.0933 83.3529 25.753 83.9111 25.753C84.5261 25.753 84.9329 26.0083 84.9329 26.8117V29.7986H85.6425Z" fill="#F1F3F7" fill-opacity="0.5"/>
<path d="M92.6304 29.9121C94.0212 29.9121 94.8916 28.8345 94.8916 27.5112C94.8916 26.1878 94.0212 25.1197 92.6304 25.1197C91.2396 25.1197 90.3692 26.1878 90.3692 27.5112C90.3692 28.8345 91.2396 29.9121 92.6304 29.9121ZM92.6304 29.2788C91.6559 29.2788 91.1072 28.447 91.1072 27.5112C91.1072 26.5848 91.6559 25.753 92.6304 25.753C93.6049 25.753 94.1442 26.5848 94.1442 27.5112C94.1442 28.447 93.6049 29.2788 92.6304 29.2788Z" fill="#F1F3F7" fill-opacity="0.5"/>
<path d="M97.5243 29.7986V25.857H98.4515V25.2332H97.5243V24.8834C97.5243 24.3068 97.7798 23.9855 98.2434 23.9855C98.4799 23.9855 98.6597 24.08 98.811 24.2123L99.1043 23.7491C98.8205 23.4845 98.4988 23.3994 98.1393 23.3994C97.3256 23.3994 96.8148 23.9476 96.8148 24.8834V25.2332H96.0579V25.857H96.8148V29.7986H97.5243Z" fill="#F1F3F7" fill-opacity="0.5"/>
<path d="M102.615 31.5851C102.747 31.6229 102.984 31.6513 103.135 31.6513C103.74 31.6418 104.204 31.3866 104.478 30.725L106.768 25.2332H105.992L104.478 28.9763L102.955 25.2332H102.189L104.1 29.8459L103.797 30.5359C103.636 30.914 103.428 31.018 103.116 31.018C103.002 31.018 102.832 30.9896 102.728 30.9424L102.615 31.5851Z" fill="#F1F3F7" fill-opacity="0.5"/>
<path d="M110.072 29.9121C111.463 29.9121 112.333 28.8345 112.333 27.5112C112.333 26.1878 111.463 25.1197 110.072 25.1197C108.681 25.1197 107.811 26.1878 107.811 27.5112C107.811 28.8345 108.681 29.9121 110.072 29.9121ZM110.072 29.2788C109.098 29.2788 108.549 28.447 108.549 27.5112C108.549 26.5848 109.098 25.753 110.072 25.753C111.047 25.753 111.586 26.5848 111.586 27.5112C111.586 28.447 111.047 29.2788 110.072 29.2788Z" fill="#F1F3F7" fill-opacity="0.5"/>
<path d="M117.852 29.7986V25.2332H117.142V28.5887C116.877 28.9574 116.347 29.2788 115.789 29.2788C115.174 29.2788 114.767 29.0425 114.767 28.239V25.2332H114.058V28.4564C114.058 29.4489 114.559 29.9121 115.515 29.9121C116.196 29.9121 116.792 29.5529 117.142 29.1559V29.7986H117.852Z" fill="#F1F3F7" fill-opacity="0.5"/>
<path d="M120.546 29.7986V26.5659C120.754 26.1973 121.35 25.8381 121.785 25.8381C121.899 25.8381 121.984 25.8476 122.069 25.8665V25.1386C121.445 25.1386 120.915 25.4884 120.546 25.9704V25.2332H119.836V29.7986H120.546Z" fill="#F1F3F7" fill-opacity="0.5"/>
<path d="M127.243 28.5604V26.4903C127.489 26.0933 128.048 25.753 128.606 25.753C129.533 25.753 130.082 26.5092 130.082 27.5206C130.082 28.532 129.533 29.2788 128.606 29.2788C128.048 29.2788 127.489 28.9574 127.243 28.5604ZM127.243 29.7986V29.1181C127.584 29.5812 128.142 29.9121 128.786 29.9121C129.978 29.9121 130.82 29.0046 130.82 27.5206C130.82 26.065 129.978 25.1197 128.786 25.1197C128.161 25.1197 127.612 25.4222 127.243 25.9232V23.4939H126.534V29.7986H127.243Z" fill="#F1F3F7" fill-opacity="0.5"/>
<path d="M136.337 29.7986V25.2332H135.628V28.5887C135.363 28.9574 134.833 29.2788 134.275 29.2788C133.66 29.2788 133.253 29.0425 133.253 28.239V25.2332H132.543V28.4564C132.543 29.4489 133.045 29.9121 134.001 29.9121C134.682 29.9121 135.278 29.5529 135.628 29.1559V29.7986H136.337Z" fill="#F1F3F7" fill-opacity="0.5"/>
<path d="M139.77 29.9121C140.952 29.9121 141.567 29.2977 141.567 28.532C141.567 26.755 138.738 27.4167 138.738 26.4147C138.738 26.0083 139.126 25.6963 139.751 25.6963C140.337 25.6963 140.839 25.9421 141.113 26.2729L141.444 25.7814C141.075 25.4128 140.527 25.1197 139.751 25.1197C138.663 25.1197 138.048 25.7247 138.048 26.4336C138.048 28.1256 140.877 27.445 140.877 28.5509C140.877 29.0046 140.498 29.3355 139.798 29.3355C139.174 29.3355 138.597 29.033 138.294 28.6833L137.925 29.1937C138.388 29.6852 139.022 29.9121 139.77 29.9121Z" fill="#F1F3F7" fill-opacity="0.5"/>
<path d="M143.638 24.581C143.903 24.581 144.12 24.373 144.12 24.1083C144.12 23.8437 143.903 23.6263 143.638 23.6263C143.382 23.6263 143.165 23.8437 143.165 24.1083C143.165 24.373 143.382 24.581 143.638 24.581ZM143.997 29.7986V25.2332H143.288V29.7986H143.997Z" fill="#F1F3F7" fill-opacity="0.5"/>
<path d="M149.774 29.7986V26.5943C149.774 25.6018 149.273 25.1197 148.317 25.1197C147.636 25.1197 147.012 25.5167 146.69 25.8948V25.2332H145.98V29.7986H146.69V26.462C146.955 26.0933 147.485 25.753 148.043 25.753C148.658 25.753 149.065 26.0083 149.065 26.8117V29.7986H149.774Z" fill="#F1F3F7" fill-opacity="0.5"/>
<path d="M153.822 29.9121C154.569 29.9121 155.184 29.6663 155.638 29.2126L155.298 28.7494C154.938 29.1181 154.408 29.326 153.888 29.326C152.904 29.326 152.298 28.6076 152.242 27.7475H155.941V27.5679C155.941 26.1973 155.127 25.1197 153.746 25.1197C152.44 25.1197 151.494 26.1878 151.494 27.5112C151.494 28.9385 152.469 29.9121 153.822 29.9121ZM155.241 27.2276H152.242C152.279 26.5281 152.762 25.7058 153.737 25.7058C154.777 25.7058 155.231 26.547 155.241 27.2276Z" fill="#F1F3F7" fill-opacity="0.5"/>
<path d="M159.105 29.9121C160.288 29.9121 160.903 29.2977 160.903 28.532C160.903 26.755 158.074 27.4167 158.074 26.4147C158.074 26.0083 158.462 25.6963 159.087 25.6963C159.673 25.6963 160.175 25.9421 160.449 26.2729L160.78 25.7814C160.411 25.4128 159.862 25.1197 159.087 25.1197C157.999 25.1197 157.384 25.7247 157.384 26.4336C157.384 28.1256 160.212 27.445 160.212 28.5509C160.212 29.0046 159.834 29.3355 159.134 29.3355C158.509 29.3355 157.932 29.033 157.63 28.6833L157.261 29.1937C157.724 29.6852 158.358 29.9121 159.105 29.9121Z" fill="#F1F3F7" fill-opacity="0.5"/>
<path d="M164.071 29.9121C165.254 29.9121 165.869 29.2977 165.869 28.532C165.869 26.755 163.04 27.4167 163.04 26.4147C163.04 26.0083 163.428 25.6963 164.052 25.6963C164.639 25.6963 165.14 25.9421 165.415 26.2729L165.746 25.7814C165.377 25.4128 164.828 25.1197 164.052 25.1197C162.964 25.1197 162.349 25.7247 162.349 26.4336C162.349 28.1256 165.178 27.445 165.178 28.5509C165.178 29.0046 164.8 29.3355 164.099 29.3355C163.475 29.3355 162.898 29.033 162.595 28.6833L162.226 29.1937C162.69 29.6852 163.324 29.9121 164.071 29.9121Z" fill="#F1F3F7" fill-opacity="0.5"/>
<path d="M58.7145 19.4598L62.1914 8.04608H59.0692L56.9405 15.7261L54.4333 8.04608H51.7605L49.2534 15.7261L47.1246 8.04608H44.0024L47.4794 19.4598H50.6962L53.1088 11.6852L55.5213 19.4598H58.7145Z" fill="white" fill-opacity="0.6"/>
<path d="M69.5132 19.7433C71.2872 19.7433 73.0848 19.1998 74.2201 18.1601L72.8956 16.2223C72.1623 16.9313 70.8141 17.3566 69.8444 17.3566C67.9048 17.3566 66.7459 16.1514 66.5566 14.71H75.048V14.0483C75.048 10.3146 72.73 7.76251 69.324 7.76251C65.8471 7.76251 63.4108 10.4328 63.4108 13.7411C63.4108 17.4039 66.0363 19.7433 69.5132 19.7433ZM72.1387 12.6777H66.5093C66.6512 11.5434 67.4554 10.1492 69.324 10.1492C71.3108 10.1492 72.0677 11.5907 72.1387 12.6777Z" fill="white" fill-opacity="0.6"/>
<path d="M80.6947 15.797V11.7561C81.1914 10.9999 82.3031 10.4328 83.2729 10.4328C85.0232 10.4328 86.1821 11.7797 86.1821 13.7647C86.1821 15.7497 85.0232 17.073 83.2729 17.073C82.3031 17.073 81.1914 16.5295 80.6947 15.797ZM80.6947 19.4598V17.9946C81.5935 19.1289 82.8471 19.7433 84.219 19.7433C87.1046 19.7433 89.2807 17.5693 89.2807 13.7647C89.2807 10.0311 87.1282 7.76251 84.219 7.76251C82.8708 7.76251 81.5935 8.35328 80.6947 9.51119V3.69801H77.6908V19.4598H80.6947Z" fill="white" fill-opacity="0.6"/>
<path d="M97.3211 19.7433C101.106 19.7433 103.376 17.0022 103.376 13.7411C103.376 10.5037 101.106 7.76251 97.3211 7.76251C93.5603 7.76251 91.2897 10.5037 91.2897 13.7411C91.2897 17.0022 93.5603 19.7433 97.3211 19.7433ZM97.3211 17.073C95.4525 17.073 94.4118 15.537 94.4118 13.7411C94.4118 11.9688 95.4525 10.4328 97.3211 10.4328C99.1897 10.4328 100.254 11.9688 100.254 13.7411C100.254 15.537 99.1897 17.073 97.3211 17.073Z" fill="white" fill-opacity="0.6"/>
<path d="M109.082 19.4598V3.69801H106.078V19.4598H109.082Z" fill="white" fill-opacity="0.6"/>
<path d="M123.248 19.4598V8.04608H120.244V15.7734C119.724 16.435 118.801 17.073 117.642 17.073C116.365 17.073 115.537 16.5532 115.537 14.9699V8.04608H112.533V16.1514C112.533 18.3727 113.716 19.7433 116.223 19.7433C118.092 19.7433 119.464 18.8926 120.244 18.0183V19.4598H123.248Z" fill="white" fill-opacity="0.6"/>
<path d="M130.535 19.7433C131.789 19.7433 132.593 19.4125 133.043 19.0108L132.404 16.7422C132.238 16.9076 131.813 17.073 131.363 17.073C130.701 17.073 130.323 16.5295 130.323 15.8206V10.6691H132.641V8.04608H130.323V4.92681H127.295V8.04608H125.403V10.6691H127.295V16.6241C127.295 18.6563 128.43 19.7433 130.535 19.7433Z" fill="white" fill-opacity="0.6"/>
<path d="M136.659 6.81728C137.652 6.81728 138.457 6.01383 138.457 5.02133C138.457 4.02884 137.652 3.24902 136.659 3.24902C135.689 3.24902 134.861 4.02884 134.861 5.02133C134.861 6.01383 135.689 6.81728 136.659 6.81728ZM138.173 19.4598V8.04608H135.169V19.4598H138.173Z" fill="white" fill-opacity="0.6"/>
<path d="M146.923 19.7433C150.707 19.7433 152.978 17.0022 152.978 13.7411C152.978 10.5037 150.707 7.76251 146.923 7.76251C143.162 7.76251 140.891 10.5037 140.891 13.7411C140.891 17.0022 143.162 19.7433 146.923 19.7433ZM146.923 17.073C145.054 17.073 144.013 15.537 144.013 13.7411C144.013 11.9688 145.054 10.4328 146.923 10.4328C148.791 10.4328 149.856 11.9688 149.856 13.7411C149.856 15.537 148.791 17.073 146.923 17.073Z" fill="white" fill-opacity="0.6"/>
<path d="M166.394 19.4598V11.4017C166.394 9.18036 165.188 7.76251 162.681 7.76251C160.812 7.76251 159.416 8.66048 158.683 9.53482V8.04608H155.679V19.4598H158.683V11.7797C159.18 11.0945 160.102 10.4328 161.285 10.4328C162.562 10.4328 163.39 10.9763 163.39 12.5596V19.4598H166.394Z" fill="white" fill-opacity="0.6"/>
<g clip-path="url(#clip0_5_2151)">
<path d="M174.426 6.15282L174.419 6.08381C174.415 6.03712 174.411 5.9901 174.405 5.94476C174.345 5.37095 174.15 4.84264 173.827 4.37496C173.347 3.67873 172.689 3.21121 171.871 2.98552C171.651 2.92456 171.418 2.88744 171.179 2.87502L171.142 2.86914L170.825 2.86948L170.613 2.88946C170.187 2.93463 169.784 3.05554 169.413 3.249C168.657 3.64581 168.109 4.24784 167.786 5.03862C167.66 5.3476 167.582 5.67725 167.555 6.01596C167.55 6.06214 167.545 6.10816 167.541 6.16089L167.541 6.47055L167.548 6.53873C167.552 6.58575 167.556 6.63293 167.562 6.67861C167.622 7.24991 167.816 7.77737 168.139 8.24623C168.552 8.85044 169.109 9.28638 169.794 9.54197C170.172 9.6832 170.564 9.75473 170.959 9.75473C171.024 9.75473 171.09 9.75272 171.157 9.74886C172.153 9.68941 172.986 9.27177 173.632 8.50702C174.025 8.04219 174.276 7.49592 174.376 6.88466C174.391 6.80288 174.399 6.72026 174.407 6.63764C174.411 6.59381 174.415 6.54998 174.423 6.4907L174.426 6.47105L174.426 6.15282ZM170.989 3.4045L170.993 3.48829C172.547 3.49031 173.81 4.75817 173.808 6.31437C173.805 7.8704 172.538 9.13625 170.982 9.13625C170.228 9.13541 169.519 8.84086 168.986 8.30702C168.453 7.77334 168.16 7.06451 168.161 6.31152C168.162 4.75482 169.431 3.48829 170.989 3.48829V3.4045Z" fill="white" fill-opacity="0.6"/>
<path d="M169.61 4.44775C169.6 4.44775 169.591 4.44893 169.577 4.45111L169.502 4.45968V8.35126H170.137V6.69263L170.382 6.69213C170.455 6.69213 170.528 6.69229 170.605 6.6933C170.68 6.69431 170.757 6.69515 170.826 6.70774C170.946 6.72907 171.048 6.78969 171.128 6.88793C171.21 6.98718 171.315 7.11934 171.405 7.26174C171.571 7.52572 171.733 7.79273 171.895 8.05974L172.034 8.28779C172.046 8.30575 172.078 8.35361 172.148 8.35361H172.15C172.246 8.35294 172.342 8.35294 172.438 8.35294H172.676C172.686 8.35294 172.695 8.3521 172.716 8.34975L172.845 8.33884L172.782 8.22548C172.772 8.20819 172.765 8.1961 172.758 8.18569L172.622 7.95982C172.523 7.79659 172.425 7.63354 172.325 7.47132C172.217 7.29785 172.105 7.1185 171.985 6.94805C171.886 6.80632 171.776 6.6933 171.652 6.60531C171.687 6.59641 171.721 6.58683 171.755 6.57625C172.037 6.48742 172.242 6.32755 172.366 6.10051C172.547 5.76751 172.557 5.41234 172.396 5.04457C172.28 4.78025 172.09 4.60594 171.831 4.52634C171.662 4.47496 171.475 4.45061 171.241 4.4496C170.873 4.44792 170.504 4.44775 170.136 4.44775H169.61ZM170.137 6.09782V5.02996H170.501C170.755 5.02996 171.008 5.0303 171.261 5.03366C171.334 5.03467 171.416 5.04793 171.505 5.07329C171.712 5.1324 171.844 5.3047 171.85 5.52317C171.856 5.74014 171.778 5.8948 171.612 5.99623C171.532 6.04476 171.437 6.07247 171.312 6.08338C171.214 6.09195 171.113 6.09665 171.012 6.09732C170.882 6.09799 170.754 6.09833 170.625 6.09833L170.137 6.09782Z" fill="white" fill-opacity="0.6"/>
</g>
<defs>
<clipPath id="clip0_5_2151">
<rect width="6.88526" height="6.88559" fill="white" transform="translate(167.541 2.86914)"/>
</clipPath>
</defs>
</svg>
